solid ASCII
  facet normal -1.000000e+00 -0.000000e+00 -0.000000e+00
    outer loop
      vertex   -4.445000e+01 0.000000e+00 -3.492500e+01
      vertex   -4.445000e+01 0.000000e+00 -3.810000e+01
      vertex   -4.445000e+01 -6.350000e+00 -3.492500e+01
    endloop
  endfacet
  facet normal -1.000000e+00 0.000000e+00 0.000000e+00
    outer loop
      vertex   -4.445000e+01 -6.350000e+00 -3.492500e+01
      vertex   -4.445000e+01 0.000000e+00 -3.810000e+01
      vertex   -4.445000e+01 -6.350000e+00 -5.080000e+01
    endloop
  endfacet
  facet normal -1.000000e+00 0.000000e+00 0.000000e+00
    outer loop
      vertex   -4.445000e+01 -6.350000e+00 -5.080000e+01
      vertex   -4.445000e+01 0.000000e+00 -3.810000e+01
      vertex   -4.445000e+01 3.175000e+00 -5.080000e+01
    endloop
  endfacet
  facet normal -1.000000e+00 0.000000e+00 0.000000e+00
    outer loop
      vertex   -4.445000e+01 3.175000e+00 -5.080000e+01
      vertex   -4.445000e+01 0.000000e+00 -3.810000e+01
      vertex   -4.445000e+01 3.175000e+00 -3.810000e+01
    endloop
  endfacet
  facet normal 0.000000e+00 1.000000e+00 0.000000e+00
    outer loop
      vertex   -1.905000e+01 3.175000e+00 -3.810000e+01
      vertex   -3.175000e+01 3.175000e+00 -4.286250e+01
      vertex   -4.445000e+01 3.175000e+00 -3.810000e+01
    endloop
  endfacet
  facet normal 0.000000e+00 1.000000e+00 0.000000e+00
    outer loop
      vertex   -4.445000e+01 3.175000e+00 -3.810000e+01
      vertex   -3.175000e+01 3.175000e+00 -4.286250e+01
      vertex   -3.216088e+01 3.175000e+00 -4.291659e+01
    endloop
  endfacet
  facet normal 0.000000e+00 1.000000e+00 0.000000e+00
    outer loop
      vertex   -4.445000e+01 3.175000e+00 -3.810000e+01
      vertex   -3.216088e+01 3.175000e+00 -4.291659e+01
      vertex   -3.254375e+01 3.175000e+00 -4.307518e+01
    endloop
  endfacet
  facet normal 0.000000e+00 1.000000e+00 -0.000000e+00
    outer loop
      vertex   -1.905000e+01 3.175000e+00 -5.080000e+01
      vertex   -3.016250e+01 3.175000e+00 -4.445000e+01
      vertex   -1.905000e+01 3.175000e+00 -3.810000e+01
    endloop
  endfacet
  facet normal 0.000000e+00 1.000000e+00 0.000000e+00
    outer loop
      vertex   -1.905000e+01 3.175000e+00 -3.810000e+01
      vertex   -3.016250e+01 3.175000e+00 -4.445000e+01
      vertex   -3.021659e+01 3.175000e+00 -4.403912e+01
    endloop
  endfacet
  facet normal 0.000000e+00 1.000000e+00 0.000000e+00
    outer loop
      vertex   -1.905000e+01 3.175000e+00 -3.810000e+01
      vertex   -3.021659e+01 3.175000e+00 -4.403912e+01
      vertex   -3.037518e+01 3.175000e+00 -4.365625e+01
    endloop
  endfacet
  facet normal 0.000000e+00 1.000000e+00 0.000000e+00
    outer loop
      vertex   -4.445000e+01 3.175000e+00 -5.080000e+01
      vertex   -3.175000e+01 3.175000e+00 -4.603750e+01
      vertex   -1.905000e+01 3.175000e+00 -5.080000e+01
    endloop
  endfacet
  facet normal 0.000000e+00 1.000000e+00 0.000000e+00
    outer loop
      vertex   -1.905000e+01 3.175000e+00 -5.080000e+01
      vertex   -3.175000e+01 3.175000e+00 -4.603750e+01
      vertex   -3.133912e+01 3.175000e+00 -4.598341e+01
    endloop
  endfacet
  facet normal 0.000000e+00 1.000000e+00 0.000000e+00
    outer loop
      vertex   -1.905000e+01 3.175000e+00 -5.080000e+01
      vertex   -3.133912e+01 3.175000e+00 -4.598341e+01
      vertex   -3.095625e+01 3.175000e+00 -4.582482e+01
    endloop
  endfacet
  facet normal 0.000000e+00 1.000000e+00 0.000000e+00
    outer loop
      vertex   -4.445000e+01 3.175000e+00 -3.810000e+01
      vertex   -3.333750e+01 3.175000e+00 -4.445000e+01
      vertex   -4.445000e+01 3.175000e+00 -5.080000e+01
    endloop
  endfacet
  facet normal 0.000000e+00 1.000000e+00 0.000000e+00
    outer loop
      vertex   -4.445000e+01 3.175000e+00 -5.080000e+01
      vertex   -3.333750e+01 3.175000e+00 -4.445000e+01
      vertex   -3.328341e+01 3.175000e+00 -4.486088e+01
    endloop
  endfacet
  facet normal 0.000000e+00 1.000000e+00 0.000000e+00
    outer loop
      vertex   -4.445000e+01 3.175000e+00 -5.080000e+01
      vertex   -3.328341e+01 3.175000e+00 -4.486088e+01
      vertex   -3.312482e+01 3.175000e+00 -4.524375e+01
    endloop
  endfacet
  facet normal 0.000000e+00 1.000000e+00 -0.000000e+00
    outer loop
      vertex   -3.037518e+01 3.175000e+00 -4.365625e+01
      vertex   -3.062747e+01 3.175000e+00 -4.332747e+01
      vertex   -1.905000e+01 3.175000e+00 -3.810000e+01
    endloop
  endfacet
  facet normal 0.000000e+00 1.000000e+00 0.000000e+00
    outer loop
      vertex   -1.905000e+01 3.175000e+00 -3.810000e+01
      vertex   -3.062747e+01 3.175000e+00 -4.332747e+01
      vertex   -3.095625e+01 3.175000e+00 -4.307518e+01
    endloop
  endfacet
  facet normal 0.000000e+00 1.000000e+00 0.000000e+00
    outer loop
      vertex   -1.905000e+01 3.175000e+00 -3.810000e+01
      vertex   -3.095625e+01 3.175000e+00 -4.307518e+01
      vertex   -3.133912e+01 3.175000e+00 -4.291659e+01
    endloop
  endfacet
  facet normal 0.000000e+00 1.000000e+00 -0.000000e+00
    outer loop
      vertex   -3.133912e+01 3.175000e+00 -4.291659e+01
      vertex   -3.175000e+01 3.175000e+00 -4.286250e+01
      vertex   -1.905000e+01 3.175000e+00 -3.810000e+01
    endloop
  endfacet
  facet normal 0.000000e+00 1.000000e+00 0.000000e+00
    outer loop
      vertex   -3.254375e+01 3.175000e+00 -4.307518e+01
      vertex   -3.287253e+01 3.175000e+00 -4.332747e+01
      vertex   -4.445000e+01 3.175000e+00 -3.810000e+01
    endloop
  endfacet
  facet normal 0.000000e+00 1.000000e+00 0.000000e+00
    outer loop
      vertex   -4.445000e+01 3.175000e+00 -3.810000e+01
      vertex   -3.287253e+01 3.175000e+00 -4.332747e+01
      vertex   -3.312482e+01 3.175000e+00 -4.365625e+01
    endloop
  endfacet
  facet normal 0.000000e+00 1.000000e+00 0.000000e+00
    outer loop
      vertex   -4.445000e+01 3.175000e+00 -3.810000e+01
      vertex   -3.312482e+01 3.175000e+00 -4.365625e+01
      vertex   -3.328341e+01 3.175000e+00 -4.403912e+01
    endloop
  endfacet
  facet normal 0.000000e+00 1.000000e+00 0.000000e+00
    outer loop
      vertex   -3.328341e+01 3.175000e+00 -4.403912e+01
      vertex   -3.333750e+01 3.175000e+00 -4.445000e+01
      vertex   -4.445000e+01 3.175000e+00 -3.810000e+01
    endloop
  endfacet
  facet normal 0.000000e+00 1.000000e+00 0.000000e+00
    outer loop
      vertex   -3.312482e+01 3.175000e+00 -4.524375e+01
      vertex   -3.287253e+01 3.175000e+00 -4.557253e+01
      vertex   -4.445000e+01 3.175000e+00 -5.080000e+01
    endloop
  endfacet
  facet normal 0.000000e+00 1.000000e+00 0.000000e+00
    outer loop
      vertex   -4.445000e+01 3.175000e+00 -5.080000e+01
      vertex   -3.287253e+01 3.175000e+00 -4.557253e+01
      vertex   -3.254375e+01 3.175000e+00 -4.582482e+01
    endloop
  endfacet
  facet normal 0.000000e+00 1.000000e+00 0.000000e+00
    outer loop
      vertex   -4.445000e+01 3.175000e+00 -5.080000e+01
      vertex   -3.254375e+01 3.175000e+00 -4.582482e+01
      vertex   -3.216088e+01 3.175000e+00 -4.598341e+01
    endloop
  endfacet
  facet normal 0.000000e+00 1.000000e+00 0.000000e+00
    outer loop
      vertex   -3.216088e+01 3.175000e+00 -4.598341e+01
      vertex   -3.175000e+01 3.175000e+00 -4.603750e+01
      vertex   -4.445000e+01 3.175000e+00 -5.080000e+01
    endloop
  endfacet
  facet normal -0.000000e+00 1.000000e+00 0.000000e+00
    outer loop
      vertex   -3.095625e+01 3.175000e+00 -4.582482e+01
      vertex   -3.062747e+01 3.175000e+00 -4.557253e+01
      vertex   -1.905000e+01 3.175000e+00 -5.080000e+01
    endloop
  endfacet
  facet normal 0.000000e+00 1.000000e+00 0.000000e+00
    outer loop
      vertex   -1.905000e+01 3.175000e+00 -5.080000e+01
      vertex   -3.062747e+01 3.175000e+00 -4.557253e+01
      vertex   -3.037518e+01 3.175000e+00 -4.524375e+01
    endloop
  endfacet
  facet normal 0.000000e+00 1.000000e+00 0.000000e+00
    outer loop
      vertex   -1.905000e+01 3.175000e+00 -5.080000e+01
      vertex   -3.037518e+01 3.175000e+00 -4.524375e+01
      vertex   -3.021659e+01 3.175000e+00 -4.486088e+01
    endloop
  endfacet
  facet normal -0.000000e+00 1.000000e+00 0.000000e+00
    outer loop
      vertex   -3.021659e+01 3.175000e+00 -4.486088e+01
      vertex   -3.016250e+01 3.175000e+00 -4.445000e+01
      vertex   -1.905000e+01 3.175000e+00 -5.080000e+01
    endloop
  endfacet
  facet normal -9.914449e-01 0.000000e+00 1.305262e-01
    outer loop
      vertex   -3.021659e+01 3.175000e+00 -4.486088e+01
      vertex   -3.021659e+01 -6.350000e+00 -4.486088e+01
      vertex   -3.016250e+01 3.175000e+00 -4.445000e+01
    endloop
  endfacet
  facet normal -9.914449e-01 0.000000e+00 1.305262e-01
    outer loop
      vertex   -3.016250e+01 3.175000e+00 -4.445000e+01
      vertex   -3.021659e+01 -6.350000e+00 -4.486088e+01
      vertex   -3.016250e+01 -6.350000e+00 -4.445000e+01
    endloop
  endfacet
  facet normal -9.914449e-01 -0.000000e+00 -1.305262e-01
    outer loop
      vertex   -3.016250e+01 3.175000e+00 -4.445000e+01
      vertex   -3.016250e+01 -6.350000e+00 -4.445000e+01
      vertex   -3.021659e+01 3.175000e+00 -4.403912e+01
    endloop
  endfacet
  facet normal -9.914449e-01 -0.000000e+00 -1.305262e-01
    outer loop
      vertex   -3.021659e+01 3.175000e+00 -4.403912e+01
      vertex   -3.016250e+01 -6.350000e+00 -4.445000e+01
      vertex   -3.021659e+01 -6.350000e+00 -4.403912e+01
    endloop
  endfacet
  facet normal -9.238795e-01 -0.000000e+00 -3.826834e-01
    outer loop
      vertex   -3.021659e+01 3.175000e+00 -4.403912e+01
      vertex   -3.021659e+01 -6.350000e+00 -4.403912e+01
      vertex   -3.037518e+01 3.175000e+00 -4.365625e+01
    endloop
  endfacet
  facet normal -9.238795e-01 -0.000000e+00 -3.826834e-01
    outer loop
      vertex   -3.037518e+01 3.175000e+00 -4.365625e+01
      vertex   -3.021659e+01 -6.350000e+00 -4.403912e+01
      vertex   -3.037518e+01 -6.350000e+00 -4.365625e+01
    endloop
  endfacet
  facet normal -7.933533e-01 -0.000000e+00 -6.087614e-01
    outer loop
      vertex   -3.037518e+01 3.175000e+00 -4.365625e+01
      vertex   -3.037518e+01 -6.350000e+00 -4.365625e+01
      vertex   -3.062747e+01 3.175000e+00 -4.332747e+01
    endloop
  endfacet
  facet normal -7.933533e-01 -0.000000e+00 -6.087614e-01
    outer loop
      vertex   -3.062747e+01 3.175000e+00 -4.332747e+01
      vertex   -3.037518e+01 -6.350000e+00 -4.365625e+01
      vertex   -3.062747e+01 -6.350000e+00 -4.332747e+01
    endloop
  endfacet
  facet normal -6.087614e-01 -0.000000e+00 -7.933533e-01
    outer loop
      vertex   -3.062747e+01 3.175000e+00 -4.332747e+01
      vertex   -3.062747e+01 -6.350000e+00 -4.332747e+01
      vertex   -3.095625e+01 3.175000e+00 -4.307518e+01
    endloop
  endfacet
  facet normal -6.087614e-01 2.270609e-16 -7.933533e-01
    outer loop
      vertex   -3.095625e+01 3.175000e+00 -4.307518e+01
      vertex   -3.062747e+01 -6.350000e+00 -4.332747e+01
      vertex   -3.095625e+01 -6.350000e+00 -4.307518e+01
    endloop
  endfacet
  facet normal -3.826834e-01 1.427364e-16 -9.238795e-01
    outer loop
      vertex   -3.095625e+01 3.175000e+00 -4.307518e+01
      vertex   -3.095625e+01 -6.350000e+00 -4.307518e+01
      vertex   -3.133912e+01 3.175000e+00 -4.291659e+01
    endloop
  endfacet
  facet normal -3.826834e-01 -0.000000e+00 -9.238795e-01
    outer loop
      vertex   -3.133912e+01 3.175000e+00 -4.291659e+01
      vertex   -3.095625e+01 -6.350000e+00 -4.307518e+01
      vertex   -3.133912e+01 -6.350000e+00 -4.291659e+01
    endloop
  endfacet
  facet normal -1.305262e-01 -0.000000e+00 -9.914449e-01
    outer loop
      vertex   -3.133912e+01 3.175000e+00 -4.291659e+01
      vertex   -3.133912e+01 -6.350000e+00 -4.291659e+01
      vertex   -3.175000e+01 3.175000e+00 -4.286250e+01
    endloop
  endfacet
  facet normal -1.305262e-01 -0.000000e+00 -9.914449e-01
    outer loop
      vertex   -3.175000e+01 3.175000e+00 -4.286250e+01
      vertex   -3.133912e+01 -6.350000e+00 -4.291659e+01
      vertex   -3.175000e+01 -6.350000e+00 -4.286250e+01
    endloop
  endfacet
  facet normal 1.305262e-01 0.000000e+00 -9.914449e-01
    outer loop
      vertex   -3.175000e+01 3.175000e+00 -4.286250e+01
      vertex   -3.175000e+01 -6.350000e+00 -4.286250e+01
      vertex   -3.216088e+01 3.175000e+00 -4.291659e+01
    endloop
  endfacet
  facet normal 1.305262e-01 0.000000e+00 -9.914449e-01
    outer loop
      vertex   -3.216088e+01 3.175000e+00 -4.291659e+01
      vertex   -3.175000e+01 -6.350000e+00 -4.286250e+01
      vertex   -3.216088e+01 -6.350000e+00 -4.291659e+01
    endloop
  endfacet
  facet normal 3.826834e-01 0.000000e+00 -9.238795e-01
    outer loop
      vertex   -3.216088e+01 3.175000e+00 -4.291659e+01
      vertex   -3.216088e+01 -6.350000e+00 -4.291659e+01
      vertex   -3.254375e+01 3.175000e+00 -4.307518e+01
    endloop
  endfacet
  facet normal 3.826834e-01 -2.854729e-16 -9.238795e-01
    outer loop
      vertex   -3.254375e+01 3.175000e+00 -4.307518e+01
      vertex   -3.216088e+01 -6.350000e+00 -4.291659e+01
      vertex   -3.254375e+01 -6.350000e+00 -4.307518e+01
    endloop
  endfacet
  facet normal 6.087614e-01 -4.541218e-16 -7.933533e-01
    outer loop
      vertex   -3.254375e+01 3.175000e+00 -4.307518e+01
      vertex   -3.254375e+01 -6.350000e+00 -4.307518e+01
      vertex   -3.287253e+01 3.175000e+00 -4.332747e+01
    endloop
  endfacet
  facet normal 6.087614e-01 0.000000e+00 -7.933533e-01
    outer loop
      vertex   -3.287253e+01 3.175000e+00 -4.332747e+01
      vertex   -3.254375e+01 -6.350000e+00 -4.307518e+01
      vertex   -3.287253e+01 -6.350000e+00 -4.332747e+01
    endloop
  endfacet
  facet normal 7.933533e-01 0.000000e+00 -6.087614e-01
    outer loop
      vertex   -3.287253e+01 3.175000e+00 -4.332747e+01
      vertex   -3.287253e+01 -6.350000e+00 -4.332747e+01
      vertex   -3.312482e+01 3.175000e+00 -4.365625e+01
    endloop
  endfacet
  facet normal 7.933533e-01 0.000000e+00 -6.087614e-01
    outer loop
      vertex   -3.312482e+01 3.175000e+00 -4.365625e+01
      vertex   -3.287253e+01 -6.350000e+00 -4.332747e+01
      vertex   -3.312482e+01 -6.350000e+00 -4.365625e+01
    endloop
  endfacet
  facet normal 9.238795e-01 0.000000e+00 -3.826834e-01
    outer loop
      vertex   -3.312482e+01 3.175000e+00 -4.365625e+01
      vertex   -3.312482e+01 -6.350000e+00 -4.365625e+01
      vertex   -3.328341e+01 3.175000e+00 -4.403912e+01
    endloop
  endfacet
  facet normal 9.238795e-01 -6.891925e-16 -3.826834e-01
    outer loop
      vertex   -3.328341e+01 3.175000e+00 -4.403912e+01
      vertex   -3.312482e+01 -6.350000e+00 -4.365625e+01
      vertex   -3.328341e+01 -6.350000e+00 -4.403912e+01
    endloop
  endfacet
  facet normal 9.914449e-01 -7.395947e-16 -1.305262e-01
    outer loop
      vertex   -3.328341e+01 3.175000e+00 -4.403912e+01
      vertex   -3.328341e+01 -6.350000e+00 -4.403912e+01
      vertex   -3.333750e+01 3.175000e+00 -4.445000e+01
    endloop
  endfacet
  facet normal 9.914449e-01 0.000000e+00 -1.305262e-01
    outer loop
      vertex   -3.333750e+01 3.175000e+00 -4.445000e+01
      vertex   -3.328341e+01 -6.350000e+00 -4.403912e+01
      vertex   -3.333750e+01 -6.350000e+00 -4.445000e+01
    endloop
  endfacet
  facet normal 9.914449e-01 0.000000e+00 1.305262e-01
    outer loop
      vertex   -3.333750e+01 3.175000e+00 -4.445000e+01
      vertex   -3.333750e+01 -6.350000e+00 -4.445000e+01
      vertex   -3.328341e+01 3.175000e+00 -4.486088e+01
    endloop
  endfacet
  facet normal 9.914449e-01 7.395947e-16 1.305262e-01
    outer loop
      vertex   -3.328341e+01 3.175000e+00 -4.486088e+01
      vertex   -3.333750e+01 -6.350000e+00 -4.445000e+01
      vertex   -3.328341e+01 -6.350000e+00 -4.486088e+01
    endloop
  endfacet
  facet normal 9.238795e-01 6.891925e-16 3.826834e-01
    outer loop
      vertex   -3.328341e+01 3.175000e+00 -4.486088e+01
      vertex   -3.328341e+01 -6.350000e+00 -4.486088e+01
      vertex   -3.312482e+01 3.175000e+00 -4.524375e+01
    endloop
  endfacet
  facet normal 9.238795e-01 0.000000e+00 3.826834e-01
    outer loop
      vertex   -3.312482e+01 3.175000e+00 -4.524375e+01
      vertex   -3.328341e+01 -6.350000e+00 -4.486088e+01
      vertex   -3.312482e+01 -6.350000e+00 -4.524375e+01
    endloop
  endfacet
  facet normal 7.933533e-01 0.000000e+00 6.087614e-01
    outer loop
      vertex   -3.312482e+01 3.175000e+00 -4.524375e+01
      vertex   -3.312482e+01 -6.350000e+00 -4.524375e+01
      vertex   -3.287253e+01 3.175000e+00 -4.557253e+01
    endloop
  endfacet
  facet normal 7.933533e-01 0.000000e+00 6.087614e-01
    outer loop
      vertex   -3.287253e+01 3.175000e+00 -4.557253e+01
      vertex   -3.312482e+01 -6.350000e+00 -4.524375e+01
      vertex   -3.287253e+01 -6.350000e+00 -4.557253e+01
    endloop
  endfacet
  facet normal 6.087614e-01 0.000000e+00 7.933533e-01
    outer loop
      vertex   -3.287253e+01 3.175000e+00 -4.557253e+01
      vertex   -3.287253e+01 -6.350000e+00 -4.557253e+01
      vertex   -3.254375e+01 3.175000e+00 -4.582482e+01
    endloop
  endfacet
  facet normal 6.087614e-01 4.541218e-16 7.933533e-01
    outer loop
      vertex   -3.254375e+01 3.175000e+00 -4.582482e+01
      vertex   -3.287253e+01 -6.350000e+00 -4.557253e+01
      vertex   -3.254375e+01 -6.350000e+00 -4.582482e+01
    endloop
  endfacet
  facet normal 3.826834e-01 2.854729e-16 9.238795e-01
    outer loop
      vertex   -3.254375e+01 3.175000e+00 -4.582482e+01
      vertex   -3.254375e+01 -6.350000e+00 -4.582482e+01
      vertex   -3.216088e+01 3.175000e+00 -4.598341e+01
    endloop
  endfacet
  facet normal 3.826834e-01 0.000000e+00 9.238795e-01
    outer loop
      vertex   -3.216088e+01 3.175000e+00 -4.598341e+01
      vertex   -3.254375e+01 -6.350000e+00 -4.582482e+01
      vertex   -3.216088e+01 -6.350000e+00 -4.598341e+01
    endloop
  endfacet
  facet normal 1.305262e-01 0.000000e+00 9.914449e-01
    outer loop
      vertex   -3.216088e+01 3.175000e+00 -4.598341e+01
      vertex   -3.216088e+01 -6.350000e+00 -4.598341e+01
      vertex   -3.175000e+01 3.175000e+00 -4.603750e+01
    endloop
  endfacet
  facet normal 1.305262e-01 0.000000e+00 9.914449e-01
    outer loop
      vertex   -3.175000e+01 3.175000e+00 -4.603750e+01
      vertex   -3.216088e+01 -6.350000e+00 -4.598341e+01
      vertex   -3.175000e+01 -6.350000e+00 -4.603750e+01
    endloop
  endfacet
  facet normal -1.305262e-01 0.000000e+00 9.914449e-01
    outer loop
      vertex   -3.175000e+01 3.175000e+00 -4.603750e+01
      vertex   -3.175000e+01 -6.350000e+00 -4.603750e+01
      vertex   -3.133912e+01 3.175000e+00 -4.598341e+01
    endloop
  endfacet
  facet normal -1.305262e-01 0.000000e+00 9.914449e-01
    outer loop
      vertex   -3.133912e+01 3.175000e+00 -4.598341e+01
      vertex   -3.175000e+01 -6.350000e+00 -4.603750e+01
      vertex   -3.133912e+01 -6.350000e+00 -4.598341e+01
    endloop
  endfacet
  facet normal -3.826834e-01 0.000000e+00 9.238795e-01
    outer loop
      vertex   -3.133912e+01 3.175000e+00 -4.598341e+01
      vertex   -3.133912e+01 -6.350000e+00 -4.598341e+01
      vertex   -3.095625e+01 3.175000e+00 -4.582482e+01
    endloop
  endfacet
  facet normal -3.826834e-01 -1.427364e-16 9.238795e-01
    outer loop
      vertex   -3.095625e+01 3.175000e+00 -4.582482e+01
      vertex   -3.133912e+01 -6.350000e+00 -4.598341e+01
      vertex   -3.095625e+01 -6.350000e+00 -4.582482e+01
    endloop
  endfacet
  facet normal -6.087614e-01 -2.270609e-16 7.933533e-01
    outer loop
      vertex   -3.095625e+01 3.175000e+00 -4.582482e+01
      vertex   -3.095625e+01 -6.350000e+00 -4.582482e+01
      vertex   -3.062747e+01 3.175000e+00 -4.557253e+01
    endloop
  endfacet
  facet normal -6.087614e-01 0.000000e+00 7.933533e-01
    outer loop
      vertex   -3.062747e+01 3.175000e+00 -4.557253e+01
      vertex   -3.095625e+01 -6.350000e+00 -4.582482e+01
      vertex   -3.062747e+01 -6.350000e+00 -4.557253e+01
    endloop
  endfacet
  facet normal -7.933533e-01 0.000000e+00 6.087614e-01
    outer loop
      vertex   -3.062747e+01 3.175000e+00 -4.557253e+01
      vertex   -3.062747e+01 -6.350000e+00 -4.557253e+01
      vertex   -3.037518e+01 3.175000e+00 -4.524375e+01
    endloop
  endfacet
  facet normal -7.933533e-01 0.000000e+00 6.087614e-01
    outer loop
      vertex   -3.037518e+01 3.175000e+00 -4.524375e+01
      vertex   -3.062747e+01 -6.350000e+00 -4.557253e+01
      vertex   -3.037518e+01 -6.350000e+00 -4.524375e+01
    endloop
  endfacet
  facet normal -9.238795e-01 0.000000e+00 3.826834e-01
    outer loop
      vertex   -3.037518e+01 3.175000e+00 -4.524375e+01
      vertex   -3.037518e+01 -6.350000e+00 -4.524375e+01
      vertex   -3.021659e+01 3.175000e+00 -4.486088e+01
    endloop
  endfacet
  facet normal -9.238795e-01 0.000000e+00 3.826834e-01
    outer loop
      vertex   -3.021659e+01 3.175000e+00 -4.486088e+01
      vertex   -3.037518e+01 -6.350000e+00 -4.524375e+01
      vertex   -3.021659e+01 -6.350000e+00 -4.486088e+01
    endloop
  endfacet
  facet normal 0.000000e+00 0.000000e+00 1.000000e+00
    outer loop
      vertex   -1.905000e+01 0.000000e+00 -3.492500e+01
      vertex   -4.445000e+01 0.000000e+00 -3.492500e+01
      vertex   -1.905000e+01 -6.350000e+00 -3.492500e+01
    endloop
  endfacet
  facet normal 0.000000e+00 0.000000e+00 1.000000e+00
    outer loop
      vertex   -1.905000e+01 -6.350000e+00 -3.492500e+01
      vertex   -4.445000e+01 0.000000e+00 -3.492500e+01
      vertex   -4.445000e+01 -6.350000e+00 -3.492500e+01
    endloop
  endfacet
  facet normal 1.000000e+00 0.000000e+00 1.118965e-15
    outer loop
      vertex   -1.905000e+01 0.000000e+00 -3.492500e+01
      vertex   -1.905000e+01 -6.350000e+00 -3.492500e+01
      vertex   -1.905000e+01 0.000000e+00 -3.810000e+01
    endloop
  endfacet
  facet normal 1.000000e+00 -5.594825e-16 0.000000e+00
    outer loop
      vertex   -1.905000e+01 0.000000e+00 -3.810000e+01
      vertex   -1.905000e+01 -6.350000e+00 -3.492500e+01
      vertex   -1.905000e+01 -6.350000e+00 -5.080000e+01
    endloop
  endfacet
  facet normal 1.000000e+00 0.000000e+00 -2.797412e-16
    outer loop
      vertex   -1.905000e+01 0.000000e+00 -3.810000e+01
      vertex   -1.905000e+01 -6.350000e+00 -5.080000e+01
      vertex   -1.905000e+01 3.175000e+00 -5.080000e+01
    endloop
  endfacet
  facet normal 1.000000e+00 1.118965e-15 -0.000000e+00
    outer loop
      vertex   -1.905000e+01 3.175000e+00 -5.080000e+01
      vertex   -1.905000e+01 3.175000e+00 -3.810000e+01
      vertex   -1.905000e+01 0.000000e+00 -3.810000e+01
    endloop
  endfacet
  facet normal 0.000000e+00 0.000000e+00 -1.000000e+00
    outer loop
      vertex   -1.905000e+01 -6.350000e+00 -5.080000e+01
      vertex   -4.445000e+01 -6.350000e+00 -5.080000e+01
      vertex   -1.905000e+01 3.175000e+00 -5.080000e+01
    endloop
  endfacet
  facet normal -0.000000e+00 0.000000e+00 -1.000000e+00
    outer loop
      vertex   -1.905000e+01 3.175000e+00 -5.080000e+01
      vertex   -4.445000e+01 -6.350000e+00 -5.080000e+01
      vertex   -4.445000e+01 3.175000e+00 -5.080000e+01
    endloop
  endfacet
  facet normal 0.000000e+00 -1.000000e+00 0.000000e+00
    outer loop
      vertex   -3.021659e+01 -6.350000e+00 -4.403912e+01
      vertex   -3.016250e+01 -6.350000e+00 -4.445000e+01
      vertex   -1.905000e+01 -6.350000e+00 -5.080000e+01
    endloop
  endfacet
  facet normal 0.000000e+00 -1.000000e+00 0.000000e+00
    outer loop
      vertex   -1.905000e+01 -6.350000e+00 -5.080000e+01
      vertex   -3.016250e+01 -6.350000e+00 -4.445000e+01
      vertex   -3.021659e+01 -6.350000e+00 -4.486088e+01
    endloop
  endfacet
  facet normal 0.000000e+00 -1.000000e+00 0.000000e+00
    outer loop
      vertex   -1.905000e+01 -6.350000e+00 -5.080000e+01
      vertex   -3.021659e+01 -6.350000e+00 -4.486088e+01
      vertex   -3.037518e+01 -6.350000e+00 -4.524375e+01
    endloop
  endfacet
  facet normal 0.000000e+00 -1.000000e+00 -0.000000e+00
    outer loop
      vertex   -3.037518e+01 -6.350000e+00 -4.524375e+01
      vertex   -3.062747e+01 -6.350000e+00 -4.557253e+01
      vertex   -1.905000e+01 -6.350000e+00 -5.080000e+01
    endloop
  endfacet
  facet normal 0.000000e+00 -1.000000e+00 0.000000e+00
    outer loop
      vertex   -1.905000e+01 -6.350000e+00 -5.080000e+01
      vertex   -3.062747e+01 -6.350000e+00 -4.557253e+01
      vertex   -3.095625e+01 -6.350000e+00 -4.582482e+01
    endloop
  endfacet
  facet normal 0.000000e+00 -1.000000e+00 0.000000e+00
    outer loop
      vertex   -1.905000e+01 -6.350000e+00 -5.080000e+01
      vertex   -3.095625e+01 -6.350000e+00 -4.582482e+01
      vertex   -3.133912e+01 -6.350000e+00 -4.598341e+01
    endloop
  endfacet
  facet normal 0.000000e+00 -1.000000e+00 -0.000000e+00
    outer loop
      vertex   -3.133912e+01 -6.350000e+00 -4.598341e+01
      vertex   -3.175000e+01 -6.350000e+00 -4.603750e+01
      vertex   -1.905000e+01 -6.350000e+00 -5.080000e+01
    endloop
  endfacet
  facet normal 0.000000e+00 -1.000000e+00 0.000000e+00
    outer loop
      vertex   -1.905000e+01 -6.350000e+00 -5.080000e+01
      vertex   -3.175000e+01 -6.350000e+00 -4.603750e+01
      vertex   -4.445000e+01 -6.350000e+00 -5.080000e+01
    endloop
  endfacet
  facet normal 0.000000e+00 -1.000000e+00 0.000000e+00
    outer loop
      vertex   -4.445000e+01 -6.350000e+00 -5.080000e+01
      vertex   -3.175000e+01 -6.350000e+00 -4.603750e+01
      vertex   -3.216088e+01 -6.350000e+00 -4.598341e+01
    endloop
  endfacet
  facet normal 0.000000e+00 -1.000000e+00 0.000000e+00
    outer loop
      vertex   -4.445000e+01 -6.350000e+00 -5.080000e+01
      vertex   -3.216088e+01 -6.350000e+00 -4.598341e+01
      vertex   -3.254375e+01 -6.350000e+00 -4.582482e+01
    endloop
  endfacet
  facet normal -0.000000e+00 -1.000000e+00 0.000000e+00
    outer loop
      vertex   -3.254375e+01 -6.350000e+00 -4.582482e+01
      vertex   -3.287253e+01 -6.350000e+00 -4.557253e+01
      vertex   -4.445000e+01 -6.350000e+00 -5.080000e+01
    endloop
  endfacet
  facet normal 0.000000e+00 -1.000000e+00 0.000000e+00
    outer loop
      vertex   -4.445000e+01 -6.350000e+00 -5.080000e+01
      vertex   -3.287253e+01 -6.350000e+00 -4.557253e+01
      vertex   -3.312482e+01 -6.350000e+00 -4.524375e+01
    endloop
  endfacet
  facet normal 0.000000e+00 -1.000000e+00 0.000000e+00
    outer loop
      vertex   -4.445000e+01 -6.350000e+00 -5.080000e+01
      vertex   -3.312482e+01 -6.350000e+00 -4.524375e+01
      vertex   -3.328341e+01 -6.350000e+00 -4.486088e+01
    endloop
  endfacet
  facet normal -0.000000e+00 -1.000000e+00 0.000000e+00
    outer loop
      vertex   -3.328341e+01 -6.350000e+00 -4.486088e+01
      vertex   -3.333750e+01 -6.350000e+00 -4.445000e+01
      vertex   -4.445000e+01 -6.350000e+00 -5.080000e+01
    endloop
  endfacet
  facet normal 0.000000e+00 -1.000000e+00 0.000000e+00
    outer loop
      vertex   -4.445000e+01 -6.350000e+00 -5.080000e+01
      vertex   -3.333750e+01 -6.350000e+00 -4.445000e+01
      vertex   -3.328341e+01 -6.350000e+00 -4.403912e+01
    endloop
  endfacet
  facet normal 0.000000e+00 -1.000000e+00 0.000000e+00
    outer loop
      vertex   -4.445000e+01 -6.350000e+00 -5.080000e+01
      vertex   -3.328341e+01 -6.350000e+00 -4.403912e+01
      vertex   -4.445000e+01 -6.350000e+00 -3.492500e+01
    endloop
  endfacet
  facet normal 0.000000e+00 -1.000000e+00 0.000000e+00
    outer loop
      vertex   -4.445000e+01 -6.350000e+00 -3.492500e+01
      vertex   -3.328341e+01 -6.350000e+00 -4.403912e+01
      vertex   -3.312482e+01 -6.350000e+00 -4.365625e+01
    endloop
  endfacet
  facet normal 0.000000e+00 -1.000000e+00 0.000000e+00
    outer loop
      vertex   -4.445000e+01 -6.350000e+00 -3.492500e+01
      vertex   -3.312482e+01 -6.350000e+00 -4.365625e+01
      vertex   -3.287253e+01 -6.350000e+00 -4.332747e+01
    endloop
  endfacet
  facet normal 0.000000e+00 -1.000000e+00 0.000000e+00
    outer loop
      vertex   -3.287253e+01 -6.350000e+00 -4.332747e+01
      vertex   -3.254375e+01 -6.350000e+00 -4.307518e+01
      vertex   -4.445000e+01 -6.350000e+00 -3.492500e+01
    endloop
  endfacet
  facet normal 0.000000e+00 -1.000000e+00 0.000000e+00
    outer loop
      vertex   -4.445000e+01 -6.350000e+00 -3.492500e+01
      vertex   -3.254375e+01 -6.350000e+00 -4.307518e+01
      vertex   -3.216088e+01 -6.350000e+00 -4.291659e+01
    endloop
  endfacet
  facet normal 0.000000e+00 -1.000000e+00 0.000000e+00
    outer loop
      vertex   -4.445000e+01 -6.350000e+00 -3.492500e+01
      vertex   -3.216088e+01 -6.350000e+00 -4.291659e+01
      vertex   -3.175000e+01 -6.350000e+00 -4.286250e+01
    endloop
  endfacet
  facet normal 0.000000e+00 -1.000000e+00 0.000000e+00
    outer loop
      vertex   -4.445000e+01 -6.350000e+00 -3.492500e+01
      vertex   -3.175000e+01 -6.350000e+00 -4.286250e+01
      vertex   -1.905000e+01 -6.350000e+00 -3.492500e+01
    endloop
  endfacet
  facet normal 0.000000e+00 -1.000000e+00 0.000000e+00
    outer loop
      vertex   -1.905000e+01 -6.350000e+00 -3.492500e+01
      vertex   -3.175000e+01 -6.350000e+00 -4.286250e+01
      vertex   -3.133912e+01 -6.350000e+00 -4.291659e+01
    endloop
  endfacet
  facet normal 0.000000e+00 -1.000000e+00 0.000000e+00
    outer loop
      vertex   -1.905000e+01 -6.350000e+00 -3.492500e+01
      vertex   -3.133912e+01 -6.350000e+00 -4.291659e+01
      vertex   -3.095625e+01 -6.350000e+00 -4.307518e+01
    endloop
  endfacet
  facet normal 0.000000e+00 -1.000000e+00 0.000000e+00
    outer loop
      vertex   -3.095625e+01 -6.350000e+00 -4.307518e+01
      vertex   -3.062747e+01 -6.350000e+00 -4.332747e+01
      vertex   -1.905000e+01 -6.350000e+00 -3.492500e+01
    endloop
  endfacet
  facet normal 0.000000e+00 -1.000000e+00 0.000000e+00
    outer loop
      vertex   -1.905000e+01 -6.350000e+00 -3.492500e+01
      vertex   -3.062747e+01 -6.350000e+00 -4.332747e+01
      vertex   -3.037518e+01 -6.350000e+00 -4.365625e+01
    endloop
  endfacet
  facet normal 0.000000e+00 -1.000000e+00 0.000000e+00
    outer loop
      vertex   -1.905000e+01 -6.350000e+00 -3.492500e+01
      vertex   -3.037518e+01 -6.350000e+00 -4.365625e+01
      vertex   -3.021659e+01 -6.350000e+00 -4.403912e+01
    endloop
  endfacet
  facet normal 0.000000e+00 -1.000000e+00 -0.000000e+00
    outer loop
      vertex   -1.905000e+01 -6.350000e+00 -3.492500e+01
      vertex   -3.021659e+01 -6.350000e+00 -4.403912e+01
      vertex   -1.905000e+01 -6.350000e+00 -5.080000e+01
    endloop
  endfacet
  facet normal 1.000000e+00 0.000000e+00 -0.000000e+00
    outer loop
      vertex   -1.905000e+01 0.000000e+00 -3.175000e+00
      vertex   -1.905000e+01 0.000000e+00 0.000000e+00
      vertex   -1.905000e+01 -6.350000e+00 -3.175000e+00
    endloop
  endfacet
  facet normal 1.000000e+00 0.000000e+00 0.000000e+00
    outer loop
      vertex   -1.905000e+01 -6.350000e+00 -3.175000e+00
      vertex   -1.905000e+01 0.000000e+00 0.000000e+00
      vertex   -1.905000e+01 -6.350000e+00 1.270000e+01
    endloop
  endfacet
  facet normal 1.000000e+00 -0.000000e+00 0.000000e+00
    outer loop
      vertex   -1.905000e+01 -6.350000e+00 1.270000e+01
      vertex   -1.905000e+01 0.000000e+00 0.000000e+00
      vertex   -1.905000e+01 3.175000e+00 1.270000e+01
    endloop
  endfacet
  facet normal 1.000000e+00 0.000000e+00 0.000000e+00
    outer loop
      vertex   -1.905000e+01 3.175000e+00 1.270000e+01
      vertex   -1.905000e+01 0.000000e+00 0.000000e+00
      vertex   -1.905000e+01 3.175000e+00 0.000000e+00
    endloop
  endfacet
  facet normal 0.000000e+00 1.000000e+00 0.000000e+00
    outer loop
      vertex   -4.445000e+01 3.175000e+00 0.000000e+00
      vertex   -3.175000e+01 3.175000e+00 4.762500e+00
      vertex   -1.905000e+01 3.175000e+00 0.000000e+00
    endloop
  endfacet
  facet normal 0.000000e+00 1.000000e+00 0.000000e+00
    outer loop
      vertex   -1.905000e+01 3.175000e+00 0.000000e+00
      vertex   -3.175000e+01 3.175000e+00 4.762500e+00
      vertex   -3.133912e+01 3.175000e+00 4.816593e+00
    endloop
  endfacet
  facet normal 0.000000e+00 1.000000e+00 0.000000e+00
    outer loop
      vertex   -1.905000e+01 3.175000e+00 0.000000e+00
      vertex   -3.133912e+01 3.175000e+00 4.816593e+00
      vertex   -3.095625e+01 3.175000e+00 4.975185e+00
    endloop
  endfacet
  facet normal 0.000000e+00 1.000000e+00 0.000000e+00
    outer loop
      vertex   -4.445000e+01 3.175000e+00 1.270000e+01
      vertex   -3.333750e+01 3.175000e+00 6.350000e+00
      vertex   -4.445000e+01 3.175000e+00 0.000000e+00
    endloop
  endfacet
  facet normal 0.000000e+00 1.000000e+00 0.000000e+00
    outer loop
      vertex   -4.445000e+01 3.175000e+00 0.000000e+00
      vertex   -3.333750e+01 3.175000e+00 6.350000e+00
      vertex   -3.328341e+01 3.175000e+00 5.939125e+00
    endloop
  endfacet
  facet normal 0.000000e+00 1.000000e+00 0.000000e+00
    outer loop
      vertex   -4.445000e+01 3.175000e+00 0.000000e+00
      vertex   -3.328341e+01 3.175000e+00 5.939125e+00
      vertex   -3.312482e+01 3.175000e+00 5.556250e+00
    endloop
  endfacet
  facet normal 0.000000e+00 1.000000e+00 0.000000e+00
    outer loop
      vertex   -1.905000e+01 3.175000e+00 1.270000e+01
      vertex   -3.175000e+01 3.175000e+00 7.937500e+00
      vertex   -4.445000e+01 3.175000e+00 1.270000e+01
    endloop
  endfacet
  facet normal 0.000000e+00 1.000000e+00 0.000000e+00
    outer loop
      vertex   -4.445000e+01 3.175000e+00 1.270000e+01
      vertex   -3.175000e+01 3.175000e+00 7.937500e+00
      vertex   -3.216088e+01 3.175000e+00 7.883407e+00
    endloop
  endfacet
  facet normal 0.000000e+00 1.000000e+00 0.000000e+00
    outer loop
      vertex   -4.445000e+01 3.175000e+00 1.270000e+01
      vertex   -3.216088e+01 3.175000e+00 7.883407e+00
      vertex   -3.254375e+01 3.175000e+00 7.724815e+00
    endloop
  endfacet
  facet normal 0.000000e+00 1.000000e+00 -0.000000e+00
    outer loop
      vertex   -1.905000e+01 3.175000e+00 0.000000e+00
      vertex   -3.016250e+01 3.175000e+00 6.350000e+00
      vertex   -1.905000e+01 3.175000e+00 1.270000e+01
    endloop
  endfacet
  facet normal 0.000000e+00 1.000000e+00 0.000000e+00
    outer loop
      vertex   -1.905000e+01 3.175000e+00 1.270000e+01
      vertex   -3.016250e+01 3.175000e+00 6.350000e+00
      vertex   -3.021659e+01 3.175000e+00 6.760875e+00
    endloop
  endfacet
  facet normal 0.000000e+00 1.000000e+00 0.000000e+00
    outer loop
      vertex   -1.905000e+01 3.175000e+00 1.270000e+01
      vertex   -3.021659e+01 3.175000e+00 6.760875e+00
      vertex   -3.037518e+01 3.175000e+00 7.143750e+00
    endloop
  endfacet
  facet normal 0.000000e+00 1.000000e+00 -0.000000e+00
    outer loop
      vertex   -3.037518e+01 3.175000e+00 7.143750e+00
      vertex   -3.062747e+01 3.175000e+00 7.472532e+00
      vertex   -1.905000e+01 3.175000e+00 1.270000e+01
    endloop
  endfacet
  facet normal 0.000000e+00 1.000000e+00 0.000000e+00
    outer loop
      vertex   -1.905000e+01 3.175000e+00 1.270000e+01
      vertex   -3.062747e+01 3.175000e+00 7.472532e+00
      vertex   -3.095625e+01 3.175000e+00 7.724815e+00
    endloop
  endfacet
  facet normal 0.000000e+00 1.000000e+00 0.000000e+00
    outer loop
      vertex   -1.905000e+01 3.175000e+00 1.270000e+01
      vertex   -3.095625e+01 3.175000e+00 7.724815e+00
      vertex   -3.133912e+01 3.175000e+00 7.883407e+00
    endloop
  endfacet
  facet normal 0.000000e+00 1.000000e+00 -0.000000e+00
    outer loop
      vertex   -3.133912e+01 3.175000e+00 7.883407e+00
      vertex   -3.175000e+01 3.175000e+00 7.937500e+00
      vertex   -1.905000e+01 3.175000e+00 1.270000e+01
    endloop
  endfacet
  facet normal 0.000000e+00 1.000000e+00 0.000000e+00
    outer loop
      vertex   -3.254375e+01 3.175000e+00 7.724815e+00
      vertex   -3.287253e+01 3.175000e+00 7.472532e+00
      vertex   -4.445000e+01 3.175000e+00 1.270000e+01
    endloop
  endfacet
  facet normal 0.000000e+00 1.000000e+00 0.000000e+00
    outer loop
      vertex   -4.445000e+01 3.175000e+00 1.270000e+01
      vertex   -3.287253e+01 3.175000e+00 7.472532e+00
      vertex   -3.312482e+01 3.175000e+00 7.143750e+00
    endloop
  endfacet
  facet normal 0.000000e+00 1.000000e+00 0.000000e+00
    outer loop
      vertex   -4.445000e+01 3.175000e+00 1.270000e+01
      vertex   -3.312482e+01 3.175000e+00 7.143750e+00
      vertex   -3.328341e+01 3.175000e+00 6.760875e+00
    endloop
  endfacet
  facet normal 0.000000e+00 1.000000e+00 0.000000e+00
    outer loop
      vertex   -3.328341e+01 3.175000e+00 6.760875e+00
      vertex   -3.333750e+01 3.175000e+00 6.350000e+00
      vertex   -4.445000e+01 3.175000e+00 1.270000e+01
    endloop
  endfacet
  facet normal 0.000000e+00 1.000000e+00 0.000000e+00
    outer loop
      vertex   -3.312482e+01 3.175000e+00 5.556250e+00
      vertex   -3.287253e+01 3.175000e+00 5.227468e+00
      vertex   -4.445000e+01 3.175000e+00 0.000000e+00
    endloop
  endfacet
  facet normal 0.000000e+00 1.000000e+00 0.000000e+00
    outer loop
      vertex   -4.445000e+01 3.175000e+00 0.000000e+00
      vertex   -3.287253e+01 3.175000e+00 5.227468e+00
      vertex   -3.254375e+01 3.175000e+00 4.975185e+00
    endloop
  endfacet
  facet normal 0.000000e+00 1.000000e+00 0.000000e+00
    outer loop
      vertex   -4.445000e+01 3.175000e+00 0.000000e+00
      vertex   -3.254375e+01 3.175000e+00 4.975185e+00
      vertex   -3.216088e+01 3.175000e+00 4.816593e+00
    endloop
  endfacet
  facet normal 0.000000e+00 1.000000e+00 0.000000e+00
    outer loop
      vertex   -3.216088e+01 3.175000e+00 4.816593e+00
      vertex   -3.175000e+01 3.175000e+00 4.762500e+00
      vertex   -4.445000e+01 3.175000e+00 0.000000e+00
    endloop
  endfacet
  facet normal -0.000000e+00 1.000000e+00 0.000000e+00
    outer loop
      vertex   -3.095625e+01 3.175000e+00 4.975185e+00
      vertex   -3.062747e+01 3.175000e+00 5.227468e+00
      vertex   -1.905000e+01 3.175000e+00 0.000000e+00
    endloop
  endfacet
  facet normal 0.000000e+00 1.000000e+00 0.000000e+00
    outer loop
      vertex   -1.905000e+01 3.175000e+00 0.000000e+00
      vertex   -3.062747e+01 3.175000e+00 5.227468e+00
      vertex   -3.037518e+01 3.175000e+00 5.556250e+00
    endloop
  endfacet
  facet normal 0.000000e+00 1.000000e+00 0.000000e+00
    outer loop
      vertex   -1.905000e+01 3.175000e+00 0.000000e+00
      vertex   -3.037518e+01 3.175000e+00 5.556250e+00
      vertex   -3.021659e+01 3.175000e+00 5.939125e+00
    endloop
  endfacet
  facet normal -0.000000e+00 1.000000e+00 0.000000e+00
    outer loop
      vertex   -3.021659e+01 3.175000e+00 5.939125e+00
      vertex   -3.016250e+01 3.175000e+00 6.350000e+00
      vertex   -1.905000e+01 3.175000e+00 0.000000e+00
    endloop
  endfacet
  facet normal -9.914449e-01 2.434237e-17 1.305262e-01
    outer loop
      vertex   -3.021659e+01 3.175000e+00 5.939125e+00
      vertex   -3.021659e+01 -6.350000e+00 5.939125e+00
      vertex   -3.016250e+01 3.175000e+00 6.350000e+00
    endloop
  endfacet
  facet normal -9.914449e-01 0.000000e+00 1.305262e-01
    outer loop
      vertex   -3.016250e+01 3.175000e+00 6.350000e+00
      vertex   -3.021659e+01 -6.350000e+00 5.939125e+00
      vertex   -3.016250e+01 -6.350000e+00 6.350000e+00
    endloop
  endfacet
  facet normal -9.914449e-01 -0.000000e+00 -1.305262e-01
    outer loop
      vertex   -3.016250e+01 3.175000e+00 6.350000e+00
      vertex   -3.016250e+01 -6.350000e+00 6.350000e+00
      vertex   -3.021659e+01 3.175000e+00 6.760875e+00
    endloop
  endfacet
  facet normal -9.914449e-01 -1.217119e-17 -1.305262e-01
    outer loop
      vertex   -3.021659e+01 3.175000e+00 6.760875e+00
      vertex   -3.016250e+01 -6.350000e+00 6.350000e+00
      vertex   -3.021659e+01 -6.350000e+00 6.760875e+00
    endloop
  endfacet
  facet normal -9.238795e-01 -3.568411e-17 -3.826834e-01
    outer loop
      vertex   -3.021659e+01 3.175000e+00 6.760875e+00
      vertex   -3.021659e+01 -6.350000e+00 6.760875e+00
      vertex   -3.037518e+01 3.175000e+00 7.143750e+00
    endloop
  endfacet
  facet normal -9.238795e-01 -3.568411e-17 -3.826834e-01
    outer loop
      vertex   -3.037518e+01 3.175000e+00 7.143750e+00
      vertex   -3.021659e+01 -6.350000e+00 6.760875e+00
      vertex   -3.037518e+01 -6.350000e+00 7.143750e+00
    endloop
  endfacet
  facet normal -7.933533e-01 -5.676522e-17 -6.087614e-01
    outer loop
      vertex   -3.037518e+01 3.175000e+00 7.143750e+00
      vertex   -3.037518e+01 -6.350000e+00 7.143750e+00
      vertex   -3.062747e+01 3.175000e+00 7.472532e+00
    endloop
  endfacet
  facet normal -7.933533e-01 -0.000000e+00 -6.087614e-01
    outer loop
      vertex   -3.062747e+01 3.175000e+00 7.472532e+00
      vertex   -3.037518e+01 -6.350000e+00 7.143750e+00
      vertex   -3.062747e+01 -6.350000e+00 7.472532e+00
    endloop
  endfacet
  facet normal -6.087614e-01 -0.000000e+00 -7.933533e-01
    outer loop
      vertex   -3.062747e+01 3.175000e+00 7.472532e+00
      vertex   -3.062747e+01 -6.350000e+00 7.472532e+00
      vertex   -3.095625e+01 3.175000e+00 7.724815e+00
    endloop
  endfacet
  facet normal -6.087614e-01 1.530830e-16 -7.933533e-01
    outer loop
      vertex   -3.095625e+01 3.175000e+00 7.724815e+00
      vertex   -3.062747e+01 -6.350000e+00 7.472532e+00
      vertex   -3.095625e+01 -6.350000e+00 7.724815e+00
    endloop
  endfacet
  facet normal -3.826834e-01 5.658738e-17 -9.238795e-01
    outer loop
      vertex   -3.095625e+01 3.175000e+00 7.724815e+00
      vertex   -3.095625e+01 -6.350000e+00 7.724815e+00
      vertex   -3.133912e+01 3.175000e+00 7.883407e+00
    endloop
  endfacet
  facet normal -3.826834e-01 -0.000000e+00 -9.238795e-01
    outer loop
      vertex   -3.133912e+01 3.175000e+00 7.883407e+00
      vertex   -3.095625e+01 -6.350000e+00 7.724815e+00
      vertex   -3.133912e+01 -6.350000e+00 7.883407e+00
    endloop
  endfacet
  facet normal -1.305262e-01 -0.000000e+00 -9.914449e-01
    outer loop
      vertex   -3.133912e+01 3.175000e+00 7.883407e+00
      vertex   -3.133912e+01 -6.350000e+00 7.883407e+00
      vertex   -3.175000e+01 3.175000e+00 7.937500e+00
    endloop
  endfacet
  facet normal -1.305262e-01 -0.000000e+00 -9.914449e-01
    outer loop
      vertex   -3.175000e+01 3.175000e+00 7.937500e+00
      vertex   -3.133912e+01 -6.350000e+00 7.883407e+00
      vertex   -3.175000e+01 -6.350000e+00 7.937500e+00
    endloop
  endfacet
  facet normal 1.305262e-01 0.000000e+00 -9.914449e-01
    outer loop
      vertex   -3.175000e+01 3.175000e+00 7.937500e+00
      vertex   -3.175000e+01 -6.350000e+00 7.937500e+00
      vertex   -3.216088e+01 3.175000e+00 7.883407e+00
    endloop
  endfacet
  facet normal 1.305262e-01 0.000000e+00 -9.914449e-01
    outer loop
      vertex   -3.216088e+01 3.175000e+00 7.883407e+00
      vertex   -3.175000e+01 -6.350000e+00 7.937500e+00
      vertex   -3.216088e+01 -6.350000e+00 7.883407e+00
    endloop
  endfacet
  facet normal 3.826834e-01 0.000000e+00 -9.238795e-01
    outer loop
      vertex   -3.216088e+01 3.175000e+00 7.883407e+00
      vertex   -3.216088e+01 -6.350000e+00 7.883407e+00
      vertex   -3.254375e+01 3.175000e+00 7.724815e+00
    endloop
  endfacet
  facet normal 3.826834e-01 -1.993238e-16 -9.238795e-01
    outer loop
      vertex   -3.254375e+01 3.175000e+00 7.724815e+00
      vertex   -3.216088e+01 -6.350000e+00 7.883407e+00
      vertex   -3.254375e+01 -6.350000e+00 7.724815e+00
    endloop
  endfacet
  facet normal 6.087614e-01 -3.801439e-16 -7.933533e-01
    outer loop
      vertex   -3.254375e+01 3.175000e+00 7.724815e+00
      vertex   -3.254375e+01 -6.350000e+00 7.724815e+00
      vertex   -3.287253e+01 3.175000e+00 7.472532e+00
    endloop
  endfacet
  facet normal 6.087614e-01 0.000000e+00 -7.933533e-01
    outer loop
      vertex   -3.287253e+01 3.175000e+00 7.472532e+00
      vertex   -3.254375e+01 -6.350000e+00 7.724815e+00
      vertex   -3.287253e+01 -6.350000e+00 7.472532e+00
    endloop
  endfacet
  facet normal 7.933533e-01 0.000000e+00 -6.087614e-01
    outer loop
      vertex   -3.287253e+01 3.175000e+00 7.472532e+00
      vertex   -3.287253e+01 -6.350000e+00 7.472532e+00
      vertex   -3.312482e+01 3.175000e+00 7.143750e+00
    endloop
  endfacet
  facet normal 7.933533e-01 0.000000e+00 -6.087614e-01
    outer loop
      vertex   -3.312482e+01 3.175000e+00 7.143750e+00
      vertex   -3.287253e+01 -6.350000e+00 7.472532e+00
      vertex   -3.312482e+01 -6.350000e+00 7.143750e+00
    endloop
  endfacet
  facet normal 9.238795e-01 0.000000e+00 -3.826834e-01
    outer loop
      vertex   -3.312482e+01 3.175000e+00 7.143750e+00
      vertex   -3.312482e+01 -6.350000e+00 7.143750e+00
      vertex   -3.328341e+01 3.175000e+00 6.760875e+00
    endloop
  endfacet
  facet normal 9.238795e-01 -6.178243e-16 -3.826834e-01
    outer loop
      vertex   -3.328341e+01 3.175000e+00 6.760875e+00
      vertex   -3.312482e+01 -6.350000e+00 7.143750e+00
      vertex   -3.328341e+01 -6.350000e+00 6.760875e+00
    endloop
  endfacet
  facet normal 9.914449e-01 -7.152523e-16 -1.305262e-01
    outer loop
      vertex   -3.328341e+01 3.175000e+00 6.760875e+00
      vertex   -3.328341e+01 -6.350000e+00 6.760875e+00
      vertex   -3.333750e+01 3.175000e+00 6.350000e+00
    endloop
  endfacet
  facet normal 9.914449e-01 0.000000e+00 -1.305262e-01
    outer loop
      vertex   -3.333750e+01 3.175000e+00 6.350000e+00
      vertex   -3.328341e+01 -6.350000e+00 6.760875e+00
      vertex   -3.333750e+01 -6.350000e+00 6.350000e+00
    endloop
  endfacet
  facet normal 9.914449e-01 0.000000e+00 1.305262e-01
    outer loop
      vertex   -3.333750e+01 3.175000e+00 6.350000e+00
      vertex   -3.333750e+01 -6.350000e+00 6.350000e+00
      vertex   -3.328341e+01 3.175000e+00 5.939125e+00
    endloop
  endfacet
  facet normal 9.914449e-01 7.274235e-16 1.305262e-01
    outer loop
      vertex   -3.328341e+01 3.175000e+00 5.939125e+00
      vertex   -3.333750e+01 -6.350000e+00 6.350000e+00
      vertex   -3.328341e+01 -6.350000e+00 5.939125e+00
    endloop
  endfacet
  facet normal 9.238795e-01 6.535084e-16 3.826834e-01
    outer loop
      vertex   -3.328341e+01 3.175000e+00 5.939125e+00
      vertex   -3.328341e+01 -6.350000e+00 5.939125e+00
      vertex   -3.312482e+01 3.175000e+00 5.556250e+00
    endloop
  endfacet
  facet normal 9.238795e-01 0.000000e+00 3.826834e-01
    outer loop
      vertex   -3.312482e+01 3.175000e+00 5.556250e+00
      vertex   -3.328341e+01 -6.350000e+00 5.939125e+00
      vertex   -3.312482e+01 -6.350000e+00 5.556250e+00
    endloop
  endfacet
  facet normal 7.933533e-01 0.000000e+00 6.087614e-01
    outer loop
      vertex   -3.312482e+01 3.175000e+00 5.556250e+00
      vertex   -3.312482e+01 -6.350000e+00 5.556250e+00
      vertex   -3.287253e+01 3.175000e+00 5.227468e+00
    endloop
  endfacet
  facet normal 7.933533e-01 0.000000e+00 6.087614e-01
    outer loop
      vertex   -3.287253e+01 3.175000e+00 5.227468e+00
      vertex   -3.312482e+01 -6.350000e+00 5.556250e+00
      vertex   -3.287253e+01 -6.350000e+00 5.227468e+00
    endloop
  endfacet
  facet normal 6.087614e-01 0.000000e+00 7.933533e-01
    outer loop
      vertex   -3.287253e+01 3.175000e+00 5.227468e+00
      vertex   -3.287253e+01 -6.350000e+00 5.227468e+00
      vertex   -3.254375e+01 3.175000e+00 4.975185e+00
    endloop
  endfacet
  facet normal 6.087614e-01 3.801439e-16 7.933533e-01
    outer loop
      vertex   -3.254375e+01 3.175000e+00 4.975185e+00
      vertex   -3.287253e+01 -6.350000e+00 5.227468e+00
      vertex   -3.254375e+01 -6.350000e+00 4.975185e+00
    endloop
  endfacet
  facet normal 3.826834e-01 1.993238e-16 9.238795e-01
    outer loop
      vertex   -3.254375e+01 3.175000e+00 4.975185e+00
      vertex   -3.254375e+01 -6.350000e+00 4.975185e+00
      vertex   -3.216088e+01 3.175000e+00 4.816593e+00
    endloop
  endfacet
  facet normal 3.826834e-01 0.000000e+00 9.238795e-01
    outer loop
      vertex   -3.216088e+01 3.175000e+00 4.816593e+00
      vertex   -3.254375e+01 -6.350000e+00 4.975185e+00
      vertex   -3.216088e+01 -6.350000e+00 4.816593e+00
    endloop
  endfacet
  facet normal 1.305262e-01 0.000000e+00 9.914449e-01
    outer loop
      vertex   -3.216088e+01 3.175000e+00 4.816593e+00
      vertex   -3.216088e+01 -6.350000e+00 4.816593e+00
      vertex   -3.175000e+01 3.175000e+00 4.762500e+00
    endloop
  endfacet
  facet normal 1.305262e-01 0.000000e+00 9.914449e-01
    outer loop
      vertex   -3.175000e+01 3.175000e+00 4.762500e+00
      vertex   -3.216088e+01 -6.350000e+00 4.816593e+00
      vertex   -3.175000e+01 -6.350000e+00 4.762500e+00
    endloop
  endfacet
  facet normal -1.305262e-01 0.000000e+00 9.914449e-01
    outer loop
      vertex   -3.175000e+01 3.175000e+00 4.762500e+00
      vertex   -3.175000e+01 -6.350000e+00 4.762500e+00
      vertex   -3.133912e+01 3.175000e+00 4.816593e+00
    endloop
  endfacet
  facet normal -1.305262e-01 0.000000e+00 9.914449e-01
    outer loop
      vertex   -3.133912e+01 3.175000e+00 4.816593e+00
      vertex   -3.175000e+01 -6.350000e+00 4.762500e+00
      vertex   -3.133912e+01 -6.350000e+00 4.816593e+00
    endloop
  endfacet
  facet normal -3.826834e-01 0.000000e+00 9.238795e-01
    outer loop
      vertex   -3.133912e+01 3.175000e+00 4.816593e+00
      vertex   -3.133912e+01 -6.350000e+00 4.816593e+00
      vertex   -3.095625e+01 3.175000e+00 4.975185e+00
    endloop
  endfacet
  facet normal -3.826834e-01 2.956169e-17 9.238795e-01
    outer loop
      vertex   -3.095625e+01 3.175000e+00 4.975185e+00
      vertex   -3.133912e+01 -6.350000e+00 4.816593e+00
      vertex   -3.095625e+01 -6.350000e+00 4.975185e+00
    endloop
  endfacet
  facet normal -6.087614e-01 -7.910514e-17 7.933533e-01
    outer loop
      vertex   -3.095625e+01 3.175000e+00 4.975185e+00
      vertex   -3.095625e+01 -6.350000e+00 4.975185e+00
      vertex   -3.062747e+01 3.175000e+00 5.227468e+00
    endloop
  endfacet
  facet normal -6.087614e-01 0.000000e+00 7.933533e-01
    outer loop
      vertex   -3.062747e+01 3.175000e+00 5.227468e+00
      vertex   -3.095625e+01 -6.350000e+00 4.975185e+00
      vertex   -3.062747e+01 -6.350000e+00 5.227468e+00
    endloop
  endfacet
  facet normal -7.933533e-01 0.000000e+00 6.087614e-01
    outer loop
      vertex   -3.062747e+01 3.175000e+00 5.227468e+00
      vertex   -3.062747e+01 -6.350000e+00 5.227468e+00
      vertex   -3.037518e+01 3.175000e+00 5.556250e+00
    endloop
  endfacet
  facet normal -7.933533e-01 5.676522e-17 6.087614e-01
    outer loop
      vertex   -3.037518e+01 3.175000e+00 5.556250e+00
      vertex   -3.062747e+01 -6.350000e+00 5.227468e+00
      vertex   -3.037518e+01 -6.350000e+00 5.556250e+00
    endloop
  endfacet
  facet normal -9.238795e-01 3.568411e-17 3.826834e-01
    outer loop
      vertex   -3.037518e+01 3.175000e+00 5.556250e+00
      vertex   -3.037518e+01 -6.350000e+00 5.556250e+00
      vertex   -3.021659e+01 3.175000e+00 5.939125e+00
    endloop
  endfacet
  facet normal -9.238795e-01 7.136822e-17 3.826834e-01
    outer loop
      vertex   -3.021659e+01 3.175000e+00 5.939125e+00
      vertex   -3.037518e+01 -6.350000e+00 5.556250e+00
      vertex   -3.021659e+01 -6.350000e+00 5.939125e+00
    endloop
  endfacet
  facet normal 0.000000e+00 0.000000e+00 -1.000000e+00
    outer loop
      vertex   -4.445000e+01 0.000000e+00 -3.175000e+00
      vertex   -1.905000e+01 0.000000e+00 -3.175000e+00
      vertex   -4.445000e+01 -6.350000e+00 -3.175000e+00
    endloop
  endfacet
  facet normal 0.000000e+00 0.000000e+00 -1.000000e+00
    outer loop
      vertex   -4.445000e+01 -6.350000e+00 -3.175000e+00
      vertex   -1.905000e+01 0.000000e+00 -3.175000e+00
      vertex   -1.905000e+01 -6.350000e+00 -3.175000e+00
    endloop
  endfacet
  facet normal -1.000000e+00 0.000000e+00 0.000000e+00
    outer loop
      vertex   -4.445000e+01 0.000000e+00 -3.175000e+00
      vertex   -4.445000e+01 -6.350000e+00 -3.175000e+00
      vertex   -4.445000e+01 0.000000e+00 0.000000e+00
    endloop
  endfacet
  facet normal -1.000000e+00 -0.000000e+00 0.000000e+00
    outer loop
      vertex   -4.445000e+01 0.000000e+00 0.000000e+00
      vertex   -4.445000e+01 -6.350000e+00 -3.175000e+00
      vertex   -4.445000e+01 -6.350000e+00 1.270000e+01
    endloop
  endfacet
  facet normal -1.000000e+00 0.000000e+00 0.000000e+00
    outer loop
      vertex   -4.445000e+01 0.000000e+00 0.000000e+00
      vertex   -4.445000e+01 -6.350000e+00 1.270000e+01
      vertex   -4.445000e+01 3.175000e+00 1.270000e+01
    endloop
  endfacet
  facet normal -1.000000e+00 0.000000e+00 -0.000000e+00
    outer loop
      vertex   -4.445000e+01 3.175000e+00 1.270000e+01
      vertex   -4.445000e+01 3.175000e+00 0.000000e+00
      vertex   -4.445000e+01 0.000000e+00 0.000000e+00
    endloop
  endfacet
  facet normal 0.000000e+00 0.000000e+00 1.000000e+00
    outer loop
      vertex   -4.445000e+01 -6.350000e+00 1.270000e+01
      vertex   -1.905000e+01 -6.350000e+00 1.270000e+01
      vertex   -4.445000e+01 3.175000e+00 1.270000e+01
    endloop
  endfacet
  facet normal -0.000000e+00 0.000000e+00 1.000000e+00
    outer loop
      vertex   -4.445000e+01 3.175000e+00 1.270000e+01
      vertex   -1.905000e+01 -6.350000e+00 1.270000e+01
      vertex   -1.905000e+01 3.175000e+00 1.270000e+01
    endloop
  endfacet
  facet normal 0.000000e+00 -1.000000e+00 0.000000e+00
    outer loop
      vertex   -3.021659e+01 -6.350000e+00 6.760875e+00
      vertex   -3.016250e+01 -6.350000e+00 6.350000e+00
      vertex   -1.905000e+01 -6.350000e+00 1.270000e+01
    endloop
  endfacet
  facet normal 0.000000e+00 -1.000000e+00 0.000000e+00
    outer loop
      vertex   -1.905000e+01 -6.350000e+00 1.270000e+01
      vertex   -3.016250e+01 -6.350000e+00 6.350000e+00
      vertex   -3.021659e+01 -6.350000e+00 5.939125e+00
    endloop
  endfacet
  facet normal 0.000000e+00 -1.000000e+00 -0.000000e+00
    outer loop
      vertex   -1.905000e+01 -6.350000e+00 1.270000e+01
      vertex   -3.021659e+01 -6.350000e+00 5.939125e+00
      vertex   -1.905000e+01 -6.350000e+00 -3.175000e+00
    endloop
  endfacet
  facet normal 0.000000e+00 -1.000000e+00 0.000000e+00
    outer loop
      vertex   -1.905000e+01 -6.350000e+00 -3.175000e+00
      vertex   -3.021659e+01 -6.350000e+00 5.939125e+00
      vertex   -3.037518e+01 -6.350000e+00 5.556250e+00
    endloop
  endfacet
  facet normal 0.000000e+00 -1.000000e+00 0.000000e+00
    outer loop
      vertex   -1.905000e+01 -6.350000e+00 -3.175000e+00
      vertex   -3.037518e+01 -6.350000e+00 5.556250e+00
      vertex   -3.062747e+01 -6.350000e+00 5.227468e+00
    endloop
  endfacet
  facet normal 0.000000e+00 -1.000000e+00 -0.000000e+00
    outer loop
      vertex   -3.062747e+01 -6.350000e+00 5.227468e+00
      vertex   -3.095625e+01 -6.350000e+00 4.975185e+00
      vertex   -1.905000e+01 -6.350000e+00 -3.175000e+00
    endloop
  endfacet
  facet normal 0.000000e+00 -1.000000e+00 0.000000e+00
    outer loop
      vertex   -1.905000e+01 -6.350000e+00 -3.175000e+00
      vertex   -3.095625e+01 -6.350000e+00 4.975185e+00
      vertex   -3.133912e+01 -6.350000e+00 4.816593e+00
    endloop
  endfacet
  facet normal 0.000000e+00 -1.000000e+00 0.000000e+00
    outer loop
      vertex   -1.905000e+01 -6.350000e+00 -3.175000e+00
      vertex   -3.133912e+01 -6.350000e+00 4.816593e+00
      vertex   -3.175000e+01 -6.350000e+00 4.762500e+00
    endloop
  endfacet
  facet normal 0.000000e+00 -1.000000e+00 0.000000e+00
    outer loop
      vertex   -1.905000e+01 -6.350000e+00 -3.175000e+00
      vertex   -3.175000e+01 -6.350000e+00 4.762500e+00
      vertex   -4.445000e+01 -6.350000e+00 -3.175000e+00
    endloop
  endfacet
  facet normal 0.000000e+00 -1.000000e+00 0.000000e+00
    outer loop
      vertex   -4.445000e+01 -6.350000e+00 -3.175000e+00
      vertex   -3.175000e+01 -6.350000e+00 4.762500e+00
      vertex   -3.216088e+01 -6.350000e+00 4.816593e+00
    endloop
  endfacet
  facet normal 0.000000e+00 -1.000000e+00 0.000000e+00
    outer loop
      vertex   -4.445000e+01 -6.350000e+00 -3.175000e+00
      vertex   -3.216088e+01 -6.350000e+00 4.816593e+00
      vertex   -3.254375e+01 -6.350000e+00 4.975185e+00
    endloop
  endfacet
  facet normal -0.000000e+00 -1.000000e+00 0.000000e+00
    outer loop
      vertex   -3.254375e+01 -6.350000e+00 4.975185e+00
      vertex   -3.287253e+01 -6.350000e+00 5.227468e+00
      vertex   -4.445000e+01 -6.350000e+00 -3.175000e+00
    endloop
  endfacet
  facet normal 0.000000e+00 -1.000000e+00 0.000000e+00
    outer loop
      vertex   -4.445000e+01 -6.350000e+00 -3.175000e+00
      vertex   -3.287253e+01 -6.350000e+00 5.227468e+00
      vertex   -3.312482e+01 -6.350000e+00 5.556250e+00
    endloop
  endfacet
  facet normal 0.000000e+00 -1.000000e+00 0.000000e+00
    outer loop
      vertex   -4.445000e+01 -6.350000e+00 -3.175000e+00
      vertex   -3.312482e+01 -6.350000e+00 5.556250e+00
      vertex   -3.328341e+01 -6.350000e+00 5.939125e+00
    endloop
  endfacet
  facet normal 0.000000e+00 -1.000000e+00 0.000000e+00
    outer loop
      vertex   -4.445000e+01 -6.350000e+00 -3.175000e+00
      vertex   -3.328341e+01 -6.350000e+00 5.939125e+00
      vertex   -4.445000e+01 -6.350000e+00 1.270000e+01
    endloop
  endfacet
  facet normal 0.000000e+00 -1.000000e+00 0.000000e+00
    outer loop
      vertex   -4.445000e+01 -6.350000e+00 1.270000e+01
      vertex   -3.328341e+01 -6.350000e+00 5.939125e+00
      vertex   -3.333750e+01 -6.350000e+00 6.350000e+00
    endloop
  endfacet
  facet normal 0.000000e+00 -1.000000e+00 0.000000e+00
    outer loop
      vertex   -4.445000e+01 -6.350000e+00 1.270000e+01
      vertex   -3.333750e+01 -6.350000e+00 6.350000e+00
      vertex   -3.328341e+01 -6.350000e+00 6.760875e+00
    endloop
  endfacet
  facet normal 0.000000e+00 -1.000000e+00 0.000000e+00
    outer loop
      vertex   -3.328341e+01 -6.350000e+00 6.760875e+00
      vertex   -3.312482e+01 -6.350000e+00 7.143750e+00
      vertex   -4.445000e+01 -6.350000e+00 1.270000e+01
    endloop
  endfacet
  facet normal 0.000000e+00 -1.000000e+00 0.000000e+00
    outer loop
      vertex   -4.445000e+01 -6.350000e+00 1.270000e+01
      vertex   -3.312482e+01 -6.350000e+00 7.143750e+00
      vertex   -3.287253e+01 -6.350000e+00 7.472532e+00
    endloop
  endfacet
  facet normal 0.000000e+00 -1.000000e+00 0.000000e+00
    outer loop
      vertex   -4.445000e+01 -6.350000e+00 1.270000e+01
      vertex   -3.287253e+01 -6.350000e+00 7.472532e+00
      vertex   -3.254375e+01 -6.350000e+00 7.724815e+00
    endloop
  endfacet
  facet normal 0.000000e+00 -1.000000e+00 0.000000e+00
    outer loop
      vertex   -3.254375e+01 -6.350000e+00 7.724815e+00
      vertex   -3.216088e+01 -6.350000e+00 7.883407e+00
      vertex   -4.445000e+01 -6.350000e+00 1.270000e+01
    endloop
  endfacet
  facet normal 0.000000e+00 -1.000000e+00 0.000000e+00
    outer loop
      vertex   -4.445000e+01 -6.350000e+00 1.270000e+01
      vertex   -3.216088e+01 -6.350000e+00 7.883407e+00
      vertex   -3.175000e+01 -6.350000e+00 7.937500e+00
    endloop
  endfacet
  facet normal 0.000000e+00 -1.000000e+00 0.000000e+00
    outer loop
      vertex   -4.445000e+01 -6.350000e+00 1.270000e+01
      vertex   -3.175000e+01 -6.350000e+00 7.937500e+00
      vertex   -1.905000e+01 -6.350000e+00 1.270000e+01
    endloop
  endfacet
  facet normal 0.000000e+00 -1.000000e+00 0.000000e+00
    outer loop
      vertex   -1.905000e+01 -6.350000e+00 1.270000e+01
      vertex   -3.175000e+01 -6.350000e+00 7.937500e+00
      vertex   -3.133912e+01 -6.350000e+00 7.883407e+00
    endloop
  endfacet
  facet normal 0.000000e+00 -1.000000e+00 0.000000e+00
    outer loop
      vertex   -1.905000e+01 -6.350000e+00 1.270000e+01
      vertex   -3.133912e+01 -6.350000e+00 7.883407e+00
      vertex   -3.095625e+01 -6.350000e+00 7.724815e+00
    endloop
  endfacet
  facet normal 0.000000e+00 -1.000000e+00 0.000000e+00
    outer loop
      vertex   -3.095625e+01 -6.350000e+00 7.724815e+00
      vertex   -3.062747e+01 -6.350000e+00 7.472532e+00
      vertex   -1.905000e+01 -6.350000e+00 1.270000e+01
    endloop
  endfacet
  facet normal 0.000000e+00 -1.000000e+00 0.000000e+00
    outer loop
      vertex   -1.905000e+01 -6.350000e+00 1.270000e+01
      vertex   -3.062747e+01 -6.350000e+00 7.472532e+00
      vertex   -3.037518e+01 -6.350000e+00 7.143750e+00
    endloop
  endfacet
  facet normal 0.000000e+00 -1.000000e+00 0.000000e+00
    outer loop
      vertex   -1.905000e+01 -6.350000e+00 1.270000e+01
      vertex   -3.037518e+01 -6.350000e+00 7.143750e+00
      vertex   -3.021659e+01 -6.350000e+00 6.760875e+00
    endloop
  endfacet
  facet normal 0.000000e+00 -1.000000e+00 0.000000e+00
    outer loop
      vertex   -4.445000e+01 0.000000e+00 -3.810000e+01
      vertex   -4.445000e+01 0.000000e+00 -3.492500e+01
      vertex   -6.350000e+01 0.000000e+00 -3.810000e+01
    endloop
  endfacet
  facet normal 0.000000e+00 -1.000000e+00 0.000000e+00
    outer loop
      vertex   -6.350000e+01 0.000000e+00 -3.810000e+01
      vertex   -4.445000e+01 0.000000e+00 -3.492500e+01
      vertex   -3.481681e+01 0.000000e+00 -1.987175e+01
    endloop
  endfacet
  facet normal 0.000000e+00 -1.000000e+00 0.000000e+00
    outer loop
      vertex   -6.350000e+01 0.000000e+00 -3.810000e+01
      vertex   -3.481681e+01 0.000000e+00 -1.987175e+01
      vertex   -3.492500e+01 0.000000e+00 -1.905000e+01
    endloop
  endfacet
  facet normal 0.000000e+00 -1.000000e+00 0.000000e+00
    outer loop
      vertex   -1.905000e+01 0.000000e+00 -3.492500e+01
      vertex   -3.175000e+01 0.000000e+00 -2.222500e+01
      vertex   -4.445000e+01 0.000000e+00 -3.492500e+01
    endloop
  endfacet
  facet normal 0.000000e+00 -1.000000e+00 0.000000e+00
    outer loop
      vertex   -4.445000e+01 0.000000e+00 -3.492500e+01
      vertex   -3.175000e+01 0.000000e+00 -2.222500e+01
      vertex   -3.257175e+01 0.000000e+00 -2.211681e+01
    endloop
  endfacet
  facet normal 0.000000e+00 -1.000000e+00 0.000000e+00
    outer loop
      vertex   -4.445000e+01 0.000000e+00 -3.492500e+01
      vertex   -3.257175e+01 0.000000e+00 -2.211681e+01
      vertex   -3.333750e+01 0.000000e+00 -2.179963e+01
    endloop
  endfacet
  facet normal 0.000000e+00 -1.000000e+00 0.000000e+00
    outer loop
      vertex   -1.905000e+01 0.000000e+00 -3.810000e+01
      vertex   0.000000e+00 0.000000e+00 -3.810000e+01
      vertex   -1.905000e+01 0.000000e+00 -3.492500e+01
    endloop
  endfacet
  facet normal 0.000000e+00 -1.000000e+00 0.000000e+00
    outer loop
      vertex   -1.905000e+01 0.000000e+00 -3.492500e+01
      vertex   0.000000e+00 0.000000e+00 -3.810000e+01
      vertex   -2.868319e+01 0.000000e+00 -1.987175e+01
    endloop
  endfacet
  facet normal 0.000000e+00 -1.000000e+00 0.000000e+00
    outer loop
      vertex   -1.905000e+01 0.000000e+00 -3.492500e+01
      vertex   -2.868319e+01 0.000000e+00 -1.987175e+01
      vertex   -2.900037e+01 0.000000e+00 -2.063750e+01
    endloop
  endfacet
  facet normal 0.000000e+00 -1.000000e+00 0.000000e+00
    outer loop
      vertex   -2.868319e+01 0.000000e+00 -1.987175e+01
      vertex   0.000000e+00 0.000000e+00 -3.810000e+01
      vertex   -2.857500e+01 0.000000e+00 -1.905000e+01
    endloop
  endfacet
  facet normal 0.000000e+00 -1.000000e+00 0.000000e+00
    outer loop
      vertex   -2.857500e+01 0.000000e+00 -1.905000e+01
      vertex   0.000000e+00 0.000000e+00 -3.810000e+01
      vertex   0.000000e+00 0.000000e+00 0.000000e+00
    endloop
  endfacet
  facet normal 0.000000e+00 -1.000000e+00 0.000000e+00
    outer loop
      vertex   -2.857500e+01 0.000000e+00 -1.905000e+01
      vertex   0.000000e+00 0.000000e+00 0.000000e+00
      vertex   -2.868319e+01 0.000000e+00 -1.822825e+01
    endloop
  endfacet
  facet normal 0.000000e+00 -1.000000e+00 0.000000e+00
    outer loop
      vertex   -2.868319e+01 0.000000e+00 -1.822825e+01
      vertex   0.000000e+00 0.000000e+00 0.000000e+00
      vertex   -1.905000e+01 0.000000e+00 -3.175000e+00
    endloop
  endfacet
  facet normal 0.000000e+00 -1.000000e+00 0.000000e+00
    outer loop
      vertex   -2.868319e+01 0.000000e+00 -1.822825e+01
      vertex   -1.905000e+01 0.000000e+00 -3.175000e+00
      vertex   -2.900037e+01 0.000000e+00 -1.746250e+01
    endloop
  endfacet
  facet normal 0.000000e+00 -1.000000e+00 0.000000e+00
    outer loop
      vertex   -2.900037e+01 0.000000e+00 -1.746250e+01
      vertex   -1.905000e+01 0.000000e+00 -3.175000e+00
      vertex   -2.950494e+01 0.000000e+00 -1.680494e+01
    endloop
  endfacet
  facet normal 0.000000e+00 -1.000000e+00 0.000000e+00
    outer loop
      vertex   -2.950494e+01 0.000000e+00 -1.680494e+01
      vertex   -1.905000e+01 0.000000e+00 -3.175000e+00
      vertex   -3.016250e+01 0.000000e+00 -1.630037e+01
    endloop
  endfacet
  facet normal 0.000000e+00 -1.000000e+00 0.000000e+00
    outer loop
      vertex   -3.016250e+01 0.000000e+00 -1.630037e+01
      vertex   -1.905000e+01 0.000000e+00 -3.175000e+00
      vertex   -3.092825e+01 0.000000e+00 -1.598319e+01
    endloop
  endfacet
  facet normal 0.000000e+00 -1.000000e+00 0.000000e+00
    outer loop
      vertex   -3.092825e+01 0.000000e+00 -1.598319e+01
      vertex   -1.905000e+01 0.000000e+00 -3.175000e+00
      vertex   -3.175000e+01 0.000000e+00 -1.587500e+01
    endloop
  endfacet
  facet normal 0.000000e+00 -1.000000e+00 0.000000e+00
    outer loop
      vertex   -3.175000e+01 0.000000e+00 -1.587500e+01
      vertex   -1.905000e+01 0.000000e+00 -3.175000e+00
      vertex   -4.445000e+01 0.000000e+00 -3.175000e+00
    endloop
  endfacet
  facet normal -0.000000e+00 -1.000000e+00 0.000000e+00
    outer loop
      vertex   -3.175000e+01 0.000000e+00 -1.587500e+01
      vertex   -4.445000e+01 0.000000e+00 -3.175000e+00
      vertex   -3.257175e+01 0.000000e+00 -1.598319e+01
    endloop
  endfacet
  facet normal -0.000000e+00 -1.000000e+00 0.000000e+00
    outer loop
      vertex   -3.257175e+01 0.000000e+00 -1.598319e+01
      vertex   -4.445000e+01 0.000000e+00 -3.175000e+00
      vertex   -3.333750e+01 0.000000e+00 -1.630037e+01
    endloop
  endfacet
  facet normal -0.000000e+00 -1.000000e+00 0.000000e+00
    outer loop
      vertex   -3.333750e+01 0.000000e+00 -1.630037e+01
      vertex   -4.445000e+01 0.000000e+00 -3.175000e+00
      vertex   -3.399506e+01 0.000000e+00 -1.680494e+01
    endloop
  endfacet
  facet normal -0.000000e+00 -1.000000e+00 0.000000e+00
    outer loop
      vertex   -3.399506e+01 0.000000e+00 -1.680494e+01
      vertex   -4.445000e+01 0.000000e+00 -3.175000e+00
      vertex   -3.449963e+01 0.000000e+00 -1.746250e+01
    endloop
  endfacet
  facet normal -0.000000e+00 -1.000000e+00 0.000000e+00
    outer loop
      vertex   -3.449963e+01 0.000000e+00 -1.746250e+01
      vertex   -4.445000e+01 0.000000e+00 -3.175000e+00
      vertex   -3.481681e+01 0.000000e+00 -1.822825e+01
    endloop
  endfacet
  facet normal 0.000000e+00 -1.000000e+00 0.000000e+00
    outer loop
      vertex   -3.481681e+01 0.000000e+00 -1.822825e+01
      vertex   -4.445000e+01 0.000000e+00 -3.175000e+00
      vertex   -6.350000e+01 0.000000e+00 0.000000e+00
    endloop
  endfacet
  facet normal -0.000000e+00 -1.000000e+00 0.000000e+00
    outer loop
      vertex   -3.481681e+01 0.000000e+00 -1.822825e+01
      vertex   -6.350000e+01 0.000000e+00 0.000000e+00
      vertex   -3.492500e+01 0.000000e+00 -1.905000e+01
    endloop
  endfacet
  facet normal -0.000000e+00 -1.000000e+00 0.000000e+00
    outer loop
      vertex   -3.492500e+01 0.000000e+00 -1.905000e+01
      vertex   -6.350000e+01 0.000000e+00 0.000000e+00
      vertex   -6.350000e+01 0.000000e+00 -3.810000e+01
    endloop
  endfacet
  facet normal -0.000000e+00 -1.000000e+00 0.000000e+00
    outer loop
      vertex   0.000000e+00 0.000000e+00 0.000000e+00
      vertex   -1.905000e+01 0.000000e+00 0.000000e+00
      vertex   -1.905000e+01 0.000000e+00 -3.175000e+00
    endloop
  endfacet
  facet normal 0.000000e+00 -1.000000e+00 0.000000e+00
    outer loop
      vertex   -4.445000e+01 0.000000e+00 -3.175000e+00
      vertex   -4.445000e+01 0.000000e+00 0.000000e+00
      vertex   -6.350000e+01 0.000000e+00 0.000000e+00
    endloop
  endfacet
  facet normal 0.000000e+00 -1.000000e+00 -0.000000e+00
    outer loop
      vertex   -2.900037e+01 0.000000e+00 -2.063750e+01
      vertex   -2.950494e+01 0.000000e+00 -2.129506e+01
      vertex   -1.905000e+01 0.000000e+00 -3.492500e+01
    endloop
  endfacet
  facet normal 0.000000e+00 -1.000000e+00 0.000000e+00
    outer loop
      vertex   -1.905000e+01 0.000000e+00 -3.492500e+01
      vertex   -2.950494e+01 0.000000e+00 -2.129506e+01
      vertex   -3.016250e+01 0.000000e+00 -2.179963e+01
    endloop
  endfacet
  facet normal 0.000000e+00 -1.000000e+00 0.000000e+00
    outer loop
      vertex   -1.905000e+01 0.000000e+00 -3.492500e+01
      vertex   -3.016250e+01 0.000000e+00 -2.179963e+01
      vertex   -3.092825e+01 0.000000e+00 -2.211681e+01
    endloop
  endfacet
  facet normal 0.000000e+00 -1.000000e+00 -0.000000e+00
    outer loop
      vertex   -3.092825e+01 0.000000e+00 -2.211681e+01
      vertex   -3.175000e+01 0.000000e+00 -2.222500e+01
      vertex   -1.905000e+01 0.000000e+00 -3.492500e+01
    endloop
  endfacet
  facet normal -0.000000e+00 -1.000000e+00 0.000000e+00
    outer loop
      vertex   -3.333750e+01 0.000000e+00 -2.179963e+01
      vertex   -3.399506e+01 0.000000e+00 -2.129506e+01
      vertex   -4.445000e+01 0.000000e+00 -3.492500e+01
    endloop
  endfacet
  facet normal 0.000000e+00 -1.000000e+00 0.000000e+00
    outer loop
      vertex   -4.445000e+01 0.000000e+00 -3.492500e+01
      vertex   -3.399506e+01 0.000000e+00 -2.129506e+01
      vertex   -3.449963e+01 0.000000e+00 -2.063750e+01
    endloop
  endfacet
  facet normal 0.000000e+00 -1.000000e+00 0.000000e+00
    outer loop
      vertex   -4.445000e+01 0.000000e+00 -3.492500e+01
      vertex   -3.449963e+01 0.000000e+00 -2.063750e+01
      vertex   -3.481681e+01 0.000000e+00 -1.987175e+01
    endloop
  endfacet
  facet normal -9.914449e-01 -7.302712e-17 -1.305262e-01
    outer loop
      vertex   -2.868319e+01 0.000000e+00 -1.822825e+01
      vertex   -2.868319e+01 6.350000e+00 -1.822825e+01
      vertex   -2.857500e+01 0.000000e+00 -1.905000e+01
    endloop
  endfacet
  facet normal -9.914449e-01 0.000000e+00 -1.305262e-01
    outer loop
      vertex   -2.857500e+01 0.000000e+00 -1.905000e+01
      vertex   -2.868319e+01 6.350000e+00 -1.822825e+01
      vertex   -2.857500e+01 6.350000e+00 -1.905000e+01
    endloop
  endfacet
  facet normal -9.914449e-01 0.000000e+00 1.305262e-01
    outer loop
      vertex   -2.857500e+01 0.000000e+00 -1.905000e+01
      vertex   -2.857500e+01 6.350000e+00 -1.905000e+01
      vertex   -2.868319e+01 0.000000e+00 -1.987175e+01
    endloop
  endfacet
  facet normal -9.914449e-01 0.000000e+00 1.305262e-01
    outer loop
      vertex   -2.868319e+01 0.000000e+00 -1.987175e+01
      vertex   -2.857500e+01 6.350000e+00 -1.905000e+01
      vertex   -2.868319e+01 6.350000e+00 -1.987175e+01
    endloop
  endfacet
  facet normal -9.238795e-01 0.000000e+00 3.826834e-01
    outer loop
      vertex   -2.868319e+01 0.000000e+00 -1.987175e+01
      vertex   -2.868319e+01 6.350000e+00 -1.987175e+01
      vertex   -2.900037e+01 0.000000e+00 -2.063750e+01
    endloop
  endfacet
  facet normal -9.238795e-01 2.141047e-16 3.826834e-01
    outer loop
      vertex   -2.900037e+01 0.000000e+00 -2.063750e+01
      vertex   -2.868319e+01 6.350000e+00 -1.987175e+01
      vertex   -2.900037e+01 6.350000e+00 -2.063750e+01
    endloop
  endfacet
  facet normal -7.933533e-01 3.405913e-16 6.087614e-01
    outer loop
      vertex   -2.900037e+01 0.000000e+00 -2.063750e+01
      vertex   -2.900037e+01 6.350000e+00 -2.063750e+01
      vertex   -2.950494e+01 0.000000e+00 -2.129506e+01
    endloop
  endfacet
  facet normal -7.933533e-01 0.000000e+00 6.087614e-01
    outer loop
      vertex   -2.950494e+01 0.000000e+00 -2.129506e+01
      vertex   -2.900037e+01 6.350000e+00 -2.063750e+01
      vertex   -2.950494e+01 6.350000e+00 -2.129506e+01
    endloop
  endfacet
  facet normal -6.087614e-01 0.000000e+00 7.933533e-01
    outer loop
      vertex   -2.950494e+01 0.000000e+00 -2.129506e+01
      vertex   -2.950494e+01 6.350000e+00 -2.129506e+01
      vertex   -3.016250e+01 0.000000e+00 -2.179963e+01
    endloop
  endfacet
  facet normal -6.087614e-01 -3.405913e-16 7.933533e-01
    outer loop
      vertex   -3.016250e+01 0.000000e+00 -2.179963e+01
      vertex   -2.950494e+01 6.350000e+00 -2.129506e+01
      vertex   -3.016250e+01 6.350000e+00 -2.179963e+01
    endloop
  endfacet
  facet normal -3.826834e-01 -2.141047e-16 9.238795e-01
    outer loop
      vertex   -3.016250e+01 0.000000e+00 -2.179963e+01
      vertex   -3.016250e+01 6.350000e+00 -2.179963e+01
      vertex   -3.092825e+01 0.000000e+00 -2.211681e+01
    endloop
  endfacet
  facet normal -3.826834e-01 0.000000e+00 9.238795e-01
    outer loop
      vertex   -3.092825e+01 0.000000e+00 -2.211681e+01
      vertex   -3.016250e+01 6.350000e+00 -2.179963e+01
      vertex   -3.092825e+01 6.350000e+00 -2.211681e+01
    endloop
  endfacet
  facet normal -1.305262e-01 0.000000e+00 9.914449e-01
    outer loop
      vertex   -3.092825e+01 0.000000e+00 -2.211681e+01
      vertex   -3.092825e+01 6.350000e+00 -2.211681e+01
      vertex   -3.175000e+01 0.000000e+00 -2.222500e+01
    endloop
  endfacet
  facet normal -1.305262e-01 0.000000e+00 9.914449e-01
    outer loop
      vertex   -3.175000e+01 0.000000e+00 -2.222500e+01
      vertex   -3.092825e+01 6.350000e+00 -2.211681e+01
      vertex   -3.175000e+01 6.350000e+00 -2.222500e+01
    endloop
  endfacet
  facet normal 1.305262e-01 -0.000000e+00 9.914449e-01
    outer loop
      vertex   -3.175000e+01 0.000000e+00 -2.222500e+01
      vertex   -3.175000e+01 6.350000e+00 -2.222500e+01
      vertex   -3.257175e+01 0.000000e+00 -2.211681e+01
    endloop
  endfacet
  facet normal 1.305262e-01 -0.000000e+00 9.914449e-01
    outer loop
      vertex   -3.257175e+01 0.000000e+00 -2.211681e+01
      vertex   -3.175000e+01 6.350000e+00 -2.222500e+01
      vertex   -3.257175e+01 6.350000e+00 -2.211681e+01
    endloop
  endfacet
  facet normal 3.826834e-01 -0.000000e+00 9.238795e-01
    outer loop
      vertex   -3.257175e+01 0.000000e+00 -2.211681e+01
      vertex   -3.257175e+01 6.350000e+00 -2.211681e+01
      vertex   -3.333750e+01 0.000000e+00 -2.179963e+01
    endloop
  endfacet
  facet normal 3.826834e-01 -0.000000e+00 9.238795e-01
    outer loop
      vertex   -3.333750e+01 0.000000e+00 -2.179963e+01
      vertex   -3.257175e+01 6.350000e+00 -2.211681e+01
      vertex   -3.333750e+01 6.350000e+00 -2.179963e+01
    endloop
  endfacet
  facet normal 6.087614e-01 -0.000000e+00 7.933533e-01
    outer loop
      vertex   -3.333750e+01 0.000000e+00 -2.179963e+01
      vertex   -3.333750e+01 6.350000e+00 -2.179963e+01
      vertex   -3.399506e+01 0.000000e+00 -2.129506e+01
    endloop
  endfacet
  facet normal 6.087614e-01 -0.000000e+00 7.933533e-01
    outer loop
      vertex   -3.399506e+01 0.000000e+00 -2.129506e+01
      vertex   -3.333750e+01 6.350000e+00 -2.179963e+01
      vertex   -3.399506e+01 6.350000e+00 -2.129506e+01
    endloop
  endfacet
  facet normal 7.933533e-01 -0.000000e+00 6.087614e-01
    outer loop
      vertex   -3.399506e+01 0.000000e+00 -2.129506e+01
      vertex   -3.399506e+01 6.350000e+00 -2.129506e+01
      vertex   -3.449963e+01 0.000000e+00 -2.063750e+01
    endloop
  endfacet
  facet normal 7.933533e-01 -3.405913e-16 6.087614e-01
    outer loop
      vertex   -3.449963e+01 0.000000e+00 -2.063750e+01
      vertex   -3.399506e+01 6.350000e+00 -2.129506e+01
      vertex   -3.449963e+01 6.350000e+00 -2.063750e+01
    endloop
  endfacet
  facet normal 9.238795e-01 -2.141047e-16 3.826834e-01
    outer loop
      vertex   -3.449963e+01 0.000000e+00 -2.063750e+01
      vertex   -3.449963e+01 6.350000e+00 -2.063750e+01
      vertex   -3.481681e+01 0.000000e+00 -1.987175e+01
    endloop
  endfacet
  facet normal 9.238795e-01 8.196841e-16 3.826834e-01
    outer loop
      vertex   -3.481681e+01 0.000000e+00 -1.987175e+01
      vertex   -3.449963e+01 6.350000e+00 -2.063750e+01
      vertex   -3.481681e+01 6.350000e+00 -1.987175e+01
    endloop
  endfacet
  facet normal 9.914449e-01 1.036365e-15 1.305262e-01
    outer loop
      vertex   -3.481681e+01 0.000000e+00 -1.987175e+01
      vertex   -3.481681e+01 6.350000e+00 -1.987175e+01
      vertex   -3.492500e+01 0.000000e+00 -1.905000e+01
    endloop
  endfacet
  facet normal 9.914449e-01 -0.000000e+00 1.305262e-01
    outer loop
      vertex   -3.492500e+01 0.000000e+00 -1.905000e+01
      vertex   -3.481681e+01 6.350000e+00 -1.987175e+01
      vertex   -3.492500e+01 6.350000e+00 -1.905000e+01
    endloop
  endfacet
  facet normal 9.914449e-01 0.000000e+00 -1.305262e-01
    outer loop
      vertex   -3.492500e+01 0.000000e+00 -1.905000e+01
      vertex   -3.492500e+01 6.350000e+00 -1.905000e+01
      vertex   -3.481681e+01 0.000000e+00 -1.822825e+01
    endloop
  endfacet
  facet normal 9.914449e-01 -1.036365e-15 -1.305262e-01
    outer loop
      vertex   -3.481681e+01 0.000000e+00 -1.822825e+01
      vertex   -3.492500e+01 6.350000e+00 -1.905000e+01
      vertex   -3.481681e+01 6.350000e+00 -1.822825e+01
    endloop
  endfacet
  facet normal 9.238795e-01 -8.196841e-16 -3.826834e-01
    outer loop
      vertex   -3.481681e+01 0.000000e+00 -1.822825e+01
      vertex   -3.481681e+01 6.350000e+00 -1.822825e+01
      vertex   -3.449963e+01 0.000000e+00 -1.746250e+01
    endloop
  endfacet
  facet normal 9.238795e-01 2.141047e-16 -3.826834e-01
    outer loop
      vertex   -3.449963e+01 0.000000e+00 -1.746250e+01
      vertex   -3.481681e+01 6.350000e+00 -1.822825e+01
      vertex   -3.449963e+01 6.350000e+00 -1.746250e+01
    endloop
  endfacet
  facet normal 7.933533e-01 3.405913e-16 -6.087614e-01
    outer loop
      vertex   -3.449963e+01 0.000000e+00 -1.746250e+01
      vertex   -3.449963e+01 6.350000e+00 -1.746250e+01
      vertex   -3.399506e+01 0.000000e+00 -1.680494e+01
    endloop
  endfacet
  facet normal 7.933533e-01 3.405913e-16 -6.087614e-01
    outer loop
      vertex   -3.399506e+01 0.000000e+00 -1.680494e+01
      vertex   -3.449963e+01 6.350000e+00 -1.746250e+01
      vertex   -3.399506e+01 6.350000e+00 -1.680494e+01
    endloop
  endfacet
  facet normal 6.087614e-01 4.438673e-16 -7.933533e-01
    outer loop
      vertex   -3.399506e+01 0.000000e+00 -1.680494e+01
      vertex   -3.399506e+01 6.350000e+00 -1.680494e+01
      vertex   -3.333750e+01 0.000000e+00 -1.630037e+01
    endloop
  endfacet
  facet normal 6.087614e-01 0.000000e+00 -7.933533e-01
    outer loop
      vertex   -3.333750e+01 0.000000e+00 -1.630037e+01
      vertex   -3.399506e+01 6.350000e+00 -1.680494e+01
      vertex   -3.333750e+01 6.350000e+00 -1.630037e+01
    endloop
  endfacet
  facet normal 3.826834e-01 0.000000e+00 -9.238795e-01
    outer loop
      vertex   -3.333750e+01 0.000000e+00 -1.630037e+01
      vertex   -3.333750e+01 6.350000e+00 -1.630037e+01
      vertex   -3.257175e+01 0.000000e+00 -1.598319e+01
    endloop
  endfacet
  facet normal 3.826834e-01 0.000000e+00 -9.238795e-01
    outer loop
      vertex   -3.257175e+01 0.000000e+00 -1.598319e+01
      vertex   -3.333750e+01 6.350000e+00 -1.630037e+01
      vertex   -3.257175e+01 6.350000e+00 -1.598319e+01
    endloop
  endfacet
  facet normal 1.305262e-01 0.000000e+00 -9.914449e-01
    outer loop
      vertex   -3.257175e+01 0.000000e+00 -1.598319e+01
      vertex   -3.257175e+01 6.350000e+00 -1.598319e+01
      vertex   -3.175000e+01 0.000000e+00 -1.587500e+01
    endloop
  endfacet
  facet normal 1.305262e-01 0.000000e+00 -9.914449e-01
    outer loop
      vertex   -3.175000e+01 0.000000e+00 -1.587500e+01
      vertex   -3.257175e+01 6.350000e+00 -1.598319e+01
      vertex   -3.175000e+01 6.350000e+00 -1.587500e+01
    endloop
  endfacet
  facet normal -1.305262e-01 0.000000e+00 -9.914449e-01
    outer loop
      vertex   -3.175000e+01 0.000000e+00 -1.587500e+01
      vertex   -3.175000e+01 6.350000e+00 -1.587500e+01
      vertex   -3.092825e+01 0.000000e+00 -1.598319e+01
    endloop
  endfacet
  facet normal -1.305262e-01 0.000000e+00 -9.914449e-01
    outer loop
      vertex   -3.092825e+01 0.000000e+00 -1.598319e+01
      vertex   -3.175000e+01 6.350000e+00 -1.587500e+01
      vertex   -3.092825e+01 6.350000e+00 -1.598319e+01
    endloop
  endfacet
  facet normal -3.826834e-01 0.000000e+00 -9.238795e-01
    outer loop
      vertex   -3.092825e+01 0.000000e+00 -1.598319e+01
      vertex   -3.092825e+01 6.350000e+00 -1.598319e+01
      vertex   -3.016250e+01 0.000000e+00 -1.630037e+01
    endloop
  endfacet
  facet normal -3.826834e-01 2.141047e-16 -9.238795e-01
    outer loop
      vertex   -3.016250e+01 0.000000e+00 -1.630037e+01
      vertex   -3.092825e+01 6.350000e+00 -1.598319e+01
      vertex   -3.016250e+01 6.350000e+00 -1.630037e+01
    endloop
  endfacet
  facet normal -6.087614e-01 3.405913e-16 -7.933533e-01
    outer loop
      vertex   -3.016250e+01 0.000000e+00 -1.630037e+01
      vertex   -3.016250e+01 6.350000e+00 -1.630037e+01
      vertex   -2.950494e+01 0.000000e+00 -1.680494e+01
    endloop
  endfacet
  facet normal -6.087614e-01 0.000000e+00 -7.933533e-01
    outer loop
      vertex   -2.950494e+01 0.000000e+00 -1.680494e+01
      vertex   -3.016250e+01 6.350000e+00 -1.630037e+01
      vertex   -2.950494e+01 6.350000e+00 -1.680494e+01
    endloop
  endfacet
  facet normal -7.933533e-01 0.000000e+00 -6.087614e-01
    outer loop
      vertex   -2.950494e+01 0.000000e+00 -1.680494e+01
      vertex   -2.950494e+01 6.350000e+00 -1.680494e+01
      vertex   -2.900037e+01 0.000000e+00 -1.746250e+01
    endloop
  endfacet
  facet normal -7.933533e-01 0.000000e+00 -6.087614e-01
    outer loop
      vertex   -2.900037e+01 0.000000e+00 -1.746250e+01
      vertex   -2.950494e+01 6.350000e+00 -1.680494e+01
      vertex   -2.900037e+01 6.350000e+00 -1.746250e+01
    endloop
  endfacet
  facet normal -9.238795e-01 0.000000e+00 -3.826834e-01
    outer loop
      vertex   -2.900037e+01 0.000000e+00 -1.746250e+01
      vertex   -2.900037e+01 6.350000e+00 -1.746250e+01
      vertex   -2.868319e+01 0.000000e+00 -1.822825e+01
    endloop
  endfacet
  facet normal -9.238795e-01 -2.141047e-16 -3.826834e-01
    outer loop
      vertex   -2.868319e+01 0.000000e+00 -1.822825e+01
      vertex   -2.900037e+01 6.350000e+00 -1.746250e+01
      vertex   -2.868319e+01 6.350000e+00 -1.822825e+01
    endloop
  endfacet
  facet normal -1.000000e+00 0.000000e+00 0.000000e+00
    outer loop
      vertex   -6.350000e+01 0.000000e+00 -3.810000e+01
      vertex   -6.350000e+01 0.000000e+00 0.000000e+00
      vertex   -6.350000e+01 6.350000e+00 -3.810000e+01
    endloop
  endfacet
  facet normal -1.000000e+00 0.000000e+00 0.000000e+00
    outer loop
      vertex   -6.350000e+01 6.350000e+00 -3.810000e+01
      vertex   -6.350000e+01 0.000000e+00 0.000000e+00
      vertex   -6.350000e+01 6.350000e+00 0.000000e+00
    endloop
  endfacet
  facet normal 0.000000e+00 0.000000e+00 -1.000000e+00
    outer loop
      vertex   -4.445000e+01 0.000000e+00 -3.810000e+01
      vertex   -6.350000e+01 0.000000e+00 -3.810000e+01
      vertex   -4.445000e+01 3.175000e+00 -3.810000e+01
    endloop
  endfacet
  facet normal -0.000000e+00 0.000000e+00 -1.000000e+00
    outer loop
      vertex   -4.445000e+01 3.175000e+00 -3.810000e+01
      vertex   -6.350000e+01 0.000000e+00 -3.810000e+01
      vertex   -6.350000e+01 6.350000e+00 -3.810000e+01
    endloop
  endfacet
  facet normal 0.000000e+00 0.000000e+00 -1.000000e+00
    outer loop
      vertex   -4.445000e+01 3.175000e+00 -3.810000e+01
      vertex   -6.350000e+01 6.350000e+00 -3.810000e+01
      vertex   0.000000e+00 6.350000e+00 -3.810000e+01
    endloop
  endfacet
  facet normal 0.000000e+00 0.000000e+00 -1.000000e+00
    outer loop
      vertex   -4.445000e+01 3.175000e+00 -3.810000e+01
      vertex   0.000000e+00 6.350000e+00 -3.810000e+01
      vertex   -1.905000e+01 3.175000e+00 -3.810000e+01
    endloop
  endfacet
  facet normal 0.000000e+00 0.000000e+00 -1.000000e+00
    outer loop
      vertex   -1.905000e+01 3.175000e+00 -3.810000e+01
      vertex   0.000000e+00 6.350000e+00 -3.810000e+01
      vertex   0.000000e+00 0.000000e+00 -3.810000e+01
    endloop
  endfacet
  facet normal 0.000000e+00 0.000000e+00 -1.000000e+00
    outer loop
      vertex   -1.905000e+01 3.175000e+00 -3.810000e+01
      vertex   0.000000e+00 0.000000e+00 -3.810000e+01
      vertex   -1.905000e+01 0.000000e+00 -3.810000e+01
    endloop
  endfacet
  facet normal 1.000000e+00 -0.000000e+00 0.000000e+00
    outer loop
      vertex   0.000000e+00 0.000000e+00 0.000000e+00
      vertex   0.000000e+00 0.000000e+00 -3.810000e+01
      vertex   0.000000e+00 6.350000e+00 0.000000e+00
    endloop
  endfacet
  facet normal 1.000000e+00 0.000000e+00 0.000000e+00
    outer loop
      vertex   0.000000e+00 6.350000e+00 0.000000e+00
      vertex   0.000000e+00 0.000000e+00 -3.810000e+01
      vertex   0.000000e+00 6.350000e+00 -3.810000e+01
    endloop
  endfacet
  facet normal 0.000000e+00 0.000000e+00 1.000000e+00
    outer loop
      vertex   -1.905000e+01 0.000000e+00 0.000000e+00
      vertex   0.000000e+00 0.000000e+00 0.000000e+00
      vertex   -1.905000e+01 3.175000e+00 0.000000e+00
    endloop
  endfacet
  facet normal -0.000000e+00 0.000000e+00 1.000000e+00
    outer loop
      vertex   -1.905000e+01 3.175000e+00 0.000000e+00
      vertex   0.000000e+00 0.000000e+00 0.000000e+00
      vertex   0.000000e+00 6.350000e+00 0.000000e+00
    endloop
  endfacet
  facet normal 0.000000e+00 -0.000000e+00 1.000000e+00
    outer loop
      vertex   -1.905000e+01 3.175000e+00 0.000000e+00
      vertex   0.000000e+00 6.350000e+00 0.000000e+00
      vertex   -6.350000e+01 6.350000e+00 0.000000e+00
    endloop
  endfacet
  facet normal 0.000000e+00 0.000000e+00 1.000000e+00
    outer loop
      vertex   -1.905000e+01 3.175000e+00 0.000000e+00
      vertex   -6.350000e+01 6.350000e+00 0.000000e+00
      vertex   -4.445000e+01 3.175000e+00 0.000000e+00
    endloop
  endfacet
  facet normal 0.000000e+00 0.000000e+00 1.000000e+00
    outer loop
      vertex   -4.445000e+01 3.175000e+00 0.000000e+00
      vertex   -6.350000e+01 6.350000e+00 0.000000e+00
      vertex   -6.350000e+01 0.000000e+00 0.000000e+00
    endloop
  endfacet
  facet normal 0.000000e+00 0.000000e+00 1.000000e+00
    outer loop
      vertex   -4.445000e+01 3.175000e+00 0.000000e+00
      vertex   -6.350000e+01 0.000000e+00 0.000000e+00
      vertex   -4.445000e+01 0.000000e+00 0.000000e+00
    endloop
  endfacet
  facet normal -0.000000e+00 1.000000e+00 0.000000e+00
    outer loop
      vertex   -2.868319e+01 6.350000e+00 -1.822825e+01
      vertex   0.000000e+00 6.350000e+00 0.000000e+00
      vertex   -2.857500e+01 6.350000e+00 -1.905000e+01
    endloop
  endfacet
  facet normal -0.000000e+00 1.000000e+00 0.000000e+00
    outer loop
      vertex   -2.857500e+01 6.350000e+00 -1.905000e+01
      vertex   0.000000e+00 6.350000e+00 0.000000e+00
      vertex   0.000000e+00 6.350000e+00 -3.810000e+01
    endloop
  endfacet
  facet normal 0.000000e+00 1.000000e+00 0.000000e+00
    outer loop
      vertex   -2.857500e+01 6.350000e+00 -1.905000e+01
      vertex   0.000000e+00 6.350000e+00 -3.810000e+01
      vertex   -2.868319e+01 6.350000e+00 -1.987175e+01
    endloop
  endfacet
  facet normal 0.000000e+00 1.000000e+00 0.000000e+00
    outer loop
      vertex   -2.868319e+01 6.350000e+00 -1.987175e+01
      vertex   0.000000e+00 6.350000e+00 -3.810000e+01
      vertex   -2.900037e+01 6.350000e+00 -2.063750e+01
    endloop
  endfacet
  facet normal 0.000000e+00 1.000000e+00 0.000000e+00
    outer loop
      vertex   -2.900037e+01 6.350000e+00 -2.063750e+01
      vertex   0.000000e+00 6.350000e+00 -3.810000e+01
      vertex   -2.950494e+01 6.350000e+00 -2.129506e+01
    endloop
  endfacet
  facet normal 0.000000e+00 1.000000e+00 0.000000e+00
    outer loop
      vertex   -2.950494e+01 6.350000e+00 -2.129506e+01
      vertex   0.000000e+00 6.350000e+00 -3.810000e+01
      vertex   -3.016250e+01 6.350000e+00 -2.179963e+01
    endloop
  endfacet
  facet normal 0.000000e+00 1.000000e+00 0.000000e+00
    outer loop
      vertex   -3.016250e+01 6.350000e+00 -2.179963e+01
      vertex   0.000000e+00 6.350000e+00 -3.810000e+01
      vertex   -3.092825e+01 6.350000e+00 -2.211681e+01
    endloop
  endfacet
  facet normal 0.000000e+00 1.000000e+00 0.000000e+00
    outer loop
      vertex   -3.092825e+01 6.350000e+00 -2.211681e+01
      vertex   0.000000e+00 6.350000e+00 -3.810000e+01
      vertex   -3.175000e+01 6.350000e+00 -2.222500e+01
    endloop
  endfacet
  facet normal 0.000000e+00 1.000000e+00 0.000000e+00
    outer loop
      vertex   -3.175000e+01 6.350000e+00 -2.222500e+01
      vertex   0.000000e+00 6.350000e+00 -3.810000e+01
      vertex   -6.350000e+01 6.350000e+00 -3.810000e+01
    endloop
  endfacet
  facet normal 0.000000e+00 1.000000e+00 0.000000e+00
    outer loop
      vertex   -3.175000e+01 6.350000e+00 -2.222500e+01
      vertex   -6.350000e+01 6.350000e+00 -3.810000e+01
      vertex   -3.257175e+01 6.350000e+00 -2.211681e+01
    endloop
  endfacet
  facet normal 0.000000e+00 1.000000e+00 0.000000e+00
    outer loop
      vertex   -3.257175e+01 6.350000e+00 -2.211681e+01
      vertex   -6.350000e+01 6.350000e+00 -3.810000e+01
      vertex   -3.333750e+01 6.350000e+00 -2.179963e+01
    endloop
  endfacet
  facet normal 0.000000e+00 1.000000e+00 0.000000e+00
    outer loop
      vertex   -3.333750e+01 6.350000e+00 -2.179963e+01
      vertex   -6.350000e+01 6.350000e+00 -3.810000e+01
      vertex   -3.399506e+01 6.350000e+00 -2.129506e+01
    endloop
  endfacet
  facet normal 0.000000e+00 1.000000e+00 0.000000e+00
    outer loop
      vertex   -3.399506e+01 6.350000e+00 -2.129506e+01
      vertex   -6.350000e+01 6.350000e+00 -3.810000e+01
      vertex   -3.449963e+01 6.350000e+00 -2.063750e+01
    endloop
  endfacet
  facet normal 0.000000e+00 1.000000e+00 0.000000e+00
    outer loop
      vertex   -3.449963e+01 6.350000e+00 -2.063750e+01
      vertex   -6.350000e+01 6.350000e+00 -3.810000e+01
      vertex   -3.481681e+01 6.350000e+00 -1.987175e+01
    endloop
  endfacet
  facet normal 0.000000e+00 1.000000e+00 0.000000e+00
    outer loop
      vertex   -3.481681e+01 6.350000e+00 -1.987175e+01
      vertex   -6.350000e+01 6.350000e+00 -3.810000e+01
      vertex   -3.492500e+01 6.350000e+00 -1.905000e+01
    endloop
  endfacet
  facet normal 0.000000e+00 1.000000e+00 0.000000e+00
    outer loop
      vertex   -3.492500e+01 6.350000e+00 -1.905000e+01
      vertex   -6.350000e+01 6.350000e+00 -3.810000e+01
      vertex   -6.350000e+01 6.350000e+00 0.000000e+00
    endloop
  endfacet
  facet normal 0.000000e+00 1.000000e+00 -0.000000e+00
    outer loop
      vertex   -3.492500e+01 6.350000e+00 -1.905000e+01
      vertex   -6.350000e+01 6.350000e+00 0.000000e+00
      vertex   -3.481681e+01 6.350000e+00 -1.822825e+01
    endloop
  endfacet
  facet normal 0.000000e+00 1.000000e+00 -0.000000e+00
    outer loop
      vertex   -3.481681e+01 6.350000e+00 -1.822825e+01
      vertex   -6.350000e+01 6.350000e+00 0.000000e+00
      vertex   -3.449963e+01 6.350000e+00 -1.746250e+01
    endloop
  endfacet
  facet normal 0.000000e+00 1.000000e+00 -0.000000e+00
    outer loop
      vertex   -3.449963e+01 6.350000e+00 -1.746250e+01
      vertex   -6.350000e+01 6.350000e+00 0.000000e+00
      vertex   -3.399506e+01 6.350000e+00 -1.680494e+01
    endloop
  endfacet
  facet normal 0.000000e+00 1.000000e+00 -0.000000e+00
    outer loop
      vertex   -3.399506e+01 6.350000e+00 -1.680494e+01
      vertex   -6.350000e+01 6.350000e+00 0.000000e+00
      vertex   -3.333750e+01 6.350000e+00 -1.630037e+01
    endloop
  endfacet
  facet normal 0.000000e+00 1.000000e+00 -0.000000e+00
    outer loop
      vertex   -3.333750e+01 6.350000e+00 -1.630037e+01
      vertex   -6.350000e+01 6.350000e+00 0.000000e+00
      vertex   -3.257175e+01 6.350000e+00 -1.598319e+01
    endloop
  endfacet
  facet normal 0.000000e+00 1.000000e+00 -0.000000e+00
    outer loop
      vertex   -3.257175e+01 6.350000e+00 -1.598319e+01
      vertex   -6.350000e+01 6.350000e+00 0.000000e+00
      vertex   -3.175000e+01 6.350000e+00 -1.587500e+01
    endloop
  endfacet
  facet normal 0.000000e+00 1.000000e+00 -0.000000e+00
    outer loop
      vertex   -3.175000e+01 6.350000e+00 -1.587500e+01
      vertex   -6.350000e+01 6.350000e+00 0.000000e+00
      vertex   0.000000e+00 6.350000e+00 0.000000e+00
    endloop
  endfacet
  facet normal -0.000000e+00 1.000000e+00 0.000000e+00
    outer loop
      vertex   -3.175000e+01 6.350000e+00 -1.587500e+01
      vertex   0.000000e+00 6.350000e+00 0.000000e+00
      vertex   -3.092825e+01 6.350000e+00 -1.598319e+01
    endloop
  endfacet
  facet normal -0.000000e+00 1.000000e+00 0.000000e+00
    outer loop
      vertex   -3.092825e+01 6.350000e+00 -1.598319e+01
      vertex   0.000000e+00 6.350000e+00 0.000000e+00
      vertex   -3.016250e+01 6.350000e+00 -1.630037e+01
    endloop
  endfacet
  facet normal -0.000000e+00 1.000000e+00 0.000000e+00
    outer loop
      vertex   -3.016250e+01 6.350000e+00 -1.630037e+01
      vertex   0.000000e+00 6.350000e+00 0.000000e+00
      vertex   -2.950494e+01 6.350000e+00 -1.680494e+01
    endloop
  endfacet
  facet normal -0.000000e+00 1.000000e+00 0.000000e+00
    outer loop
      vertex   -2.950494e+01 6.350000e+00 -1.680494e+01
      vertex   0.000000e+00 6.350000e+00 0.000000e+00
      vertex   -2.900037e+01 6.350000e+00 -1.746250e+01
    endloop
  endfacet
  facet normal -0.000000e+00 1.000000e+00 0.000000e+00
    outer loop
      vertex   -2.900037e+01 6.350000e+00 -1.746250e+01
      vertex   0.000000e+00 6.350000e+00 0.000000e+00
      vertex   -2.868319e+01 6.350000e+00 -1.822825e+01
    endloop
  endfacet
endsolid
