solid ASCII
  facet normal 9.914449e-01 1.681545e-18 -1.305262e-01
    outer loop
      vertex   -1.533407e+00 6.032500e+01 4.108752e-01
      vertex   -1.533407e+00 0.000000e+00 4.108752e-01
      vertex   -1.587500e+00 6.032500e+01 1.944127e-16
    endloop
  endfacet
  facet normal 9.914449e-01 0.000000e+00 -1.305262e-01
    outer loop
      vertex   -1.587500e+00 6.032500e+01 1.944127e-16
      vertex   -1.533407e+00 0.000000e+00 4.108752e-01
      vertex   -1.587500e+00 0.000000e+00 1.944127e-16
    endloop
  endfacet
  facet normal 9.914449e-01 0.000000e+00 1.305262e-01
    outer loop
      vertex   -1.587500e+00 6.032500e+01 1.944127e-16
      vertex   -1.587500e+00 0.000000e+00 1.944127e-16
      vertex   -1.533407e+00 6.032500e+01 -4.108752e-01
    endloop
  endfacet
  facet normal 9.914449e-01 -1.681545e-18 1.305262e-01
    outer loop
      vertex   -1.533407e+00 6.032500e+01 -4.108752e-01
      vertex   -1.587500e+00 0.000000e+00 1.944127e-16
      vertex   -1.533407e+00 0.000000e+00 -4.108752e-01
    endloop
  endfacet
  facet normal 9.238795e-01 -4.930042e-18 3.826834e-01
    outer loop
      vertex   -1.533407e+00 6.032500e+01 -4.108752e-01
      vertex   -1.533407e+00 0.000000e+00 -4.108752e-01
      vertex   -1.374815e+00 6.032500e+01 -7.937500e-01
    endloop
  endfacet
  facet normal 9.238795e-01 5.271821e-18 3.826834e-01
    outer loop
      vertex   -1.374815e+00 6.032500e+01 -7.937500e-01
      vertex   -1.533407e+00 0.000000e+00 -4.108752e-01
      vertex   -1.374815e+00 0.000000e+00 -7.937500e-01
    endloop
  endfacet
  facet normal 7.933533e-01 9.179746e-19 6.087614e-01
    outer loop
      vertex   -1.374815e+00 6.032500e+01 -7.937500e-01
      vertex   -1.374815e+00 0.000000e+00 -7.937500e-01
      vertex   -1.122532e+00 6.032500e+01 -1.122532e+00
    endloop
  endfacet
  facet normal 7.933533e-01 0.000000e+00 6.087614e-01
    outer loop
      vertex   -1.122532e+00 6.032500e+01 -1.122532e+00
      vertex   -1.374815e+00 0.000000e+00 -7.937500e-01
      vertex   -1.122532e+00 0.000000e+00 -1.122532e+00
    endloop
  endfacet
  facet normal 6.087614e-01 0.000000e+00 7.933533e-01
    outer loop
      vertex   -1.122532e+00 6.032500e+01 -1.122532e+00
      vertex   -1.122532e+00 0.000000e+00 -1.122532e+00
      vertex   -7.937500e-01 6.032500e+01 -1.374815e+00
    endloop
  endfacet
  facet normal 6.087614e-01 7.604036e-18 7.933533e-01
    outer loop
      vertex   -7.937500e-01 6.032500e+01 -1.374815e+00
      vertex   -1.122532e+00 0.000000e+00 -1.122532e+00
      vertex   -7.937500e-01 0.000000e+00 -1.374815e+00
    endloop
  endfacet
  facet normal 3.826834e-01 1.650258e-18 9.238795e-01
    outer loop
      vertex   -7.937500e-01 6.032500e+01 -1.374815e+00
      vertex   -7.937500e-01 0.000000e+00 -1.374815e+00
      vertex   -4.108752e-01 6.032500e+01 -1.533407e+00
    endloop
  endfacet
  facet normal 3.826834e-01 1.529421e-18 9.238795e-01
    outer loop
      vertex   -4.108752e-01 6.032500e+01 -1.533407e+00
      vertex   -7.937500e-01 0.000000e+00 -1.374815e+00
      vertex   -4.108752e-01 0.000000e+00 -1.533407e+00
    endloop
  endfacet
  facet normal 1.305262e-01 -1.967770e-18 9.914449e-01
    outer loop
      vertex   -4.108752e-01 6.032500e+01 -1.533407e+00
      vertex   -4.108752e-01 0.000000e+00 -1.533407e+00
      vertex   9.720634e-17 6.032500e+01 -1.587500e+00
    endloop
  endfacet
  facet normal 1.305262e-01 0.000000e+00 9.914449e-01
    outer loop
      vertex   9.720634e-17 6.032500e+01 -1.587500e+00
      vertex   -4.108752e-01 0.000000e+00 -1.533407e+00
      vertex   9.720634e-17 0.000000e+00 -1.587500e+00
    endloop
  endfacet
  facet normal -1.305262e-01 0.000000e+00 9.914449e-01
    outer loop
      vertex   9.720634e-17 6.032500e+01 -1.587500e+00
      vertex   9.720634e-17 0.000000e+00 -1.587500e+00
      vertex   4.108752e-01 6.032500e+01 -1.533407e+00
    endloop
  endfacet
  facet normal -1.305262e-01 1.367219e-18 9.914449e-01
    outer loop
      vertex   4.108752e-01 6.032500e+01 -1.533407e+00
      vertex   9.720634e-17 0.000000e+00 -1.587500e+00
      vertex   4.108752e-01 0.000000e+00 -1.533407e+00
    endloop
  endfacet
  facet normal -3.826834e-01 -3.290150e-18 9.238795e-01
    outer loop
      vertex   4.108752e-01 6.032500e+01 -1.533407e+00
      vertex   4.108752e-01 0.000000e+00 -1.533407e+00
      vertex   7.937500e-01 6.032500e+01 -1.374815e+00
    endloop
  endfacet
  facet normal -3.826834e-01 5.271821e-18 9.238795e-01
    outer loop
      vertex   7.937500e-01 6.032500e+01 -1.374815e+00
      vertex   4.108752e-01 0.000000e+00 -1.533407e+00
      vertex   7.937500e-01 0.000000e+00 -1.374815e+00
    endloop
  endfacet
  facet normal -6.087614e-01 9.179746e-19 7.933533e-01
    outer loop
      vertex   7.937500e-01 6.032500e+01 -1.374815e+00
      vertex   7.937500e-01 0.000000e+00 -1.374815e+00
      vertex   1.122532e+00 6.032500e+01 -1.122532e+00
    endloop
  endfacet
  facet normal -6.087614e-01 1.358894e-18 7.933533e-01
    outer loop
      vertex   1.122532e+00 6.032500e+01 -1.122532e+00
      vertex   7.937500e-01 0.000000e+00 -1.374815e+00
      vertex   1.122532e+00 0.000000e+00 -1.122532e+00
    endloop
  endfacet
  facet normal -7.933533e-01 -1.358894e-18 6.087614e-01
    outer loop
      vertex   1.122532e+00 6.032500e+01 -1.122532e+00
      vertex   1.122532e+00 0.000000e+00 -1.122532e+00
      vertex   1.374815e+00 6.032500e+01 -7.937500e-01
    endloop
  endfacet
  facet normal -7.933533e-01 -2.038341e-18 6.087614e-01
    outer loop
      vertex   1.374815e+00 6.032500e+01 -7.937500e-01
      vertex   1.122532e+00 0.000000e+00 -1.122532e+00
      vertex   1.374815e+00 0.000000e+00 -7.937500e-01
    endloop
  endfacet
  facet normal -9.238795e-01 -5.976113e-18 3.826834e-01
    outer loop
      vertex   1.374815e+00 6.032500e+01 -7.937500e-01
      vertex   1.374815e+00 0.000000e+00 -7.937500e-01
      vertex   1.533407e+00 6.032500e+01 -4.108752e-01
    endloop
  endfacet
  facet normal -9.238795e-01 8.251290e-19 3.826834e-01
    outer loop
      vertex   1.533407e+00 6.032500e+01 -4.108752e-01
      vertex   1.374815e+00 0.000000e+00 -7.937500e-01
      vertex   1.533407e+00 0.000000e+00 -4.108752e-01
    endloop
  endfacet
  facet normal -9.914449e-01 -2.207991e-18 1.305262e-01
    outer loop
      vertex   1.533407e+00 6.032500e+01 -4.108752e-01
      vertex   1.533407e+00 0.000000e+00 -4.108752e-01
      vertex   1.587500e+00 6.032500e+01 0.000000e+00
    endloop
  endfacet
  facet normal -9.914449e-01 0.000000e+00 1.305262e-01
    outer loop
      vertex   1.587500e+00 6.032500e+01 0.000000e+00
      vertex   1.533407e+00 0.000000e+00 -4.108752e-01
      vertex   1.587500e+00 0.000000e+00 0.000000e+00
    endloop
  endfacet
  facet normal -9.914449e-01 -0.000000e+00 -1.305262e-01
    outer loop
      vertex   1.587500e+00 6.032500e+01 0.000000e+00
      vertex   1.587500e+00 0.000000e+00 0.000000e+00
      vertex   1.533407e+00 6.032500e+01 4.108752e-01
    endloop
  endfacet
  facet normal -9.914449e-01 2.207991e-18 -1.305262e-01
    outer loop
      vertex   1.533407e+00 6.032500e+01 4.108752e-01
      vertex   1.587500e+00 0.000000e+00 0.000000e+00
      vertex   1.533407e+00 0.000000e+00 4.108752e-01
    endloop
  endfacet
  facet normal -9.238795e-01 -8.251290e-19 -3.826834e-01
    outer loop
      vertex   1.533407e+00 6.032500e+01 4.108752e-01
      vertex   1.533407e+00 0.000000e+00 4.108752e-01
      vertex   1.374815e+00 6.032500e+01 7.937500e-01
    endloop
  endfacet
  facet normal -9.238795e-01 5.976113e-18 -3.826834e-01
    outer loop
      vertex   1.374815e+00 6.032500e+01 7.937500e-01
      vertex   1.533407e+00 0.000000e+00 4.108752e-01
      vertex   1.374815e+00 0.000000e+00 7.937500e-01
    endloop
  endfacet
  facet normal -7.933533e-01 2.038341e-18 -6.087614e-01
    outer loop
      vertex   1.374815e+00 6.032500e+01 7.937500e-01
      vertex   1.374815e+00 0.000000e+00 7.937500e-01
      vertex   1.122532e+00 6.032500e+01 1.122532e+00
    endloop
  endfacet
  facet normal -7.933533e-01 1.358894e-18 -6.087614e-01
    outer loop
      vertex   1.122532e+00 6.032500e+01 1.122532e+00
      vertex   1.374815e+00 0.000000e+00 7.937500e-01
      vertex   1.122532e+00 0.000000e+00 1.122532e+00
    endloop
  endfacet
  facet normal -6.087614e-01 -1.358894e-18 -7.933533e-01
    outer loop
      vertex   1.122532e+00 6.032500e+01 1.122532e+00
      vertex   1.122532e+00 0.000000e+00 1.122532e+00
      vertex   7.937500e-01 6.032500e+01 1.374815e+00
    endloop
  endfacet
  facet normal -6.087614e-01 -9.179746e-19 -7.933533e-01
    outer loop
      vertex   7.937500e-01 6.032500e+01 1.374815e+00
      vertex   1.122532e+00 0.000000e+00 1.122532e+00
      vertex   7.937500e-01 0.000000e+00 1.374815e+00
    endloop
  endfacet
  facet normal -3.826834e-01 -5.271821e-18 -9.238795e-01
    outer loop
      vertex   7.937500e-01 6.032500e+01 1.374815e+00
      vertex   7.937500e-01 0.000000e+00 1.374815e+00
      vertex   4.108752e-01 6.032500e+01 1.533407e+00
    endloop
  endfacet
  facet normal -3.826834e-01 3.290150e-18 -9.238795e-01
    outer loop
      vertex   4.108752e-01 6.032500e+01 1.533407e+00
      vertex   7.937500e-01 0.000000e+00 1.374815e+00
      vertex   4.108752e-01 0.000000e+00 1.533407e+00
    endloop
  endfacet
  facet normal -1.305262e-01 -1.367219e-18 -9.914449e-01
    outer loop
      vertex   4.108752e-01 6.032500e+01 1.533407e+00
      vertex   4.108752e-01 0.000000e+00 1.533407e+00
      vertex   9.720634e-17 6.032500e+01 1.587500e+00
    endloop
  endfacet
  facet normal -1.305262e-01 -0.000000e+00 -9.914449e-01
    outer loop
      vertex   9.720634e-17 6.032500e+01 1.587500e+00
      vertex   4.108752e-01 0.000000e+00 1.533407e+00
      vertex   9.720634e-17 0.000000e+00 1.587500e+00
    endloop
  endfacet
  facet normal 1.305262e-01 0.000000e+00 -9.914449e-01
    outer loop
      vertex   9.720634e-17 6.032500e+01 1.587500e+00
      vertex   9.720634e-17 0.000000e+00 1.587500e+00
      vertex   -4.108752e-01 6.032500e+01 1.533407e+00
    endloop
  endfacet
  facet normal 1.305262e-01 1.967770e-18 -9.914449e-01
    outer loop
      vertex   -4.108752e-01 6.032500e+01 1.533407e+00
      vertex   9.720634e-17 0.000000e+00 1.587500e+00
      vertex   -4.108752e-01 0.000000e+00 1.533407e+00
    endloop
  endfacet
  facet normal 3.826834e-01 -1.529421e-18 -9.238795e-01
    outer loop
      vertex   -4.108752e-01 6.032500e+01 1.533407e+00
      vertex   -4.108752e-01 0.000000e+00 1.533407e+00
      vertex   -7.937500e-01 6.032500e+01 1.374815e+00
    endloop
  endfacet
  facet normal 3.826834e-01 -1.650258e-18 -9.238795e-01
    outer loop
      vertex   -7.937500e-01 6.032500e+01 1.374815e+00
      vertex   -4.108752e-01 0.000000e+00 1.533407e+00
      vertex   -7.937500e-01 0.000000e+00 1.374815e+00
    endloop
  endfacet
  facet normal 6.087614e-01 -7.604036e-18 -7.933533e-01
    outer loop
      vertex   -7.937500e-01 6.032500e+01 1.374815e+00
      vertex   -7.937500e-01 0.000000e+00 1.374815e+00
      vertex   -1.122532e+00 6.032500e+01 1.122532e+00
    endloop
  endfacet
  facet normal 6.087614e-01 0.000000e+00 -7.933533e-01
    outer loop
      vertex   -1.122532e+00 6.032500e+01 1.122532e+00
      vertex   -7.937500e-01 0.000000e+00 1.374815e+00
      vertex   -1.122532e+00 0.000000e+00 1.122532e+00
    endloop
  endfacet
  facet normal 7.933533e-01 0.000000e+00 -6.087614e-01
    outer loop
      vertex   -1.122532e+00 6.032500e+01 1.122532e+00
      vertex   -1.122532e+00 0.000000e+00 1.122532e+00
      vertex   -1.374815e+00 6.032500e+01 7.937500e-01
    endloop
  endfacet
  facet normal 7.933533e-01 -9.179746e-19 -6.087614e-01
    outer loop
      vertex   -1.374815e+00 6.032500e+01 7.937500e-01
      vertex   -1.122532e+00 0.000000e+00 1.122532e+00
      vertex   -1.374815e+00 0.000000e+00 7.937500e-01
    endloop
  endfacet
  facet normal 9.238795e-01 -5.271821e-18 -3.826834e-01
    outer loop
      vertex   -1.374815e+00 6.032500e+01 7.937500e-01
      vertex   -1.374815e+00 0.000000e+00 7.937500e-01
      vertex   -1.533407e+00 6.032500e+01 4.108752e-01
    endloop
  endfacet
  facet normal 9.238795e-01 4.930042e-18 -3.826834e-01
    outer loop
      vertex   -1.533407e+00 6.032500e+01 4.108752e-01
      vertex   -1.374815e+00 0.000000e+00 7.937500e-01
      vertex   -1.533407e+00 0.000000e+00 4.108752e-01
    endloop
  endfacet
  facet normal -9.914449e-01 -3.363091e-18 -1.305262e-01
    outer loop
      vertex   -3.066814e+00 6.032500e+01 -8.217505e-01
      vertex   -3.066814e+00 0.000000e+00 -8.217505e-01
      vertex   -3.175000e+00 6.032500e+01 3.888254e-16
    endloop
  endfacet
  facet normal -9.914449e-01 -0.000000e+00 -1.305262e-01
    outer loop
      vertex   -3.175000e+00 6.032500e+01 3.888254e-16
      vertex   -3.066814e+00 0.000000e+00 -8.217505e-01
      vertex   -3.175000e+00 0.000000e+00 3.888254e-16
    endloop
  endfacet
  facet normal -9.914449e-01 0.000000e+00 1.305262e-01
    outer loop
      vertex   -3.175000e+00 6.032500e+01 3.888254e-16
      vertex   -3.175000e+00 0.000000e+00 3.888254e-16
      vertex   -3.066814e+00 6.032500e+01 8.217505e-01
    endloop
  endfacet
  facet normal -9.914449e-01 3.363091e-18 1.305262e-01
    outer loop
      vertex   -3.066814e+00 6.032500e+01 8.217505e-01
      vertex   -3.175000e+00 0.000000e+00 3.888254e-16
      vertex   -3.066814e+00 0.000000e+00 8.217505e-01
    endloop
  endfacet
  facet normal -9.238795e-01 9.860084e-18 3.826834e-01
    outer loop
      vertex   -3.066814e+00 6.032500e+01 8.217505e-01
      vertex   -3.066814e+00 0.000000e+00 8.217505e-01
      vertex   -2.749631e+00 6.032500e+01 1.587500e+00
    endloop
  endfacet
  facet normal -9.238795e-01 -1.054364e-17 3.826834e-01
    outer loop
      vertex   -2.749631e+00 6.032500e+01 1.587500e+00
      vertex   -3.066814e+00 0.000000e+00 8.217505e-01
      vertex   -2.749631e+00 0.000000e+00 1.587500e+00
    endloop
  endfacet
  facet normal -7.933533e-01 -1.835949e-18 6.087614e-01
    outer loop
      vertex   -2.749631e+00 6.032500e+01 1.587500e+00
      vertex   -2.749631e+00 0.000000e+00 1.587500e+00
      vertex   -2.245064e+00 6.032500e+01 2.245064e+00
    endloop
  endfacet
  facet normal -7.933533e-01 0.000000e+00 6.087614e-01
    outer loop
      vertex   -2.245064e+00 6.032500e+01 2.245064e+00
      vertex   -2.749631e+00 0.000000e+00 1.587500e+00
      vertex   -2.245064e+00 0.000000e+00 2.245064e+00
    endloop
  endfacet
  facet normal -6.087614e-01 0.000000e+00 7.933533e-01
    outer loop
      vertex   -2.245064e+00 6.032500e+01 2.245064e+00
      vertex   -2.245064e+00 0.000000e+00 2.245064e+00
      vertex   -1.587500e+00 6.032500e+01 2.749631e+00
    endloop
  endfacet
  facet normal -6.087614e-01 -1.520807e-17 7.933533e-01
    outer loop
      vertex   -1.587500e+00 6.032500e+01 2.749631e+00
      vertex   -2.245064e+00 0.000000e+00 2.245064e+00
      vertex   -1.587500e+00 0.000000e+00 2.749631e+00
    endloop
  endfacet
  facet normal -3.826834e-01 -3.300516e-18 9.238795e-01
    outer loop
      vertex   -1.587500e+00 6.032500e+01 2.749631e+00
      vertex   -1.587500e+00 0.000000e+00 2.749631e+00
      vertex   -8.217505e-01 6.032500e+01 3.066814e+00
    endloop
  endfacet
  facet normal -3.826834e-01 -3.058841e-18 9.238795e-01
    outer loop
      vertex   -8.217505e-01 6.032500e+01 3.066814e+00
      vertex   -1.587500e+00 0.000000e+00 2.749631e+00
      vertex   -8.217505e-01 0.000000e+00 3.066814e+00
    endloop
  endfacet
  facet normal -1.305262e-01 3.935541e-18 9.914449e-01
    outer loop
      vertex   -8.217505e-01 6.032500e+01 3.066814e+00
      vertex   -8.217505e-01 0.000000e+00 3.066814e+00
      vertex   1.944127e-16 6.032500e+01 3.175000e+00
    endloop
  endfacet
  facet normal -1.305262e-01 0.000000e+00 9.914449e-01
    outer loop
      vertex   1.944127e-16 6.032500e+01 3.175000e+00
      vertex   -8.217505e-01 0.000000e+00 3.066814e+00
      vertex   1.944127e-16 0.000000e+00 3.175000e+00
    endloop
  endfacet
  facet normal 1.305262e-01 0.000000e+00 9.914449e-01
    outer loop
      vertex   1.944127e-16 6.032500e+01 3.175000e+00
      vertex   1.944127e-16 0.000000e+00 3.175000e+00
      vertex   8.217505e-01 6.032500e+01 3.066814e+00
    endloop
  endfacet
  facet normal 1.305262e-01 -2.734437e-18 9.914449e-01
    outer loop
      vertex   8.217505e-01 6.032500e+01 3.066814e+00
      vertex   1.944127e-16 0.000000e+00 3.175000e+00
      vertex   8.217505e-01 0.000000e+00 3.066814e+00
    endloop
  endfacet
  facet normal 3.826834e-01 6.580300e-18 9.238795e-01
    outer loop
      vertex   8.217505e-01 6.032500e+01 3.066814e+00
      vertex   8.217505e-01 0.000000e+00 3.066814e+00
      vertex   1.587500e+00 6.032500e+01 2.749631e+00
    endloop
  endfacet
  facet normal 3.826834e-01 -1.054364e-17 9.238795e-01
    outer loop
      vertex   1.587500e+00 6.032500e+01 2.749631e+00
      vertex   8.217505e-01 0.000000e+00 3.066814e+00
      vertex   1.587500e+00 0.000000e+00 2.749631e+00
    endloop
  endfacet
  facet normal 6.087614e-01 -1.835949e-18 7.933533e-01
    outer loop
      vertex   1.587500e+00 6.032500e+01 2.749631e+00
      vertex   1.587500e+00 0.000000e+00 2.749631e+00
      vertex   2.245064e+00 6.032500e+01 2.245064e+00
    endloop
  endfacet
  facet normal 6.087614e-01 -2.717788e-18 7.933533e-01
    outer loop
      vertex   2.245064e+00 6.032500e+01 2.245064e+00
      vertex   1.587500e+00 0.000000e+00 2.749631e+00
      vertex   2.245064e+00 0.000000e+00 2.245064e+00
    endloop
  endfacet
  facet normal 7.933533e-01 2.717788e-18 6.087614e-01
    outer loop
      vertex   2.245064e+00 6.032500e+01 2.245064e+00
      vertex   2.245064e+00 0.000000e+00 2.245064e+00
      vertex   2.749631e+00 6.032500e+01 1.587500e+00
    endloop
  endfacet
  facet normal 7.933533e-01 4.076682e-18 6.087614e-01
    outer loop
      vertex   2.749631e+00 6.032500e+01 1.587500e+00
      vertex   2.245064e+00 0.000000e+00 2.245064e+00
      vertex   2.749631e+00 0.000000e+00 1.587500e+00
    endloop
  endfacet
  facet normal 9.238795e-01 1.195223e-17 3.826834e-01
    outer loop
      vertex   2.749631e+00 6.032500e+01 1.587500e+00
      vertex   2.749631e+00 0.000000e+00 1.587500e+00
      vertex   3.066814e+00 6.032500e+01 8.217505e-01
    endloop
  endfacet
  facet normal 9.238795e-01 -1.650258e-18 3.826834e-01
    outer loop
      vertex   3.066814e+00 6.032500e+01 8.217505e-01
      vertex   2.749631e+00 0.000000e+00 1.587500e+00
      vertex   3.066814e+00 0.000000e+00 8.217505e-01
    endloop
  endfacet
  facet normal 9.914449e-01 4.415983e-18 1.305262e-01
    outer loop
      vertex   3.066814e+00 6.032500e+01 8.217505e-01
      vertex   3.066814e+00 0.000000e+00 8.217505e-01
      vertex   3.175000e+00 6.032500e+01 0.000000e+00
    endloop
  endfacet
  facet normal 9.914449e-01 0.000000e+00 1.305262e-01
    outer loop
      vertex   3.175000e+00 6.032500e+01 0.000000e+00
      vertex   3.066814e+00 0.000000e+00 8.217505e-01
      vertex   3.175000e+00 0.000000e+00 0.000000e+00
    endloop
  endfacet
  facet normal 9.914449e-01 0.000000e+00 -1.305262e-01
    outer loop
      vertex   3.175000e+00 6.032500e+01 0.000000e+00
      vertex   3.175000e+00 0.000000e+00 0.000000e+00
      vertex   3.066814e+00 6.032500e+01 -8.217505e-01
    endloop
  endfacet
  facet normal 9.914449e-01 -4.415983e-18 -1.305262e-01
    outer loop
      vertex   3.066814e+00 6.032500e+01 -8.217505e-01
      vertex   3.175000e+00 0.000000e+00 0.000000e+00
      vertex   3.066814e+00 0.000000e+00 -8.217505e-01
    endloop
  endfacet
  facet normal 9.238795e-01 1.650258e-18 -3.826834e-01
    outer loop
      vertex   3.066814e+00 6.032500e+01 -8.217505e-01
      vertex   3.066814e+00 0.000000e+00 -8.217505e-01
      vertex   2.749631e+00 6.032500e+01 -1.587500e+00
    endloop
  endfacet
  facet normal 9.238795e-01 -1.195223e-17 -3.826834e-01
    outer loop
      vertex   2.749631e+00 6.032500e+01 -1.587500e+00
      vertex   3.066814e+00 0.000000e+00 -8.217505e-01
      vertex   2.749631e+00 0.000000e+00 -1.587500e+00
    endloop
  endfacet
  facet normal 7.933533e-01 -4.076682e-18 -6.087614e-01
    outer loop
      vertex   2.749631e+00 6.032500e+01 -1.587500e+00
      vertex   2.749631e+00 0.000000e+00 -1.587500e+00
      vertex   2.245064e+00 6.032500e+01 -2.245064e+00
    endloop
  endfacet
  facet normal 7.933533e-01 -2.717788e-18 -6.087614e-01
    outer loop
      vertex   2.245064e+00 6.032500e+01 -2.245064e+00
      vertex   2.749631e+00 0.000000e+00 -1.587500e+00
      vertex   2.245064e+00 0.000000e+00 -2.245064e+00
    endloop
  endfacet
  facet normal 6.087614e-01 2.717788e-18 -7.933533e-01
    outer loop
      vertex   2.245064e+00 6.032500e+01 -2.245064e+00
      vertex   2.245064e+00 0.000000e+00 -2.245064e+00
      vertex   1.587500e+00 6.032500e+01 -2.749631e+00
    endloop
  endfacet
  facet normal 6.087614e-01 1.835949e-18 -7.933533e-01
    outer loop
      vertex   1.587500e+00 6.032500e+01 -2.749631e+00
      vertex   2.245064e+00 0.000000e+00 -2.245064e+00
      vertex   1.587500e+00 0.000000e+00 -2.749631e+00
    endloop
  endfacet
  facet normal 3.826834e-01 1.054364e-17 -9.238795e-01
    outer loop
      vertex   1.587500e+00 6.032500e+01 -2.749631e+00
      vertex   1.587500e+00 0.000000e+00 -2.749631e+00
      vertex   8.217505e-01 6.032500e+01 -3.066814e+00
    endloop
  endfacet
  facet normal 3.826834e-01 -6.580300e-18 -9.238795e-01
    outer loop
      vertex   8.217505e-01 6.032500e+01 -3.066814e+00
      vertex   1.587500e+00 0.000000e+00 -2.749631e+00
      vertex   8.217505e-01 0.000000e+00 -3.066814e+00
    endloop
  endfacet
  facet normal 1.305262e-01 2.734437e-18 -9.914449e-01
    outer loop
      vertex   8.217505e-01 6.032500e+01 -3.066814e+00
      vertex   8.217505e-01 0.000000e+00 -3.066814e+00
      vertex   1.944127e-16 6.032500e+01 -3.175000e+00
    endloop
  endfacet
  facet normal 1.305262e-01 0.000000e+00 -9.914449e-01
    outer loop
      vertex   1.944127e-16 6.032500e+01 -3.175000e+00
      vertex   8.217505e-01 0.000000e+00 -3.066814e+00
      vertex   1.944127e-16 0.000000e+00 -3.175000e+00
    endloop
  endfacet
  facet normal -1.305262e-01 -0.000000e+00 -9.914449e-01
    outer loop
      vertex   1.944127e-16 6.032500e+01 -3.175000e+00
      vertex   1.944127e-16 0.000000e+00 -3.175000e+00
      vertex   -8.217505e-01 6.032500e+01 -3.066814e+00
    endloop
  endfacet
  facet normal -1.305262e-01 -3.935541e-18 -9.914449e-01
    outer loop
      vertex   -8.217505e-01 6.032500e+01 -3.066814e+00
      vertex   1.944127e-16 0.000000e+00 -3.175000e+00
      vertex   -8.217505e-01 0.000000e+00 -3.066814e+00
    endloop
  endfacet
  facet normal -3.826834e-01 3.058841e-18 -9.238795e-01
    outer loop
      vertex   -8.217505e-01 6.032500e+01 -3.066814e+00
      vertex   -8.217505e-01 0.000000e+00 -3.066814e+00
      vertex   -1.587500e+00 6.032500e+01 -2.749631e+00
    endloop
  endfacet
  facet normal -3.826834e-01 3.300516e-18 -9.238795e-01
    outer loop
      vertex   -1.587500e+00 6.032500e+01 -2.749631e+00
      vertex   -8.217505e-01 0.000000e+00 -3.066814e+00
      vertex   -1.587500e+00 0.000000e+00 -2.749631e+00
    endloop
  endfacet
  facet normal -6.087614e-01 1.520807e-17 -7.933533e-01
    outer loop
      vertex   -1.587500e+00 6.032500e+01 -2.749631e+00
      vertex   -1.587500e+00 0.000000e+00 -2.749631e+00
      vertex   -2.245064e+00 6.032500e+01 -2.245064e+00
    endloop
  endfacet
  facet normal -6.087614e-01 -0.000000e+00 -7.933533e-01
    outer loop
      vertex   -2.245064e+00 6.032500e+01 -2.245064e+00
      vertex   -1.587500e+00 0.000000e+00 -2.749631e+00
      vertex   -2.245064e+00 0.000000e+00 -2.245064e+00
    endloop
  endfacet
  facet normal -7.933533e-01 -0.000000e+00 -6.087614e-01
    outer loop
      vertex   -2.245064e+00 6.032500e+01 -2.245064e+00
      vertex   -2.245064e+00 0.000000e+00 -2.245064e+00
      vertex   -2.749631e+00 6.032500e+01 -1.587500e+00
    endloop
  endfacet
  facet normal -7.933533e-01 1.835949e-18 -6.087614e-01
    outer loop
      vertex   -2.749631e+00 6.032500e+01 -1.587500e+00
      vertex   -2.245064e+00 0.000000e+00 -2.245064e+00
      vertex   -2.749631e+00 0.000000e+00 -1.587500e+00
    endloop
  endfacet
  facet normal -9.238795e-01 1.054364e-17 -3.826834e-01
    outer loop
      vertex   -2.749631e+00 6.032500e+01 -1.587500e+00
      vertex   -2.749631e+00 0.000000e+00 -1.587500e+00
      vertex   -3.066814e+00 6.032500e+01 -8.217505e-01
    endloop
  endfacet
  facet normal -9.238795e-01 -9.860084e-18 -3.826834e-01
    outer loop
      vertex   -3.066814e+00 6.032500e+01 -8.217505e-01
      vertex   -2.749631e+00 0.000000e+00 -1.587500e+00
      vertex   -3.066814e+00 0.000000e+00 -8.217505e-01
    endloop
  endfacet
  facet normal -0.000000e+00 -1.000000e+00 0.000000e+00
    outer loop
      vertex   -1.533407e+00 0.000000e+00 4.108752e-01
      vertex   -3.066814e+00 0.000000e+00 8.217505e-01
      vertex   -1.587500e+00 0.000000e+00 1.944127e-16
    endloop
  endfacet
  facet normal 0.000000e+00 -1.000000e+00 0.000000e+00
    outer loop
      vertex   -1.587500e+00 0.000000e+00 1.944127e-16
      vertex   -3.066814e+00 0.000000e+00 8.217505e-01
      vertex   -3.175000e+00 0.000000e+00 3.888254e-16
    endloop
  endfacet
  facet normal -0.000000e+00 -1.000000e+00 0.000000e+00
    outer loop
      vertex   -1.587500e+00 0.000000e+00 1.944127e-16
      vertex   -3.175000e+00 0.000000e+00 3.888254e-16
      vertex   -3.066814e+00 0.000000e+00 -8.217505e-01
    endloop
  endfacet
  facet normal 0.000000e+00 -1.000000e+00 0.000000e+00
    outer loop
      vertex   -3.066814e+00 0.000000e+00 8.217505e-01
      vertex   -1.533407e+00 0.000000e+00 4.108752e-01
      vertex   -2.749631e+00 0.000000e+00 1.587500e+00
    endloop
  endfacet
  facet normal 0.000000e+00 -1.000000e+00 0.000000e+00
    outer loop
      vertex   -2.749631e+00 0.000000e+00 1.587500e+00
      vertex   -1.533407e+00 0.000000e+00 4.108752e-01
      vertex   -1.374815e+00 0.000000e+00 7.937500e-01
    endloop
  endfacet
  facet normal 0.000000e+00 -1.000000e+00 0.000000e+00
    outer loop
      vertex   -2.749631e+00 0.000000e+00 1.587500e+00
      vertex   -1.374815e+00 0.000000e+00 7.937500e-01
      vertex   -2.245064e+00 0.000000e+00 2.245064e+00
    endloop
  endfacet
  facet normal 0.000000e+00 -1.000000e+00 0.000000e+00
    outer loop
      vertex   -2.245064e+00 0.000000e+00 2.245064e+00
      vertex   -1.374815e+00 0.000000e+00 7.937500e-01
      vertex   -1.122532e+00 0.000000e+00 1.122532e+00
    endloop
  endfacet
  facet normal 0.000000e+00 -1.000000e+00 0.000000e+00
    outer loop
      vertex   -2.245064e+00 0.000000e+00 2.245064e+00
      vertex   -1.122532e+00 0.000000e+00 1.122532e+00
      vertex   -1.587500e+00 0.000000e+00 2.749631e+00
    endloop
  endfacet
  facet normal 0.000000e+00 -1.000000e+00 0.000000e+00
    outer loop
      vertex   -1.587500e+00 0.000000e+00 2.749631e+00
      vertex   -1.122532e+00 0.000000e+00 1.122532e+00
      vertex   -7.937500e-01 0.000000e+00 1.374815e+00
    endloop
  endfacet
  facet normal 0.000000e+00 -1.000000e+00 0.000000e+00
    outer loop
      vertex   -1.587500e+00 0.000000e+00 2.749631e+00
      vertex   -7.937500e-01 0.000000e+00 1.374815e+00
      vertex   -8.217505e-01 0.000000e+00 3.066814e+00
    endloop
  endfacet
  facet normal 0.000000e+00 -1.000000e+00 0.000000e+00
    outer loop
      vertex   -8.217505e-01 0.000000e+00 3.066814e+00
      vertex   -7.937500e-01 0.000000e+00 1.374815e+00
      vertex   -4.108752e-01 0.000000e+00 1.533407e+00
    endloop
  endfacet
  facet normal 0.000000e+00 -1.000000e+00 0.000000e+00
    outer loop
      vertex   -8.217505e-01 0.000000e+00 3.066814e+00
      vertex   -4.108752e-01 0.000000e+00 1.533407e+00
      vertex   1.944127e-16 0.000000e+00 3.175000e+00
    endloop
  endfacet
  facet normal 0.000000e+00 -1.000000e+00 0.000000e+00
    outer loop
      vertex   1.944127e-16 0.000000e+00 3.175000e+00
      vertex   -4.108752e-01 0.000000e+00 1.533407e+00
      vertex   9.720634e-17 0.000000e+00 1.587500e+00
    endloop
  endfacet
  facet normal 0.000000e+00 -1.000000e+00 -0.000000e+00
    outer loop
      vertex   1.944127e-16 0.000000e+00 3.175000e+00
      vertex   9.720634e-17 0.000000e+00 1.587500e+00
      vertex   4.108752e-01 0.000000e+00 1.533407e+00
    endloop
  endfacet
  facet normal 0.000000e+00 -1.000000e+00 0.000000e+00
    outer loop
      vertex   1.944127e-16 0.000000e+00 3.175000e+00
      vertex   4.108752e-01 0.000000e+00 1.533407e+00
      vertex   8.217505e-01 0.000000e+00 3.066814e+00
    endloop
  endfacet
  facet normal 0.000000e+00 -1.000000e+00 0.000000e+00
    outer loop
      vertex   8.217505e-01 0.000000e+00 3.066814e+00
      vertex   4.108752e-01 0.000000e+00 1.533407e+00
      vertex   7.937500e-01 0.000000e+00 1.374815e+00
    endloop
  endfacet
  facet normal 0.000000e+00 -1.000000e+00 -0.000000e+00
    outer loop
      vertex   8.217505e-01 0.000000e+00 3.066814e+00
      vertex   7.937500e-01 0.000000e+00 1.374815e+00
      vertex   1.587500e+00 0.000000e+00 2.749631e+00
    endloop
  endfacet
  facet normal 0.000000e+00 -1.000000e+00 0.000000e+00
    outer loop
      vertex   1.587500e+00 0.000000e+00 2.749631e+00
      vertex   7.937500e-01 0.000000e+00 1.374815e+00
      vertex   1.122532e+00 0.000000e+00 1.122532e+00
    endloop
  endfacet
  facet normal 0.000000e+00 -1.000000e+00 -0.000000e+00
    outer loop
      vertex   1.587500e+00 0.000000e+00 2.749631e+00
      vertex   1.122532e+00 0.000000e+00 1.122532e+00
      vertex   2.245064e+00 0.000000e+00 2.245064e+00
    endloop
  endfacet
  facet normal 0.000000e+00 -1.000000e+00 0.000000e+00
    outer loop
      vertex   2.245064e+00 0.000000e+00 2.245064e+00
      vertex   1.122532e+00 0.000000e+00 1.122532e+00
      vertex   1.374815e+00 0.000000e+00 7.937500e-01
    endloop
  endfacet
  facet normal 0.000000e+00 -1.000000e+00 -0.000000e+00
    outer loop
      vertex   2.245064e+00 0.000000e+00 2.245064e+00
      vertex   1.374815e+00 0.000000e+00 7.937500e-01
      vertex   2.749631e+00 0.000000e+00 1.587500e+00
    endloop
  endfacet
  facet normal 0.000000e+00 -1.000000e+00 0.000000e+00
    outer loop
      vertex   2.749631e+00 0.000000e+00 1.587500e+00
      vertex   1.374815e+00 0.000000e+00 7.937500e-01
      vertex   1.533407e+00 0.000000e+00 4.108752e-01
    endloop
  endfacet
  facet normal 0.000000e+00 -1.000000e+00 -0.000000e+00
    outer loop
      vertex   2.749631e+00 0.000000e+00 1.587500e+00
      vertex   1.533407e+00 0.000000e+00 4.108752e-01
      vertex   3.066814e+00 0.000000e+00 8.217505e-01
    endloop
  endfacet
  facet normal 0.000000e+00 -1.000000e+00 0.000000e+00
    outer loop
      vertex   3.066814e+00 0.000000e+00 8.217505e-01
      vertex   1.533407e+00 0.000000e+00 4.108752e-01
      vertex   1.587500e+00 0.000000e+00 0.000000e+00
    endloop
  endfacet
  facet normal 0.000000e+00 -1.000000e+00 -0.000000e+00
    outer loop
      vertex   3.066814e+00 0.000000e+00 8.217505e-01
      vertex   1.587500e+00 0.000000e+00 0.000000e+00
      vertex   3.175000e+00 0.000000e+00 0.000000e+00
    endloop
  endfacet
  facet normal -0.000000e+00 -1.000000e+00 0.000000e+00
    outer loop
      vertex   3.175000e+00 0.000000e+00 0.000000e+00
      vertex   1.587500e+00 0.000000e+00 0.000000e+00
      vertex   3.066814e+00 0.000000e+00 -8.217505e-01
    endloop
  endfacet
  facet normal 0.000000e+00 -1.000000e+00 0.000000e+00
    outer loop
      vertex   3.066814e+00 0.000000e+00 -8.217505e-01
      vertex   1.587500e+00 0.000000e+00 0.000000e+00
      vertex   1.533407e+00 0.000000e+00 -4.108752e-01
    endloop
  endfacet
  facet normal -0.000000e+00 -1.000000e+00 0.000000e+00
    outer loop
      vertex   3.066814e+00 0.000000e+00 -8.217505e-01
      vertex   1.533407e+00 0.000000e+00 -4.108752e-01
      vertex   2.749631e+00 0.000000e+00 -1.587500e+00
    endloop
  endfacet
  facet normal 0.000000e+00 -1.000000e+00 0.000000e+00
    outer loop
      vertex   2.749631e+00 0.000000e+00 -1.587500e+00
      vertex   1.533407e+00 0.000000e+00 -4.108752e-01
      vertex   1.374815e+00 0.000000e+00 -7.937500e-01
    endloop
  endfacet
  facet normal -0.000000e+00 -1.000000e+00 0.000000e+00
    outer loop
      vertex   2.749631e+00 0.000000e+00 -1.587500e+00
      vertex   1.374815e+00 0.000000e+00 -7.937500e-01
      vertex   2.245064e+00 0.000000e+00 -2.245064e+00
    endloop
  endfacet
  facet normal 0.000000e+00 -1.000000e+00 0.000000e+00
    outer loop
      vertex   2.245064e+00 0.000000e+00 -2.245064e+00
      vertex   1.374815e+00 0.000000e+00 -7.937500e-01
      vertex   1.122532e+00 0.000000e+00 -1.122532e+00
    endloop
  endfacet
  facet normal -0.000000e+00 -1.000000e+00 0.000000e+00
    outer loop
      vertex   2.245064e+00 0.000000e+00 -2.245064e+00
      vertex   1.122532e+00 0.000000e+00 -1.122532e+00
      vertex   1.587500e+00 0.000000e+00 -2.749631e+00
    endloop
  endfacet
  facet normal 0.000000e+00 -1.000000e+00 0.000000e+00
    outer loop
      vertex   1.587500e+00 0.000000e+00 -2.749631e+00
      vertex   1.122532e+00 0.000000e+00 -1.122532e+00
      vertex   7.937500e-01 0.000000e+00 -1.374815e+00
    endloop
  endfacet
  facet normal -0.000000e+00 -1.000000e+00 0.000000e+00
    outer loop
      vertex   1.587500e+00 0.000000e+00 -2.749631e+00
      vertex   7.937500e-01 0.000000e+00 -1.374815e+00
      vertex   8.217505e-01 0.000000e+00 -3.066814e+00
    endloop
  endfacet
  facet normal 0.000000e+00 -1.000000e+00 0.000000e+00
    outer loop
      vertex   8.217505e-01 0.000000e+00 -3.066814e+00
      vertex   7.937500e-01 0.000000e+00 -1.374815e+00
      vertex   4.108752e-01 0.000000e+00 -1.533407e+00
    endloop
  endfacet
  facet normal -0.000000e+00 -1.000000e+00 0.000000e+00
    outer loop
      vertex   8.217505e-01 0.000000e+00 -3.066814e+00
      vertex   4.108752e-01 0.000000e+00 -1.533407e+00
      vertex   1.944127e-16 0.000000e+00 -3.175000e+00
    endloop
  endfacet
  facet normal 0.000000e+00 -1.000000e+00 0.000000e+00
    outer loop
      vertex   1.944127e-16 0.000000e+00 -3.175000e+00
      vertex   4.108752e-01 0.000000e+00 -1.533407e+00
      vertex   9.720634e-17 0.000000e+00 -1.587500e+00
    endloop
  endfacet
  facet normal 0.000000e+00 -1.000000e+00 0.000000e+00
    outer loop
      vertex   1.944127e-16 0.000000e+00 -3.175000e+00
      vertex   9.720634e-17 0.000000e+00 -1.587500e+00
      vertex   -8.217505e-01 0.000000e+00 -3.066814e+00
    endloop
  endfacet
  facet normal 0.000000e+00 -1.000000e+00 0.000000e+00
    outer loop
      vertex   -8.217505e-01 0.000000e+00 -3.066814e+00
      vertex   9.720634e-17 0.000000e+00 -1.587500e+00
      vertex   -4.108752e-01 0.000000e+00 -1.533407e+00
    endloop
  endfacet
  facet normal 0.000000e+00 -1.000000e+00 0.000000e+00
    outer loop
      vertex   -8.217505e-01 0.000000e+00 -3.066814e+00
      vertex   -4.108752e-01 0.000000e+00 -1.533407e+00
      vertex   -7.937500e-01 0.000000e+00 -1.374815e+00
    endloop
  endfacet
  facet normal 0.000000e+00 -1.000000e+00 0.000000e+00
    outer loop
      vertex   -8.217505e-01 0.000000e+00 -3.066814e+00
      vertex   -7.937500e-01 0.000000e+00 -1.374815e+00
      vertex   -1.587500e+00 0.000000e+00 -2.749631e+00
    endloop
  endfacet
  facet normal 0.000000e+00 -1.000000e+00 0.000000e+00
    outer loop
      vertex   -1.587500e+00 0.000000e+00 -2.749631e+00
      vertex   -7.937500e-01 0.000000e+00 -1.374815e+00
      vertex   -1.122532e+00 0.000000e+00 -1.122532e+00
    endloop
  endfacet
  facet normal 0.000000e+00 -1.000000e+00 0.000000e+00
    outer loop
      vertex   -1.587500e+00 0.000000e+00 -2.749631e+00
      vertex   -1.122532e+00 0.000000e+00 -1.122532e+00
      vertex   -2.245064e+00 0.000000e+00 -2.245064e+00
    endloop
  endfacet
  facet normal 0.000000e+00 -1.000000e+00 0.000000e+00
    outer loop
      vertex   -2.245064e+00 0.000000e+00 -2.245064e+00
      vertex   -1.122532e+00 0.000000e+00 -1.122532e+00
      vertex   -1.374815e+00 0.000000e+00 -7.937500e-01
    endloop
  endfacet
  facet normal 0.000000e+00 -1.000000e+00 0.000000e+00
    outer loop
      vertex   -2.245064e+00 0.000000e+00 -2.245064e+00
      vertex   -1.374815e+00 0.000000e+00 -7.937500e-01
      vertex   -2.749631e+00 0.000000e+00 -1.587500e+00
    endloop
  endfacet
  facet normal 0.000000e+00 -1.000000e+00 0.000000e+00
    outer loop
      vertex   -2.749631e+00 0.000000e+00 -1.587500e+00
      vertex   -1.374815e+00 0.000000e+00 -7.937500e-01
      vertex   -1.533407e+00 0.000000e+00 -4.108752e-01
    endloop
  endfacet
  facet normal 0.000000e+00 -1.000000e+00 0.000000e+00
    outer loop
      vertex   -2.749631e+00 0.000000e+00 -1.587500e+00
      vertex   -1.533407e+00 0.000000e+00 -4.108752e-01
      vertex   -3.066814e+00 0.000000e+00 -8.217505e-01
    endloop
  endfacet
  facet normal 0.000000e+00 -1.000000e+00 0.000000e+00
    outer loop
      vertex   -3.066814e+00 0.000000e+00 -8.217505e-01
      vertex   -1.533407e+00 0.000000e+00 -4.108752e-01
      vertex   -1.587500e+00 0.000000e+00 1.944127e-16
    endloop
  endfacet
  facet normal 0.000000e+00 1.000000e+00 0.000000e+00
    outer loop
      vertex   -1.533407e+00 6.032500e+01 -4.108752e-01
      vertex   -3.066814e+00 6.032500e+01 -8.217505e-01
      vertex   -1.587500e+00 6.032500e+01 1.944127e-16
    endloop
  endfacet
  facet normal 0.000000e+00 1.000000e+00 0.000000e+00
    outer loop
      vertex   -1.587500e+00 6.032500e+01 1.944127e-16
      vertex   -3.066814e+00 6.032500e+01 -8.217505e-01
      vertex   -3.175000e+00 6.032500e+01 3.888254e-16
    endloop
  endfacet
  facet normal 0.000000e+00 1.000000e+00 0.000000e+00
    outer loop
      vertex   -1.587500e+00 6.032500e+01 1.944127e-16
      vertex   -3.175000e+00 6.032500e+01 3.888254e-16
      vertex   -3.066814e+00 6.032500e+01 8.217505e-01
    endloop
  endfacet
  facet normal -0.000000e+00 1.000000e+00 0.000000e+00
    outer loop
      vertex   -3.066814e+00 6.032500e+01 -8.217505e-01
      vertex   -1.533407e+00 6.032500e+01 -4.108752e-01
      vertex   -2.749631e+00 6.032500e+01 -1.587500e+00
    endloop
  endfacet
  facet normal 0.000000e+00 1.000000e+00 0.000000e+00
    outer loop
      vertex   -2.749631e+00 6.032500e+01 -1.587500e+00
      vertex   -1.533407e+00 6.032500e+01 -4.108752e-01
      vertex   -1.374815e+00 6.032500e+01 -7.937500e-01
    endloop
  endfacet
  facet normal -0.000000e+00 1.000000e+00 0.000000e+00
    outer loop
      vertex   -2.749631e+00 6.032500e+01 -1.587500e+00
      vertex   -1.374815e+00 6.032500e+01 -7.937500e-01
      vertex   -2.245064e+00 6.032500e+01 -2.245064e+00
    endloop
  endfacet
  facet normal 0.000000e+00 1.000000e+00 0.000000e+00
    outer loop
      vertex   -2.245064e+00 6.032500e+01 -2.245064e+00
      vertex   -1.374815e+00 6.032500e+01 -7.937500e-01
      vertex   -1.122532e+00 6.032500e+01 -1.122532e+00
    endloop
  endfacet
  facet normal -0.000000e+00 1.000000e+00 0.000000e+00
    outer loop
      vertex   -2.245064e+00 6.032500e+01 -2.245064e+00
      vertex   -1.122532e+00 6.032500e+01 -1.122532e+00
      vertex   -1.587500e+00 6.032500e+01 -2.749631e+00
    endloop
  endfacet
  facet normal 0.000000e+00 1.000000e+00 0.000000e+00
    outer loop
      vertex   -1.587500e+00 6.032500e+01 -2.749631e+00
      vertex   -1.122532e+00 6.032500e+01 -1.122532e+00
      vertex   -7.937500e-01 6.032500e+01 -1.374815e+00
    endloop
  endfacet
  facet normal -0.000000e+00 1.000000e+00 0.000000e+00
    outer loop
      vertex   -1.587500e+00 6.032500e+01 -2.749631e+00
      vertex   -7.937500e-01 6.032500e+01 -1.374815e+00
      vertex   -8.217505e-01 6.032500e+01 -3.066814e+00
    endloop
  endfacet
  facet normal 0.000000e+00 1.000000e+00 0.000000e+00
    outer loop
      vertex   -8.217505e-01 6.032500e+01 -3.066814e+00
      vertex   -7.937500e-01 6.032500e+01 -1.374815e+00
      vertex   -4.108752e-01 6.032500e+01 -1.533407e+00
    endloop
  endfacet
  facet normal -0.000000e+00 1.000000e+00 0.000000e+00
    outer loop
      vertex   -8.217505e-01 6.032500e+01 -3.066814e+00
      vertex   -4.108752e-01 6.032500e+01 -1.533407e+00
      vertex   1.944127e-16 6.032500e+01 -3.175000e+00
    endloop
  endfacet
  facet normal 0.000000e+00 1.000000e+00 0.000000e+00
    outer loop
      vertex   1.944127e-16 6.032500e+01 -3.175000e+00
      vertex   -4.108752e-01 6.032500e+01 -1.533407e+00
      vertex   9.720634e-17 6.032500e+01 -1.587500e+00
    endloop
  endfacet
  facet normal 0.000000e+00 1.000000e+00 -0.000000e+00
    outer loop
      vertex   1.944127e-16 6.032500e+01 -3.175000e+00
      vertex   9.720634e-17 6.032500e+01 -1.587500e+00
      vertex   4.108752e-01 6.032500e+01 -1.533407e+00
    endloop
  endfacet
  facet normal 0.000000e+00 1.000000e+00 0.000000e+00
    outer loop
      vertex   1.944127e-16 6.032500e+01 -3.175000e+00
      vertex   4.108752e-01 6.032500e+01 -1.533407e+00
      vertex   8.217505e-01 6.032500e+01 -3.066814e+00
    endloop
  endfacet
  facet normal 0.000000e+00 1.000000e+00 0.000000e+00
    outer loop
      vertex   8.217505e-01 6.032500e+01 -3.066814e+00
      vertex   4.108752e-01 6.032500e+01 -1.533407e+00
      vertex   7.937500e-01 6.032500e+01 -1.374815e+00
    endloop
  endfacet
  facet normal 0.000000e+00 1.000000e+00 -0.000000e+00
    outer loop
      vertex   8.217505e-01 6.032500e+01 -3.066814e+00
      vertex   7.937500e-01 6.032500e+01 -1.374815e+00
      vertex   1.587500e+00 6.032500e+01 -2.749631e+00
    endloop
  endfacet
  facet normal 0.000000e+00 1.000000e+00 0.000000e+00
    outer loop
      vertex   1.587500e+00 6.032500e+01 -2.749631e+00
      vertex   7.937500e-01 6.032500e+01 -1.374815e+00
      vertex   1.122532e+00 6.032500e+01 -1.122532e+00
    endloop
  endfacet
  facet normal 0.000000e+00 1.000000e+00 -0.000000e+00
    outer loop
      vertex   1.587500e+00 6.032500e+01 -2.749631e+00
      vertex   1.122532e+00 6.032500e+01 -1.122532e+00
      vertex   2.245064e+00 6.032500e+01 -2.245064e+00
    endloop
  endfacet
  facet normal 0.000000e+00 1.000000e+00 0.000000e+00
    outer loop
      vertex   2.245064e+00 6.032500e+01 -2.245064e+00
      vertex   1.122532e+00 6.032500e+01 -1.122532e+00
      vertex   1.374815e+00 6.032500e+01 -7.937500e-01
    endloop
  endfacet
  facet normal 0.000000e+00 1.000000e+00 -0.000000e+00
    outer loop
      vertex   2.245064e+00 6.032500e+01 -2.245064e+00
      vertex   1.374815e+00 6.032500e+01 -7.937500e-01
      vertex   2.749631e+00 6.032500e+01 -1.587500e+00
    endloop
  endfacet
  facet normal 0.000000e+00 1.000000e+00 0.000000e+00
    outer loop
      vertex   2.749631e+00 6.032500e+01 -1.587500e+00
      vertex   1.374815e+00 6.032500e+01 -7.937500e-01
      vertex   1.533407e+00 6.032500e+01 -4.108752e-01
    endloop
  endfacet
  facet normal 0.000000e+00 1.000000e+00 -0.000000e+00
    outer loop
      vertex   2.749631e+00 6.032500e+01 -1.587500e+00
      vertex   1.533407e+00 6.032500e+01 -4.108752e-01
      vertex   3.066814e+00 6.032500e+01 -8.217505e-01
    endloop
  endfacet
  facet normal 0.000000e+00 1.000000e+00 0.000000e+00
    outer loop
      vertex   3.066814e+00 6.032500e+01 -8.217505e-01
      vertex   1.533407e+00 6.032500e+01 -4.108752e-01
      vertex   1.587500e+00 6.032500e+01 0.000000e+00
    endloop
  endfacet
  facet normal 0.000000e+00 1.000000e+00 -0.000000e+00
    outer loop
      vertex   3.066814e+00 6.032500e+01 -8.217505e-01
      vertex   1.587500e+00 6.032500e+01 0.000000e+00
      vertex   3.175000e+00 6.032500e+01 0.000000e+00
    endloop
  endfacet
  facet normal 0.000000e+00 1.000000e+00 0.000000e+00
    outer loop
      vertex   3.175000e+00 6.032500e+01 0.000000e+00
      vertex   1.587500e+00 6.032500e+01 0.000000e+00
      vertex   3.066814e+00 6.032500e+01 8.217505e-01
    endloop
  endfacet
  facet normal 0.000000e+00 1.000000e+00 0.000000e+00
    outer loop
      vertex   3.066814e+00 6.032500e+01 8.217505e-01
      vertex   1.587500e+00 6.032500e+01 0.000000e+00
      vertex   1.533407e+00 6.032500e+01 4.108752e-01
    endloop
  endfacet
  facet normal 0.000000e+00 1.000000e+00 0.000000e+00
    outer loop
      vertex   3.066814e+00 6.032500e+01 8.217505e-01
      vertex   1.533407e+00 6.032500e+01 4.108752e-01
      vertex   2.749631e+00 6.032500e+01 1.587500e+00
    endloop
  endfacet
  facet normal 0.000000e+00 1.000000e+00 0.000000e+00
    outer loop
      vertex   2.749631e+00 6.032500e+01 1.587500e+00
      vertex   1.533407e+00 6.032500e+01 4.108752e-01
      vertex   1.374815e+00 6.032500e+01 7.937500e-01
    endloop
  endfacet
  facet normal 0.000000e+00 1.000000e+00 0.000000e+00
    outer loop
      vertex   2.749631e+00 6.032500e+01 1.587500e+00
      vertex   1.374815e+00 6.032500e+01 7.937500e-01
      vertex   2.245064e+00 6.032500e+01 2.245064e+00
    endloop
  endfacet
  facet normal 0.000000e+00 1.000000e+00 0.000000e+00
    outer loop
      vertex   2.245064e+00 6.032500e+01 2.245064e+00
      vertex   1.374815e+00 6.032500e+01 7.937500e-01
      vertex   1.122532e+00 6.032500e+01 1.122532e+00
    endloop
  endfacet
  facet normal 0.000000e+00 1.000000e+00 0.000000e+00
    outer loop
      vertex   2.245064e+00 6.032500e+01 2.245064e+00
      vertex   1.122532e+00 6.032500e+01 1.122532e+00
      vertex   1.587500e+00 6.032500e+01 2.749631e+00
    endloop
  endfacet
  facet normal 0.000000e+00 1.000000e+00 0.000000e+00
    outer loop
      vertex   1.587500e+00 6.032500e+01 2.749631e+00
      vertex   1.122532e+00 6.032500e+01 1.122532e+00
      vertex   7.937500e-01 6.032500e+01 1.374815e+00
    endloop
  endfacet
  facet normal 0.000000e+00 1.000000e+00 0.000000e+00
    outer loop
      vertex   1.587500e+00 6.032500e+01 2.749631e+00
      vertex   7.937500e-01 6.032500e+01 1.374815e+00
      vertex   8.217505e-01 6.032500e+01 3.066814e+00
    endloop
  endfacet
  facet normal 0.000000e+00 1.000000e+00 0.000000e+00
    outer loop
      vertex   8.217505e-01 6.032500e+01 3.066814e+00
      vertex   7.937500e-01 6.032500e+01 1.374815e+00
      vertex   4.108752e-01 6.032500e+01 1.533407e+00
    endloop
  endfacet
  facet normal 0.000000e+00 1.000000e+00 0.000000e+00
    outer loop
      vertex   8.217505e-01 6.032500e+01 3.066814e+00
      vertex   4.108752e-01 6.032500e+01 1.533407e+00
      vertex   1.944127e-16 6.032500e+01 3.175000e+00
    endloop
  endfacet
  facet normal 0.000000e+00 1.000000e+00 0.000000e+00
    outer loop
      vertex   1.944127e-16 6.032500e+01 3.175000e+00
      vertex   4.108752e-01 6.032500e+01 1.533407e+00
      vertex   9.720634e-17 6.032500e+01 1.587500e+00
    endloop
  endfacet
  facet normal 0.000000e+00 1.000000e+00 0.000000e+00
    outer loop
      vertex   1.944127e-16 6.032500e+01 3.175000e+00
      vertex   9.720634e-17 6.032500e+01 1.587500e+00
      vertex   -8.217505e-01 6.032500e+01 3.066814e+00
    endloop
  endfacet
  facet normal 0.000000e+00 1.000000e+00 0.000000e+00
    outer loop
      vertex   -8.217505e-01 6.032500e+01 3.066814e+00
      vertex   9.720634e-17 6.032500e+01 1.587500e+00
      vertex   -4.108752e-01 6.032500e+01 1.533407e+00
    endloop
  endfacet
  facet normal 0.000000e+00 1.000000e+00 0.000000e+00
    outer loop
      vertex   -8.217505e-01 6.032500e+01 3.066814e+00
      vertex   -4.108752e-01 6.032500e+01 1.533407e+00
      vertex   -7.937500e-01 6.032500e+01 1.374815e+00
    endloop
  endfacet
  facet normal 0.000000e+00 1.000000e+00 0.000000e+00
    outer loop
      vertex   -8.217505e-01 6.032500e+01 3.066814e+00
      vertex   -7.937500e-01 6.032500e+01 1.374815e+00
      vertex   -1.587500e+00 6.032500e+01 2.749631e+00
    endloop
  endfacet
  facet normal 0.000000e+00 1.000000e+00 0.000000e+00
    outer loop
      vertex   -1.587500e+00 6.032500e+01 2.749631e+00
      vertex   -7.937500e-01 6.032500e+01 1.374815e+00
      vertex   -1.122532e+00 6.032500e+01 1.122532e+00
    endloop
  endfacet
  facet normal 0.000000e+00 1.000000e+00 0.000000e+00
    outer loop
      vertex   -1.587500e+00 6.032500e+01 2.749631e+00
      vertex   -1.122532e+00 6.032500e+01 1.122532e+00
      vertex   -2.245064e+00 6.032500e+01 2.245064e+00
    endloop
  endfacet
  facet normal 0.000000e+00 1.000000e+00 0.000000e+00
    outer loop
      vertex   -2.245064e+00 6.032500e+01 2.245064e+00
      vertex   -1.122532e+00 6.032500e+01 1.122532e+00
      vertex   -1.374815e+00 6.032500e+01 7.937500e-01
    endloop
  endfacet
  facet normal 0.000000e+00 1.000000e+00 0.000000e+00
    outer loop
      vertex   -2.245064e+00 6.032500e+01 2.245064e+00
      vertex   -1.374815e+00 6.032500e+01 7.937500e-01
      vertex   -2.749631e+00 6.032500e+01 1.587500e+00
    endloop
  endfacet
  facet normal 0.000000e+00 1.000000e+00 0.000000e+00
    outer loop
      vertex   -2.749631e+00 6.032500e+01 1.587500e+00
      vertex   -1.374815e+00 6.032500e+01 7.937500e-01
      vertex   -1.533407e+00 6.032500e+01 4.108752e-01
    endloop
  endfacet
  facet normal 0.000000e+00 1.000000e+00 0.000000e+00
    outer loop
      vertex   -2.749631e+00 6.032500e+01 1.587500e+00
      vertex   -1.533407e+00 6.032500e+01 4.108752e-01
      vertex   -3.066814e+00 6.032500e+01 8.217505e-01
    endloop
  endfacet
  facet normal 0.000000e+00 1.000000e+00 0.000000e+00
    outer loop
      vertex   -3.066814e+00 6.032500e+01 8.217505e-01
      vertex   -1.533407e+00 6.032500e+01 4.108752e-01
      vertex   -1.587500e+00 6.032500e+01 1.944127e-16
    endloop
  endfacet
endsolid
