solid ASCII
  facet normal 9.914449e-01 1.521398e-18 -1.305262e-01
    outer loop
      vertex   -1.533407e+00 6.667500e+01 4.108752e-01
      vertex   -1.533407e+00 0.000000e+00 4.108752e-01
      vertex   -1.587500e+00 6.667500e+01 1.944127e-16
    endloop
  endfacet
  facet normal 9.914449e-01 0.000000e+00 -1.305262e-01
    outer loop
      vertex   -1.587500e+00 6.667500e+01 1.944127e-16
      vertex   -1.533407e+00 0.000000e+00 4.108752e-01
      vertex   -1.587500e+00 0.000000e+00 1.944127e-16
    endloop
  endfacet
  facet normal 9.914449e-01 0.000000e+00 1.305262e-01
    outer loop
      vertex   -1.587500e+00 6.667500e+01 1.944127e-16
      vertex   -1.587500e+00 0.000000e+00 1.944127e-16
      vertex   -1.533407e+00 6.667500e+01 -4.108752e-01
    endloop
  endfacet
  facet normal 9.914449e-01 -1.521398e-18 1.305262e-01
    outer loop
      vertex   -1.533407e+00 6.667500e+01 -4.108752e-01
      vertex   -1.587500e+00 0.000000e+00 1.944127e-16
      vertex   -1.533407e+00 0.000000e+00 -4.108752e-01
    endloop
  endfacet
  facet normal 9.238795e-01 -4.460514e-18 3.826834e-01
    outer loop
      vertex   -1.533407e+00 6.667500e+01 -4.108752e-01
      vertex   -1.533407e+00 0.000000e+00 -4.108752e-01
      vertex   -1.374815e+00 6.667500e+01 -7.937500e-01
    endloop
  endfacet
  facet normal 9.238795e-01 4.769743e-18 3.826834e-01
    outer loop
      vertex   -1.374815e+00 6.667500e+01 -7.937500e-01
      vertex   -1.533407e+00 0.000000e+00 -4.108752e-01
      vertex   -1.374815e+00 0.000000e+00 -7.937500e-01
    endloop
  endfacet
  facet normal 7.933533e-01 8.305485e-19 6.087614e-01
    outer loop
      vertex   -1.374815e+00 6.667500e+01 -7.937500e-01
      vertex   -1.374815e+00 0.000000e+00 -7.937500e-01
      vertex   -1.122532e+00 6.667500e+01 -1.122532e+00
    endloop
  endfacet
  facet normal 7.933533e-01 0.000000e+00 6.087614e-01
    outer loop
      vertex   -1.122532e+00 6.667500e+01 -1.122532e+00
      vertex   -1.374815e+00 0.000000e+00 -7.937500e-01
      vertex   -1.122532e+00 0.000000e+00 -1.122532e+00
    endloop
  endfacet
  facet normal 6.087614e-01 0.000000e+00 7.933533e-01
    outer loop
      vertex   -1.122532e+00 6.667500e+01 -1.122532e+00
      vertex   -1.122532e+00 0.000000e+00 -1.122532e+00
      vertex   -7.937500e-01 6.667500e+01 -1.374815e+00
    endloop
  endfacet
  facet normal 6.087614e-01 6.879842e-18 7.933533e-01
    outer loop
      vertex   -7.937500e-01 6.667500e+01 -1.374815e+00
      vertex   -1.122532e+00 0.000000e+00 -1.122532e+00
      vertex   -7.937500e-01 0.000000e+00 -1.374815e+00
    endloop
  endfacet
  facet normal 3.826834e-01 1.493091e-18 9.238795e-01
    outer loop
      vertex   -7.937500e-01 6.667500e+01 -1.374815e+00
      vertex   -7.937500e-01 0.000000e+00 -1.374815e+00
      vertex   -4.108752e-01 6.667500e+01 -1.533407e+00
    endloop
  endfacet
  facet normal 3.826834e-01 1.383762e-18 9.238795e-01
    outer loop
      vertex   -4.108752e-01 6.667500e+01 -1.533407e+00
      vertex   -7.937500e-01 0.000000e+00 -1.374815e+00
      vertex   -4.108752e-01 0.000000e+00 -1.533407e+00
    endloop
  endfacet
  facet normal 1.305262e-01 -1.780364e-18 9.914449e-01
    outer loop
      vertex   -4.108752e-01 6.667500e+01 -1.533407e+00
      vertex   -4.108752e-01 0.000000e+00 -1.533407e+00
      vertex   9.720634e-17 6.667500e+01 -1.587500e+00
    endloop
  endfacet
  facet normal 1.305262e-01 0.000000e+00 9.914449e-01
    outer loop
      vertex   9.720634e-17 6.667500e+01 -1.587500e+00
      vertex   -4.108752e-01 0.000000e+00 -1.533407e+00
      vertex   9.720634e-17 0.000000e+00 -1.587500e+00
    endloop
  endfacet
  facet normal -1.305262e-01 0.000000e+00 9.914449e-01
    outer loop
      vertex   9.720634e-17 6.667500e+01 -1.587500e+00
      vertex   9.720634e-17 0.000000e+00 -1.587500e+00
      vertex   4.108752e-01 6.667500e+01 -1.533407e+00
    endloop
  endfacet
  facet normal -1.305262e-01 1.237007e-18 9.914449e-01
    outer loop
      vertex   4.108752e-01 6.667500e+01 -1.533407e+00
      vertex   9.720634e-17 0.000000e+00 -1.587500e+00
      vertex   4.108752e-01 0.000000e+00 -1.533407e+00
    endloop
  endfacet
  facet normal -3.826834e-01 -2.976802e-18 9.238795e-01
    outer loop
      vertex   4.108752e-01 6.667500e+01 -1.533407e+00
      vertex   4.108752e-01 0.000000e+00 -1.533407e+00
      vertex   7.937500e-01 6.667500e+01 -1.374815e+00
    endloop
  endfacet
  facet normal -3.826834e-01 4.769743e-18 9.238795e-01
    outer loop
      vertex   7.937500e-01 6.667500e+01 -1.374815e+00
      vertex   4.108752e-01 0.000000e+00 -1.533407e+00
      vertex   7.937500e-01 0.000000e+00 -1.374815e+00
    endloop
  endfacet
  facet normal -6.087614e-01 8.305485e-19 7.933533e-01
    outer loop
      vertex   7.937500e-01 6.667500e+01 -1.374815e+00
      vertex   7.937500e-01 0.000000e+00 -1.374815e+00
      vertex   1.122532e+00 6.667500e+01 -1.122532e+00
    endloop
  endfacet
  facet normal -6.087614e-01 1.229475e-18 7.933533e-01
    outer loop
      vertex   1.122532e+00 6.667500e+01 -1.122532e+00
      vertex   7.937500e-01 0.000000e+00 -1.374815e+00
      vertex   1.122532e+00 0.000000e+00 -1.122532e+00
    endloop
  endfacet
  facet normal -7.933533e-01 -1.229475e-18 6.087614e-01
    outer loop
      vertex   1.122532e+00 6.667500e+01 -1.122532e+00
      vertex   1.122532e+00 0.000000e+00 -1.122532e+00
      vertex   1.374815e+00 6.667500e+01 -7.937500e-01
    endloop
  endfacet
  facet normal -7.933533e-01 -1.844213e-18 6.087614e-01
    outer loop
      vertex   1.374815e+00 6.667500e+01 -7.937500e-01
      vertex   1.122532e+00 0.000000e+00 -1.122532e+00
      vertex   1.374815e+00 0.000000e+00 -7.937500e-01
    endloop
  endfacet
  facet normal -9.238795e-01 -5.406959e-18 3.826834e-01
    outer loop
      vertex   1.374815e+00 6.667500e+01 -7.937500e-01
      vertex   1.374815e+00 0.000000e+00 -7.937500e-01
      vertex   1.533407e+00 6.667500e+01 -4.108752e-01
    endloop
  endfacet
  facet normal -9.238795e-01 7.465453e-19 3.826834e-01
    outer loop
      vertex   1.533407e+00 6.667500e+01 -4.108752e-01
      vertex   1.374815e+00 0.000000e+00 -7.937500e-01
      vertex   1.533407e+00 0.000000e+00 -4.108752e-01
    endloop
  endfacet
  facet normal -9.914449e-01 -1.997706e-18 1.305262e-01
    outer loop
      vertex   1.533407e+00 6.667500e+01 -4.108752e-01
      vertex   1.533407e+00 0.000000e+00 -4.108752e-01
      vertex   1.587500e+00 6.667500e+01 0.000000e+00
    endloop
  endfacet
  facet normal -9.914449e-01 0.000000e+00 1.305262e-01
    outer loop
      vertex   1.587500e+00 6.667500e+01 0.000000e+00
      vertex   1.533407e+00 0.000000e+00 -4.108752e-01
      vertex   1.587500e+00 0.000000e+00 0.000000e+00
    endloop
  endfacet
  facet normal -9.914449e-01 -0.000000e+00 -1.305262e-01
    outer loop
      vertex   1.587500e+00 6.667500e+01 0.000000e+00
      vertex   1.587500e+00 0.000000e+00 0.000000e+00
      vertex   1.533407e+00 6.667500e+01 4.108752e-01
    endloop
  endfacet
  facet normal -9.914449e-01 1.997706e-18 -1.305262e-01
    outer loop
      vertex   1.533407e+00 6.667500e+01 4.108752e-01
      vertex   1.587500e+00 0.000000e+00 0.000000e+00
      vertex   1.533407e+00 0.000000e+00 4.108752e-01
    endloop
  endfacet
  facet normal -9.238795e-01 -7.465453e-19 -3.826834e-01
    outer loop
      vertex   1.533407e+00 6.667500e+01 4.108752e-01
      vertex   1.533407e+00 0.000000e+00 4.108752e-01
      vertex   1.374815e+00 6.667500e+01 7.937500e-01
    endloop
  endfacet
  facet normal -9.238795e-01 5.406959e-18 -3.826834e-01
    outer loop
      vertex   1.374815e+00 6.667500e+01 7.937500e-01
      vertex   1.533407e+00 0.000000e+00 4.108752e-01
      vertex   1.374815e+00 0.000000e+00 7.937500e-01
    endloop
  endfacet
  facet normal -7.933533e-01 1.844213e-18 -6.087614e-01
    outer loop
      vertex   1.374815e+00 6.667500e+01 7.937500e-01
      vertex   1.374815e+00 0.000000e+00 7.937500e-01
      vertex   1.122532e+00 6.667500e+01 1.122532e+00
    endloop
  endfacet
  facet normal -7.933533e-01 1.229475e-18 -6.087614e-01
    outer loop
      vertex   1.122532e+00 6.667500e+01 1.122532e+00
      vertex   1.374815e+00 0.000000e+00 7.937500e-01
      vertex   1.122532e+00 0.000000e+00 1.122532e+00
    endloop
  endfacet
  facet normal -6.087614e-01 -1.229475e-18 -7.933533e-01
    outer loop
      vertex   1.122532e+00 6.667500e+01 1.122532e+00
      vertex   1.122532e+00 0.000000e+00 1.122532e+00
      vertex   7.937500e-01 6.667500e+01 1.374815e+00
    endloop
  endfacet
  facet normal -6.087614e-01 -8.305485e-19 -7.933533e-01
    outer loop
      vertex   7.937500e-01 6.667500e+01 1.374815e+00
      vertex   1.122532e+00 0.000000e+00 1.122532e+00
      vertex   7.937500e-01 0.000000e+00 1.374815e+00
    endloop
  endfacet
  facet normal -3.826834e-01 -4.769743e-18 -9.238795e-01
    outer loop
      vertex   7.937500e-01 6.667500e+01 1.374815e+00
      vertex   7.937500e-01 0.000000e+00 1.374815e+00
      vertex   4.108752e-01 6.667500e+01 1.533407e+00
    endloop
  endfacet
  facet normal -3.826834e-01 2.976802e-18 -9.238795e-01
    outer loop
      vertex   4.108752e-01 6.667500e+01 1.533407e+00
      vertex   7.937500e-01 0.000000e+00 1.374815e+00
      vertex   4.108752e-01 0.000000e+00 1.533407e+00
    endloop
  endfacet
  facet normal -1.305262e-01 -1.237007e-18 -9.914449e-01
    outer loop
      vertex   4.108752e-01 6.667500e+01 1.533407e+00
      vertex   4.108752e-01 0.000000e+00 1.533407e+00
      vertex   9.720634e-17 6.667500e+01 1.587500e+00
    endloop
  endfacet
  facet normal -1.305262e-01 -0.000000e+00 -9.914449e-01
    outer loop
      vertex   9.720634e-17 6.667500e+01 1.587500e+00
      vertex   4.108752e-01 0.000000e+00 1.533407e+00
      vertex   9.720634e-17 0.000000e+00 1.587500e+00
    endloop
  endfacet
  facet normal 1.305262e-01 0.000000e+00 -9.914449e-01
    outer loop
      vertex   9.720634e-17 6.667500e+01 1.587500e+00
      vertex   9.720634e-17 0.000000e+00 1.587500e+00
      vertex   -4.108752e-01 6.667500e+01 1.533407e+00
    endloop
  endfacet
  facet normal 1.305262e-01 1.780364e-18 -9.914449e-01
    outer loop
      vertex   -4.108752e-01 6.667500e+01 1.533407e+00
      vertex   9.720634e-17 0.000000e+00 1.587500e+00
      vertex   -4.108752e-01 0.000000e+00 1.533407e+00
    endloop
  endfacet
  facet normal 3.826834e-01 -1.383762e-18 -9.238795e-01
    outer loop
      vertex   -4.108752e-01 6.667500e+01 1.533407e+00
      vertex   -4.108752e-01 0.000000e+00 1.533407e+00
      vertex   -7.937500e-01 6.667500e+01 1.374815e+00
    endloop
  endfacet
  facet normal 3.826834e-01 -1.493091e-18 -9.238795e-01
    outer loop
      vertex   -7.937500e-01 6.667500e+01 1.374815e+00
      vertex   -4.108752e-01 0.000000e+00 1.533407e+00
      vertex   -7.937500e-01 0.000000e+00 1.374815e+00
    endloop
  endfacet
  facet normal 6.087614e-01 -6.879842e-18 -7.933533e-01
    outer loop
      vertex   -7.937500e-01 6.667500e+01 1.374815e+00
      vertex   -7.937500e-01 0.000000e+00 1.374815e+00
      vertex   -1.122532e+00 6.667500e+01 1.122532e+00
    endloop
  endfacet
  facet normal 6.087614e-01 0.000000e+00 -7.933533e-01
    outer loop
      vertex   -1.122532e+00 6.667500e+01 1.122532e+00
      vertex   -7.937500e-01 0.000000e+00 1.374815e+00
      vertex   -1.122532e+00 0.000000e+00 1.122532e+00
    endloop
  endfacet
  facet normal 7.933533e-01 0.000000e+00 -6.087614e-01
    outer loop
      vertex   -1.122532e+00 6.667500e+01 1.122532e+00
      vertex   -1.122532e+00 0.000000e+00 1.122532e+00
      vertex   -1.374815e+00 6.667500e+01 7.937500e-01
    endloop
  endfacet
  facet normal 7.933533e-01 -8.305485e-19 -6.087614e-01
    outer loop
      vertex   -1.374815e+00 6.667500e+01 7.937500e-01
      vertex   -1.122532e+00 0.000000e+00 1.122532e+00
      vertex   -1.374815e+00 0.000000e+00 7.937500e-01
    endloop
  endfacet
  facet normal 9.238795e-01 -4.769743e-18 -3.826834e-01
    outer loop
      vertex   -1.374815e+00 6.667500e+01 7.937500e-01
      vertex   -1.374815e+00 0.000000e+00 7.937500e-01
      vertex   -1.533407e+00 6.667500e+01 4.108752e-01
    endloop
  endfacet
  facet normal 9.238795e-01 4.460514e-18 -3.826834e-01
    outer loop
      vertex   -1.533407e+00 6.667500e+01 4.108752e-01
      vertex   -1.374815e+00 0.000000e+00 7.937500e-01
      vertex   -1.533407e+00 0.000000e+00 4.108752e-01
    endloop
  endfacet
  facet normal 0.000000e+00 0.000000e+00 -1.000000e+00
    outer loop
      vertex   3.175000e+00 0.000000e+00 -3.175000e+00
      vertex   5.832380e-16 0.000000e+00 -3.175000e+00
      vertex   3.175000e+00 6.667500e+01 -3.175000e+00
    endloop
  endfacet
  facet normal -0.000000e+00 0.000000e+00 -1.000000e+00
    outer loop
      vertex   3.175000e+00 6.667500e+01 -3.175000e+00
      vertex   5.832380e-16 0.000000e+00 -3.175000e+00
      vertex   5.832380e-16 6.667500e+01 -3.175000e+00
    endloop
  endfacet
  facet normal 1.000000e+00 -0.000000e+00 0.000000e+00
    outer loop
      vertex   3.175000e+00 0.000000e+00 3.175000e+00
      vertex   3.175000e+00 0.000000e+00 -3.175000e+00
      vertex   3.175000e+00 6.667500e+01 3.175000e+00
    endloop
  endfacet
  facet normal 1.000000e+00 0.000000e+00 0.000000e+00
    outer loop
      vertex   3.175000e+00 6.667500e+01 3.175000e+00
      vertex   3.175000e+00 0.000000e+00 -3.175000e+00
      vertex   3.175000e+00 6.667500e+01 -3.175000e+00
    endloop
  endfacet
  facet normal 0.000000e+00 0.000000e+00 1.000000e+00
    outer loop
      vertex   0.000000e+00 0.000000e+00 3.175000e+00
      vertex   3.175000e+00 0.000000e+00 3.175000e+00
      vertex   0.000000e+00 6.667500e+01 3.175000e+00
    endloop
  endfacet
  facet normal -0.000000e+00 0.000000e+00 1.000000e+00
    outer loop
      vertex   0.000000e+00 6.667500e+01 3.175000e+00
      vertex   3.175000e+00 0.000000e+00 3.175000e+00
      vertex   3.175000e+00 6.667500e+01 3.175000e+00
    endloop
  endfacet
  facet normal -1.305262e-01 -0.000000e+00 -9.914449e-01
    outer loop
      vertex   5.832380e-16 6.667500e+01 -3.175000e+00
      vertex   5.832380e-16 0.000000e+00 -3.175000e+00
      vertex   -8.217505e-01 6.667500e+01 -3.066814e+00
    endloop
  endfacet
  facet normal -1.305262e-01 -0.000000e+00 -9.914449e-01
    outer loop
      vertex   -8.217505e-01 6.667500e+01 -3.066814e+00
      vertex   5.832380e-16 0.000000e+00 -3.175000e+00
      vertex   -8.217505e-01 0.000000e+00 -3.066814e+00
    endloop
  endfacet
  facet normal -3.826834e-01 -0.000000e+00 -9.238795e-01
    outer loop
      vertex   -8.217505e-01 6.667500e+01 -3.066814e+00
      vertex   -8.217505e-01 0.000000e+00 -3.066814e+00
      vertex   -1.587500e+00 6.667500e+01 -2.749631e+00
    endloop
  endfacet
  facet normal -3.826834e-01 -1.081392e-17 -9.238795e-01
    outer loop
      vertex   -1.587500e+00 6.667500e+01 -2.749631e+00
      vertex   -8.217505e-01 0.000000e+00 -3.066814e+00
      vertex   -1.587500e+00 0.000000e+00 -2.749631e+00
    endloop
  endfacet
  facet normal -6.087614e-01 -3.688426e-18 -7.933533e-01
    outer loop
      vertex   -1.587500e+00 6.667500e+01 -2.749631e+00
      vertex   -1.587500e+00 0.000000e+00 -2.749631e+00
      vertex   -2.245064e+00 6.667500e+01 -2.245064e+00
    endloop
  endfacet
  facet normal -6.087614e-01 -0.000000e+00 -7.933533e-01
    outer loop
      vertex   -2.245064e+00 6.667500e+01 -2.245064e+00
      vertex   -1.587500e+00 0.000000e+00 -2.749631e+00
      vertex   -2.245064e+00 0.000000e+00 -2.245064e+00
    endloop
  endfacet
  facet normal -7.933533e-01 -0.000000e+00 -6.087614e-01
    outer loop
      vertex   -2.245064e+00 6.667500e+01 -2.245064e+00
      vertex   -2.245064e+00 0.000000e+00 -2.245064e+00
      vertex   -2.749631e+00 6.667500e+01 -1.587500e+00
    endloop
  endfacet
  facet normal -7.933533e-01 -1.093450e-17 -6.087614e-01
    outer loop
      vertex   -2.749631e+00 6.667500e+01 -1.587500e+00
      vertex   -2.245064e+00 0.000000e+00 -2.245064e+00
      vertex   -2.749631e+00 0.000000e+00 -1.587500e+00
    endloop
  endfacet
  facet normal -9.238795e-01 -4.041956e-18 -3.826834e-01
    outer loop
      vertex   -2.749631e+00 6.667500e+01 -1.587500e+00
      vertex   -2.749631e+00 0.000000e+00 -1.587500e+00
      vertex   -3.066814e+00 6.667500e+01 -8.217505e-01
    endloop
  endfacet
  facet normal -9.238795e-01 -3.823298e-18 -3.826834e-01
    outer loop
      vertex   -3.066814e+00 6.667500e+01 -8.217505e-01
      vertex   -2.749631e+00 0.000000e+00 -1.587500e+00
      vertex   -3.066814e+00 0.000000e+00 -8.217505e-01
    endloop
  endfacet
  facet normal -9.914449e-01 -1.304056e-18 -1.305262e-01
    outer loop
      vertex   -3.066814e+00 6.667500e+01 -8.217505e-01
      vertex   -3.066814e+00 0.000000e+00 -8.217505e-01
      vertex   -3.175000e+00 6.667500e+01 -3.888254e-16
    endloop
  endfacet
  facet normal -9.914449e-01 -0.000000e+00 -1.305262e-01
    outer loop
      vertex   -3.175000e+00 6.667500e+01 -3.888254e-16
      vertex   -3.066814e+00 0.000000e+00 -8.217505e-01
      vertex   -3.175000e+00 0.000000e+00 -3.888254e-16
    endloop
  endfacet
  facet normal -9.914449e-01 0.000000e+00 1.305262e-01
    outer loop
      vertex   -3.175000e+00 6.667500e+01 -3.888254e-16
      vertex   -3.175000e+00 0.000000e+00 -3.888254e-16
      vertex   -3.066814e+00 6.667500e+01 8.217505e-01
    endloop
  endfacet
  facet normal -9.914449e-01 -5.299468e-18 1.305262e-01
    outer loop
      vertex   -3.066814e+00 6.667500e+01 8.217505e-01
      vertex   -3.175000e+00 0.000000e+00 -3.888254e-16
      vertex   -3.066814e+00 0.000000e+00 8.217505e-01
    endloop
  endfacet
  facet normal -9.238795e-01 -2.330207e-18 3.826834e-01
    outer loop
      vertex   -3.066814e+00 6.667500e+01 8.217505e-01
      vertex   -3.066814e+00 0.000000e+00 8.217505e-01
      vertex   -2.749631e+00 6.667500e+01 1.587500e+00
    endloop
  endfacet
  facet normal -9.238795e-01 -3.604640e-18 3.826834e-01
    outer loop
      vertex   -2.749631e+00 6.667500e+01 1.587500e+00
      vertex   -3.066814e+00 0.000000e+00 8.217505e-01
      vertex   -2.749631e+00 0.000000e+00 1.587500e+00
    endloop
  endfacet
  facet normal -7.933533e-01 -1.229475e-18 6.087614e-01
    outer loop
      vertex   -2.749631e+00 6.667500e+01 1.587500e+00
      vertex   -2.749631e+00 0.000000e+00 1.587500e+00
      vertex   -2.245064e+00 6.667500e+01 2.245064e+00
    endloop
  endfacet
  facet normal -7.933533e-01 0.000000e+00 6.087614e-01
    outer loop
      vertex   -2.245064e+00 6.667500e+01 2.245064e+00
      vertex   -2.749631e+00 0.000000e+00 1.587500e+00
      vertex   -2.245064e+00 0.000000e+00 2.245064e+00
    endloop
  endfacet
  facet normal -6.087614e-01 0.000000e+00 7.933533e-01
    outer loop
      vertex   -2.245064e+00 6.667500e+01 2.245064e+00
      vertex   -2.245064e+00 0.000000e+00 2.245064e+00
      vertex   -1.587500e+00 6.667500e+01 2.749631e+00
    endloop
  endfacet
  facet normal -6.087614e-01 -1.595708e-18 7.933533e-01
    outer loop
      vertex   -1.587500e+00 6.667500e+01 2.749631e+00
      vertex   -2.245064e+00 0.000000e+00 2.245064e+00
      vertex   -1.587500e+00 0.000000e+00 2.749631e+00
    endloop
  endfacet
  facet normal -3.826834e-01 4.660414e-18 9.238795e-01
    outer loop
      vertex   -1.587500e+00 6.667500e+01 2.749631e+00
      vertex   -1.587500e+00 0.000000e+00 2.749631e+00
      vertex   -8.217505e-01 6.667500e+01 3.066814e+00
    endloop
  endfacet
  facet normal -3.826834e-01 2.967423e-18 9.238795e-01
    outer loop
      vertex   -8.217505e-01 6.667500e+01 3.066814e+00
      vertex   -1.587500e+00 0.000000e+00 2.749631e+00
      vertex   -8.217505e-01 0.000000e+00 3.066814e+00
    endloop
  endfacet
  facet normal -1.305262e-01 5.516811e-18 9.914449e-01
    outer loop
      vertex   -8.217505e-01 6.667500e+01 3.066814e+00
      vertex   -8.217505e-01 0.000000e+00 3.066814e+00
      vertex   0.000000e+00 6.667500e+01 3.175000e+00
    endloop
  endfacet
  facet normal -1.305262e-01 0.000000e+00 9.914449e-01
    outer loop
      vertex   0.000000e+00 6.667500e+01 3.175000e+00
      vertex   -8.217505e-01 0.000000e+00 3.066814e+00
      vertex   0.000000e+00 0.000000e+00 3.175000e+00
    endloop
  endfacet
  facet normal 0.000000e+00 -1.000000e+00 0.000000e+00
    outer loop
      vertex   -1.533407e+00 0.000000e+00 -4.108752e-01
      vertex   -1.587500e+00 0.000000e+00 1.944127e-16
      vertex   -3.175000e+00 0.000000e+00 -3.888254e-16
    endloop
  endfacet
  facet normal 0.000000e+00 -1.000000e+00 0.000000e+00
    outer loop
      vertex   -3.175000e+00 0.000000e+00 -3.888254e-16
      vertex   -1.587500e+00 0.000000e+00 1.944127e-16
      vertex   -1.533407e+00 0.000000e+00 4.108752e-01
    endloop
  endfacet
  facet normal 0.000000e+00 -1.000000e+00 0.000000e+00
    outer loop
      vertex   -3.175000e+00 0.000000e+00 -3.888254e-16
      vertex   -1.533407e+00 0.000000e+00 4.108752e-01
      vertex   -3.066814e+00 0.000000e+00 8.217505e-01
    endloop
  endfacet
  facet normal 0.000000e+00 -1.000000e+00 0.000000e+00
    outer loop
      vertex   -3.066814e+00 0.000000e+00 8.217505e-01
      vertex   -1.533407e+00 0.000000e+00 4.108752e-01
      vertex   -1.374815e+00 0.000000e+00 7.937500e-01
    endloop
  endfacet
  facet normal 0.000000e+00 -1.000000e+00 0.000000e+00
    outer loop
      vertex   -3.066814e+00 0.000000e+00 8.217505e-01
      vertex   -1.374815e+00 0.000000e+00 7.937500e-01
      vertex   -2.749631e+00 0.000000e+00 1.587500e+00
    endloop
  endfacet
  facet normal 0.000000e+00 -1.000000e+00 0.000000e+00
    outer loop
      vertex   -2.749631e+00 0.000000e+00 1.587500e+00
      vertex   -1.374815e+00 0.000000e+00 7.937500e-01
      vertex   -1.122532e+00 0.000000e+00 1.122532e+00
    endloop
  endfacet
  facet normal 0.000000e+00 -1.000000e+00 0.000000e+00
    outer loop
      vertex   -2.749631e+00 0.000000e+00 1.587500e+00
      vertex   -1.122532e+00 0.000000e+00 1.122532e+00
      vertex   -2.245064e+00 0.000000e+00 2.245064e+00
    endloop
  endfacet
  facet normal 0.000000e+00 -1.000000e+00 0.000000e+00
    outer loop
      vertex   -2.245064e+00 0.000000e+00 2.245064e+00
      vertex   -1.122532e+00 0.000000e+00 1.122532e+00
      vertex   -7.937500e-01 0.000000e+00 1.374815e+00
    endloop
  endfacet
  facet normal 0.000000e+00 -1.000000e+00 0.000000e+00
    outer loop
      vertex   -2.245064e+00 0.000000e+00 2.245064e+00
      vertex   -7.937500e-01 0.000000e+00 1.374815e+00
      vertex   -1.587500e+00 0.000000e+00 2.749631e+00
    endloop
  endfacet
  facet normal 0.000000e+00 -1.000000e+00 0.000000e+00
    outer loop
      vertex   -1.587500e+00 0.000000e+00 2.749631e+00
      vertex   -7.937500e-01 0.000000e+00 1.374815e+00
      vertex   -4.108752e-01 0.000000e+00 1.533407e+00
    endloop
  endfacet
  facet normal 0.000000e+00 -1.000000e+00 0.000000e+00
    outer loop
      vertex   -1.587500e+00 0.000000e+00 2.749631e+00
      vertex   -4.108752e-01 0.000000e+00 1.533407e+00
      vertex   -8.217505e-01 0.000000e+00 3.066814e+00
    endloop
  endfacet
  facet normal 0.000000e+00 -1.000000e+00 0.000000e+00
    outer loop
      vertex   -8.217505e-01 0.000000e+00 3.066814e+00
      vertex   -4.108752e-01 0.000000e+00 1.533407e+00
      vertex   9.720634e-17 0.000000e+00 1.587500e+00
    endloop
  endfacet
  facet normal 0.000000e+00 -1.000000e+00 0.000000e+00
    outer loop
      vertex   -8.217505e-01 0.000000e+00 3.066814e+00
      vertex   9.720634e-17 0.000000e+00 1.587500e+00
      vertex   0.000000e+00 0.000000e+00 3.175000e+00
    endloop
  endfacet
  facet normal 0.000000e+00 -1.000000e+00 0.000000e+00
    outer loop
      vertex   0.000000e+00 0.000000e+00 3.175000e+00
      vertex   9.720634e-17 0.000000e+00 1.587500e+00
      vertex   4.108752e-01 0.000000e+00 1.533407e+00
    endloop
  endfacet
  facet normal 0.000000e+00 -1.000000e+00 0.000000e+00
    outer loop
      vertex   0.000000e+00 0.000000e+00 3.175000e+00
      vertex   4.108752e-01 0.000000e+00 1.533407e+00
      vertex   7.937500e-01 0.000000e+00 1.374815e+00
    endloop
  endfacet
  facet normal 0.000000e+00 -1.000000e+00 0.000000e+00
    outer loop
      vertex   0.000000e+00 0.000000e+00 3.175000e+00
      vertex   7.937500e-01 0.000000e+00 1.374815e+00
      vertex   3.175000e+00 0.000000e+00 3.175000e+00
    endloop
  endfacet
  facet normal 0.000000e+00 -1.000000e+00 0.000000e+00
    outer loop
      vertex   3.175000e+00 0.000000e+00 3.175000e+00
      vertex   7.937500e-01 0.000000e+00 1.374815e+00
      vertex   1.122532e+00 0.000000e+00 1.122532e+00
    endloop
  endfacet
  facet normal 0.000000e+00 -1.000000e+00 0.000000e+00
    outer loop
      vertex   3.175000e+00 0.000000e+00 3.175000e+00
      vertex   1.122532e+00 0.000000e+00 1.122532e+00
      vertex   1.374815e+00 0.000000e+00 7.937500e-01
    endloop
  endfacet
  facet normal 0.000000e+00 -1.000000e+00 0.000000e+00
    outer loop
      vertex   1.374815e+00 0.000000e+00 7.937500e-01
      vertex   1.533407e+00 0.000000e+00 4.108752e-01
      vertex   3.175000e+00 0.000000e+00 3.175000e+00
    endloop
  endfacet
  facet normal 0.000000e+00 -1.000000e+00 0.000000e+00
    outer loop
      vertex   3.175000e+00 0.000000e+00 3.175000e+00
      vertex   1.533407e+00 0.000000e+00 4.108752e-01
      vertex   1.587500e+00 0.000000e+00 0.000000e+00
    endloop
  endfacet
  facet normal 0.000000e+00 -1.000000e+00 -0.000000e+00
    outer loop
      vertex   3.175000e+00 0.000000e+00 3.175000e+00
      vertex   1.587500e+00 0.000000e+00 0.000000e+00
      vertex   3.175000e+00 0.000000e+00 -3.175000e+00
    endloop
  endfacet
  facet normal 0.000000e+00 -1.000000e+00 0.000000e+00
    outer loop
      vertex   3.175000e+00 0.000000e+00 -3.175000e+00
      vertex   1.587500e+00 0.000000e+00 0.000000e+00
      vertex   1.533407e+00 0.000000e+00 -4.108752e-01
    endloop
  endfacet
  facet normal 0.000000e+00 -1.000000e+00 0.000000e+00
    outer loop
      vertex   3.175000e+00 0.000000e+00 -3.175000e+00
      vertex   1.533407e+00 0.000000e+00 -4.108752e-01
      vertex   1.374815e+00 0.000000e+00 -7.937500e-01
    endloop
  endfacet
  facet normal 0.000000e+00 -1.000000e+00 -0.000000e+00
    outer loop
      vertex   1.374815e+00 0.000000e+00 -7.937500e-01
      vertex   1.122532e+00 0.000000e+00 -1.122532e+00
      vertex   3.175000e+00 0.000000e+00 -3.175000e+00
    endloop
  endfacet
  facet normal 0.000000e+00 -1.000000e+00 0.000000e+00
    outer loop
      vertex   3.175000e+00 0.000000e+00 -3.175000e+00
      vertex   1.122532e+00 0.000000e+00 -1.122532e+00
      vertex   7.937500e-01 0.000000e+00 -1.374815e+00
    endloop
  endfacet
  facet normal 0.000000e+00 -1.000000e+00 0.000000e+00
    outer loop
      vertex   3.175000e+00 0.000000e+00 -3.175000e+00
      vertex   7.937500e-01 0.000000e+00 -1.374815e+00
      vertex   5.832380e-16 0.000000e+00 -3.175000e+00
    endloop
  endfacet
  facet normal 0.000000e+00 -1.000000e+00 0.000000e+00
    outer loop
      vertex   5.832380e-16 0.000000e+00 -3.175000e+00
      vertex   7.937500e-01 0.000000e+00 -1.374815e+00
      vertex   4.108752e-01 0.000000e+00 -1.533407e+00
    endloop
  endfacet
  facet normal 0.000000e+00 -1.000000e+00 0.000000e+00
    outer loop
      vertex   5.832380e-16 0.000000e+00 -3.175000e+00
      vertex   4.108752e-01 0.000000e+00 -1.533407e+00
      vertex   9.720634e-17 0.000000e+00 -1.587500e+00
    endloop
  endfacet
  facet normal 0.000000e+00 -1.000000e+00 0.000000e+00
    outer loop
      vertex   5.832380e-16 0.000000e+00 -3.175000e+00
      vertex   9.720634e-17 0.000000e+00 -1.587500e+00
      vertex   -8.217505e-01 0.000000e+00 -3.066814e+00
    endloop
  endfacet
  facet normal 0.000000e+00 -1.000000e+00 0.000000e+00
    outer loop
      vertex   -8.217505e-01 0.000000e+00 -3.066814e+00
      vertex   9.720634e-17 0.000000e+00 -1.587500e+00
      vertex   -4.108752e-01 0.000000e+00 -1.533407e+00
    endloop
  endfacet
  facet normal 0.000000e+00 -1.000000e+00 0.000000e+00
    outer loop
      vertex   -8.217505e-01 0.000000e+00 -3.066814e+00
      vertex   -4.108752e-01 0.000000e+00 -1.533407e+00
      vertex   -1.587500e+00 0.000000e+00 -2.749631e+00
    endloop
  endfacet
  facet normal 0.000000e+00 -1.000000e+00 0.000000e+00
    outer loop
      vertex   -1.587500e+00 0.000000e+00 -2.749631e+00
      vertex   -4.108752e-01 0.000000e+00 -1.533407e+00
      vertex   -7.937500e-01 0.000000e+00 -1.374815e+00
    endloop
  endfacet
  facet normal 0.000000e+00 -1.000000e+00 0.000000e+00
    outer loop
      vertex   -1.587500e+00 0.000000e+00 -2.749631e+00
      vertex   -7.937500e-01 0.000000e+00 -1.374815e+00
      vertex   -2.245064e+00 0.000000e+00 -2.245064e+00
    endloop
  endfacet
  facet normal 0.000000e+00 -1.000000e+00 0.000000e+00
    outer loop
      vertex   -2.245064e+00 0.000000e+00 -2.245064e+00
      vertex   -7.937500e-01 0.000000e+00 -1.374815e+00
      vertex   -1.122532e+00 0.000000e+00 -1.122532e+00
    endloop
  endfacet
  facet normal 0.000000e+00 -1.000000e+00 0.000000e+00
    outer loop
      vertex   -2.245064e+00 0.000000e+00 -2.245064e+00
      vertex   -1.122532e+00 0.000000e+00 -1.122532e+00
      vertex   -2.749631e+00 0.000000e+00 -1.587500e+00
    endloop
  endfacet
  facet normal 0.000000e+00 -1.000000e+00 0.000000e+00
    outer loop
      vertex   -2.749631e+00 0.000000e+00 -1.587500e+00
      vertex   -1.122532e+00 0.000000e+00 -1.122532e+00
      vertex   -1.374815e+00 0.000000e+00 -7.937500e-01
    endloop
  endfacet
  facet normal 0.000000e+00 -1.000000e+00 0.000000e+00
    outer loop
      vertex   -2.749631e+00 0.000000e+00 -1.587500e+00
      vertex   -1.374815e+00 0.000000e+00 -7.937500e-01
      vertex   -3.066814e+00 0.000000e+00 -8.217505e-01
    endloop
  endfacet
  facet normal 0.000000e+00 -1.000000e+00 0.000000e+00
    outer loop
      vertex   -3.066814e+00 0.000000e+00 -8.217505e-01
      vertex   -1.374815e+00 0.000000e+00 -7.937500e-01
      vertex   -1.533407e+00 0.000000e+00 -4.108752e-01
    endloop
  endfacet
  facet normal 0.000000e+00 -1.000000e+00 0.000000e+00
    outer loop
      vertex   -3.066814e+00 0.000000e+00 -8.217505e-01
      vertex   -1.533407e+00 0.000000e+00 -4.108752e-01
      vertex   -3.175000e+00 0.000000e+00 -3.888254e-16
    endloop
  endfacet
  facet normal 0.000000e+00 1.000000e+00 0.000000e+00
    outer loop
      vertex   -1.533407e+00 6.667500e+01 4.108752e-01
      vertex   -1.587500e+00 6.667500e+01 1.944127e-16
      vertex   -3.175000e+00 6.667500e+01 -3.888254e-16
    endloop
  endfacet
  facet normal -0.000000e+00 1.000000e+00 0.000000e+00
    outer loop
      vertex   -3.175000e+00 6.667500e+01 -3.888254e-16
      vertex   -1.587500e+00 6.667500e+01 1.944127e-16
      vertex   -1.533407e+00 6.667500e+01 -4.108752e-01
    endloop
  endfacet
  facet normal 0.000000e+00 1.000000e+00 0.000000e+00
    outer loop
      vertex   -3.175000e+00 6.667500e+01 -3.888254e-16
      vertex   -1.533407e+00 6.667500e+01 -4.108752e-01
      vertex   -3.066814e+00 6.667500e+01 -8.217505e-01
    endloop
  endfacet
  facet normal 0.000000e+00 1.000000e+00 0.000000e+00
    outer loop
      vertex   -3.066814e+00 6.667500e+01 -8.217505e-01
      vertex   -1.533407e+00 6.667500e+01 -4.108752e-01
      vertex   -1.374815e+00 6.667500e+01 -7.937500e-01
    endloop
  endfacet
  facet normal -0.000000e+00 1.000000e+00 0.000000e+00
    outer loop
      vertex   -3.066814e+00 6.667500e+01 -8.217505e-01
      vertex   -1.374815e+00 6.667500e+01 -7.937500e-01
      vertex   -2.749631e+00 6.667500e+01 -1.587500e+00
    endloop
  endfacet
  facet normal 0.000000e+00 1.000000e+00 0.000000e+00
    outer loop
      vertex   -2.749631e+00 6.667500e+01 -1.587500e+00
      vertex   -1.374815e+00 6.667500e+01 -7.937500e-01
      vertex   -1.122532e+00 6.667500e+01 -1.122532e+00
    endloop
  endfacet
  facet normal -0.000000e+00 1.000000e+00 0.000000e+00
    outer loop
      vertex   -2.749631e+00 6.667500e+01 -1.587500e+00
      vertex   -1.122532e+00 6.667500e+01 -1.122532e+00
      vertex   -2.245064e+00 6.667500e+01 -2.245064e+00
    endloop
  endfacet
  facet normal 0.000000e+00 1.000000e+00 0.000000e+00
    outer loop
      vertex   -2.245064e+00 6.667500e+01 -2.245064e+00
      vertex   -1.122532e+00 6.667500e+01 -1.122532e+00
      vertex   -7.937500e-01 6.667500e+01 -1.374815e+00
    endloop
  endfacet
  facet normal -0.000000e+00 1.000000e+00 0.000000e+00
    outer loop
      vertex   -2.245064e+00 6.667500e+01 -2.245064e+00
      vertex   -7.937500e-01 6.667500e+01 -1.374815e+00
      vertex   -1.587500e+00 6.667500e+01 -2.749631e+00
    endloop
  endfacet
  facet normal 0.000000e+00 1.000000e+00 0.000000e+00
    outer loop
      vertex   -1.587500e+00 6.667500e+01 -2.749631e+00
      vertex   -7.937500e-01 6.667500e+01 -1.374815e+00
      vertex   -4.108752e-01 6.667500e+01 -1.533407e+00
    endloop
  endfacet
  facet normal -0.000000e+00 1.000000e+00 0.000000e+00
    outer loop
      vertex   -1.587500e+00 6.667500e+01 -2.749631e+00
      vertex   -4.108752e-01 6.667500e+01 -1.533407e+00
      vertex   -8.217505e-01 6.667500e+01 -3.066814e+00
    endloop
  endfacet
  facet normal 0.000000e+00 1.000000e+00 0.000000e+00
    outer loop
      vertex   -8.217505e-01 6.667500e+01 -3.066814e+00
      vertex   -4.108752e-01 6.667500e+01 -1.533407e+00
      vertex   9.720634e-17 6.667500e+01 -1.587500e+00
    endloop
  endfacet
  facet normal -0.000000e+00 1.000000e+00 0.000000e+00
    outer loop
      vertex   -8.217505e-01 6.667500e+01 -3.066814e+00
      vertex   9.720634e-17 6.667500e+01 -1.587500e+00
      vertex   5.832380e-16 6.667500e+01 -3.175000e+00
    endloop
  endfacet
  facet normal 0.000000e+00 1.000000e+00 -0.000000e+00
    outer loop
      vertex   5.832380e-16 6.667500e+01 -3.175000e+00
      vertex   9.720634e-17 6.667500e+01 -1.587500e+00
      vertex   4.108752e-01 6.667500e+01 -1.533407e+00
    endloop
  endfacet
  facet normal 0.000000e+00 1.000000e+00 0.000000e+00
    outer loop
      vertex   5.832380e-16 6.667500e+01 -3.175000e+00
      vertex   4.108752e-01 6.667500e+01 -1.533407e+00
      vertex   7.937500e-01 6.667500e+01 -1.374815e+00
    endloop
  endfacet
  facet normal 0.000000e+00 1.000000e+00 0.000000e+00
    outer loop
      vertex   5.832380e-16 6.667500e+01 -3.175000e+00
      vertex   7.937500e-01 6.667500e+01 -1.374815e+00
      vertex   3.175000e+00 6.667500e+01 -3.175000e+00
    endloop
  endfacet
  facet normal 0.000000e+00 1.000000e+00 0.000000e+00
    outer loop
      vertex   3.175000e+00 6.667500e+01 -3.175000e+00
      vertex   7.937500e-01 6.667500e+01 -1.374815e+00
      vertex   1.122532e+00 6.667500e+01 -1.122532e+00
    endloop
  endfacet
  facet normal 0.000000e+00 1.000000e+00 0.000000e+00
    outer loop
      vertex   3.175000e+00 6.667500e+01 -3.175000e+00
      vertex   1.122532e+00 6.667500e+01 -1.122532e+00
      vertex   1.374815e+00 6.667500e+01 -7.937500e-01
    endloop
  endfacet
  facet normal -0.000000e+00 1.000000e+00 0.000000e+00
    outer loop
      vertex   1.374815e+00 6.667500e+01 -7.937500e-01
      vertex   1.533407e+00 6.667500e+01 -4.108752e-01
      vertex   3.175000e+00 6.667500e+01 -3.175000e+00
    endloop
  endfacet
  facet normal 0.000000e+00 1.000000e+00 0.000000e+00
    outer loop
      vertex   3.175000e+00 6.667500e+01 -3.175000e+00
      vertex   1.533407e+00 6.667500e+01 -4.108752e-01
      vertex   1.587500e+00 6.667500e+01 0.000000e+00
    endloop
  endfacet
  facet normal 0.000000e+00 1.000000e+00 -0.000000e+00
    outer loop
      vertex   3.175000e+00 6.667500e+01 -3.175000e+00
      vertex   1.587500e+00 6.667500e+01 0.000000e+00
      vertex   3.175000e+00 6.667500e+01 3.175000e+00
    endloop
  endfacet
  facet normal 0.000000e+00 1.000000e+00 0.000000e+00
    outer loop
      vertex   3.175000e+00 6.667500e+01 3.175000e+00
      vertex   1.587500e+00 6.667500e+01 0.000000e+00
      vertex   1.533407e+00 6.667500e+01 4.108752e-01
    endloop
  endfacet
  facet normal 0.000000e+00 1.000000e+00 0.000000e+00
    outer loop
      vertex   3.175000e+00 6.667500e+01 3.175000e+00
      vertex   1.533407e+00 6.667500e+01 4.108752e-01
      vertex   1.374815e+00 6.667500e+01 7.937500e-01
    endloop
  endfacet
  facet normal 0.000000e+00 1.000000e+00 -0.000000e+00
    outer loop
      vertex   1.374815e+00 6.667500e+01 7.937500e-01
      vertex   1.122532e+00 6.667500e+01 1.122532e+00
      vertex   3.175000e+00 6.667500e+01 3.175000e+00
    endloop
  endfacet
  facet normal 0.000000e+00 1.000000e+00 0.000000e+00
    outer loop
      vertex   3.175000e+00 6.667500e+01 3.175000e+00
      vertex   1.122532e+00 6.667500e+01 1.122532e+00
      vertex   7.937500e-01 6.667500e+01 1.374815e+00
    endloop
  endfacet
  facet normal 0.000000e+00 1.000000e+00 0.000000e+00
    outer loop
      vertex   3.175000e+00 6.667500e+01 3.175000e+00
      vertex   7.937500e-01 6.667500e+01 1.374815e+00
      vertex   0.000000e+00 6.667500e+01 3.175000e+00
    endloop
  endfacet
  facet normal 0.000000e+00 1.000000e+00 0.000000e+00
    outer loop
      vertex   0.000000e+00 6.667500e+01 3.175000e+00
      vertex   7.937500e-01 6.667500e+01 1.374815e+00
      vertex   4.108752e-01 6.667500e+01 1.533407e+00
    endloop
  endfacet
  facet normal 0.000000e+00 1.000000e+00 0.000000e+00
    outer loop
      vertex   0.000000e+00 6.667500e+01 3.175000e+00
      vertex   4.108752e-01 6.667500e+01 1.533407e+00
      vertex   9.720634e-17 6.667500e+01 1.587500e+00
    endloop
  endfacet
  facet normal 0.000000e+00 1.000000e+00 0.000000e+00
    outer loop
      vertex   0.000000e+00 6.667500e+01 3.175000e+00
      vertex   9.720634e-17 6.667500e+01 1.587500e+00
      vertex   -8.217505e-01 6.667500e+01 3.066814e+00
    endloop
  endfacet
  facet normal 0.000000e+00 1.000000e+00 0.000000e+00
    outer loop
      vertex   -8.217505e-01 6.667500e+01 3.066814e+00
      vertex   9.720634e-17 6.667500e+01 1.587500e+00
      vertex   -4.108752e-01 6.667500e+01 1.533407e+00
    endloop
  endfacet
  facet normal 0.000000e+00 1.000000e+00 0.000000e+00
    outer loop
      vertex   -8.217505e-01 6.667500e+01 3.066814e+00
      vertex   -4.108752e-01 6.667500e+01 1.533407e+00
      vertex   -1.587500e+00 6.667500e+01 2.749631e+00
    endloop
  endfacet
  facet normal 0.000000e+00 1.000000e+00 0.000000e+00
    outer loop
      vertex   -1.587500e+00 6.667500e+01 2.749631e+00
      vertex   -4.108752e-01 6.667500e+01 1.533407e+00
      vertex   -7.937500e-01 6.667500e+01 1.374815e+00
    endloop
  endfacet
  facet normal 0.000000e+00 1.000000e+00 0.000000e+00
    outer loop
      vertex   -1.587500e+00 6.667500e+01 2.749631e+00
      vertex   -7.937500e-01 6.667500e+01 1.374815e+00
      vertex   -2.245064e+00 6.667500e+01 2.245064e+00
    endloop
  endfacet
  facet normal 0.000000e+00 1.000000e+00 0.000000e+00
    outer loop
      vertex   -2.245064e+00 6.667500e+01 2.245064e+00
      vertex   -7.937500e-01 6.667500e+01 1.374815e+00
      vertex   -1.122532e+00 6.667500e+01 1.122532e+00
    endloop
  endfacet
  facet normal 0.000000e+00 1.000000e+00 0.000000e+00
    outer loop
      vertex   -2.245064e+00 6.667500e+01 2.245064e+00
      vertex   -1.122532e+00 6.667500e+01 1.122532e+00
      vertex   -2.749631e+00 6.667500e+01 1.587500e+00
    endloop
  endfacet
  facet normal 0.000000e+00 1.000000e+00 0.000000e+00
    outer loop
      vertex   -2.749631e+00 6.667500e+01 1.587500e+00
      vertex   -1.122532e+00 6.667500e+01 1.122532e+00
      vertex   -1.374815e+00 6.667500e+01 7.937500e-01
    endloop
  endfacet
  facet normal 0.000000e+00 1.000000e+00 0.000000e+00
    outer loop
      vertex   -2.749631e+00 6.667500e+01 1.587500e+00
      vertex   -1.374815e+00 6.667500e+01 7.937500e-01
      vertex   -3.066814e+00 6.667500e+01 8.217505e-01
    endloop
  endfacet
  facet normal 0.000000e+00 1.000000e+00 0.000000e+00
    outer loop
      vertex   -3.066814e+00 6.667500e+01 8.217505e-01
      vertex   -1.374815e+00 6.667500e+01 7.937500e-01
      vertex   -1.533407e+00 6.667500e+01 4.108752e-01
    endloop
  endfacet
  facet normal 0.000000e+00 1.000000e+00 0.000000e+00
    outer loop
      vertex   -3.066814e+00 6.667500e+01 8.217505e-01
      vertex   -1.533407e+00 6.667500e+01 4.108752e-01
      vertex   -3.175000e+00 6.667500e+01 -3.888254e-16
    endloop
  endfacet
endsolid
